<svg width="120" height="96" viewBox="0 0 120 96" fill="none" xmlns="http://www.w3.org/2000/svg">
    <g clip-path="url(#clip0)">
        <path d="M108.48 7.67996C108.48 7.67996 94.2721 -3.74404 80.6401 1.43996C67.0081 6.62396 60.8641 18.048 46.1761 22.752C31.4881 27.456 12.3841 22.464 3.74413 36.96C-4.89587 51.456 -3.45587 92.928 65.8561 95.904C135.072 98.976 123.744 16.32 108.48 7.67996Z" fill="#F3F4F4" />
        <path d="M23.808 8.25602C23.808 8.25602 20.448 9.79202 15.744 14.592C11.04 19.392 7.872 20.352 3.84 19.296C-0.192003 18.144 -2.784 7.96801 7.296 2.11201C17.376 -3.74399 28.416 3.74402 23.808 8.25602Z" fill="#F3F4F4" />
        <path d="M76.8 28.3201H43.2C41.952 28.3201 40.896 29.3761 40.896 30.6241V72.6721C40.896 73.9201 41.952 74.9761 43.2 74.9761H76.8C78.048 74.9761 79.104 73.9201 79.104 72.6721V30.5281C79.008 29.2801 78.048 28.3201 76.8 28.3201ZM73.44 54.9121H45.696V51.6481H73.44V54.9121ZM73.44 46.8481H45.696V43.5841H73.44V46.8481ZM73.44 38.6881H52.416V35.4241H73.344V38.6881H73.44Z" fill="#2C4A6E" />
        <path d="M70.944 59.7121C68.16 57.2161 64.032 57.2161 61.248 59.7121C58.464 62.2081 57.984 66.3361 60.096 69.3121C60.288 69.6001 60.576 69.9841 60.864 70.2721C62.208 71.7121 64.128 72.4801 66.048 72.4801C67.968 72.4801 69.888 71.7121 71.232 70.2721C71.52 69.9841 71.808 69.6961 72 69.3121C74.112 66.3361 73.632 62.2081 70.944 59.7121ZM66.048 71.2321C62.688 71.2321 60 68.5441 60 65.1841C60 61.8241 62.688 59.1361 66.048 59.1361C69.408 59.1361 72.096 61.8241 72.096 65.1841C72.096 68.5441 69.408 71.2321 66.048 71.2321Z" fill="#5184C4" />
        <path d="M61.2479 73.6321L61.1519 79.2001L65.5679 77.4721C65.8559 77.3761 66.1439 77.3761 66.4318 77.4721L70.8479 79.2001V73.6321C70.8479 73.6321 70.8478 73.6321 70.7518 73.6321C67.8718 75.3601 64.2239 75.3601 61.2479 73.6321Z" fill="#5184C4" />
        <path d="M69.6959 65.1841C69.6959 67.2001 68.0639 68.8321 66.0479 68.8321C64.0319 68.8321 62.3999 67.2001 62.3999 65.1841C62.3999 63.1681 64.0319 61.5361 66.0479 61.5361C68.0639 61.5361 69.6959 63.1681 69.6959 65.1841Z" fill="#5184C4" />
    </g>
    <defs>
        <clipPath id="clip0">
            <rect width="120" height="96" fill="white" />
        </clipPath>
    </defs>
</svg>