<svg width="120" height="97" viewBox="0 0 120 97" fill="none" xmlns="http://www.w3.org/2000/svg">
    <g clip-path="url(#clip0)">
        <path d="M1.44243 34.8075C1.44243 34.8075 23.7501 -23.654 73.654 11.2498C123.558 46.1537 130.289 63.6537 107.596 86.346C84.904 109.038 -12.8845 92.4037 1.44243 34.8075Z" fill="#F3F4F4" />
        <path d="M96.4427 8.26916C96.4427 8.26916 99.808 9.80762 104.52 14.6153C109.231 19.3269 112.404 20.4807 116.443 19.3269C120.481 18.2692 123.077 7.9807 112.981 2.21147C102.885 -3.55776 91.8273 3.74993 96.4427 8.26916Z" fill="#F3F4F4" />
        <path d="M44.5191 22.9807C41.5383 22.9807 39.7114 25.2884 39.7114 27.9807V28.0769C39.7114 30.8653 41.6345 33.0769 44.5191 33.0769C47.4037 33.0769 49.3268 30.7692 49.3268 28.0769V27.9807C49.423 25.2884 47.4999 22.9807 44.5191 22.9807ZM46.1537 28.0769C46.1537 29.2307 45.4807 30.0961 44.6153 30.0961C43.7499 30.0961 43.0768 29.2307 43.0768 27.9807V27.8846C43.0768 26.7307 43.6537 25.8653 44.6153 25.8653C45.4807 25.8653 46.1537 26.8269 46.1537 28.0769Z" fill="#5184C4" />
        <path d="M45.3844 41.9231H41.8267L56.2497 23.2693H59.8074L45.3844 41.9231Z" fill="#5184C4" />
        <path d="M57.1153 32.1152C54.1345 32.1152 52.3076 34.4229 52.3076 37.1152V37.2114C52.3076 39.9037 54.2307 42.2114 57.1153 42.2114C59.9999 42.2114 61.923 39.9037 61.923 37.2114V37.1152C61.923 34.4229 59.9999 32.1152 57.1153 32.1152ZM58.6538 37.2114C58.6538 38.3652 57.9807 39.2306 57.1153 39.2306C56.2499 39.2306 55.5768 38.3652 55.5768 37.1152V37.0191C55.5768 35.7691 56.1538 34.9998 57.1153 34.9998C57.9807 35.096 58.6538 35.9614 58.6538 37.2114Z" fill="#5184C4" />
        <path d="M80.2884 69.0383V73.1729H42.3076V69.0383H47.4999V51.8268H54.5192V69.0383H57.7884V47.596H64.8076V69.0383H68.0768V42.7883H75.0961V69.0383H80.2884Z" fill="#2C4A6E" />
    </g>
    <defs>
        <clipPath id="clip0">
            <rect width="120" height="96.1538" fill="white" />
        </clipPath>
    </defs>
</svg>