<svg width="142" height="124" viewBox="0 0 142 124" fill="none" xmlns="http://www.w3.org/2000/svg">
    <path d="M141.002 62.6005C141.002 107.986 88.5638 123.636 55.3059 123.636C22.048 123.636 4.35156 96.3095 4.35156 62.6005C4.35156 28.8915 22.048 0 55.3059 0C88.5638 0 141.002 22.6927 141.002 62.6005Z" fill="#378DF4" />
    <path d="M52.4351 96.2949V93.6629H56.4111V81.9589H53.1351V79.9429C54.0311 79.7749 54.7965 79.5789 55.4311 79.3549C56.0845 79.1123 56.6911 78.8229 57.2511 78.4869H59.6591V93.6629H63.1591V96.2949H52.4351ZM65.6546 90.4149V88.0629H72.3186V90.4149H65.6546ZM80.01 96.6309C78.5727 96.6309 77.3594 96.3883 76.37 95.9029C75.3994 95.3989 74.5874 94.8203 73.934 94.1669L75.418 92.0949C75.9594 92.5989 76.566 93.0469 77.238 93.4389C77.91 93.8123 78.694 93.9989 79.59 93.9989C80.598 93.9989 81.4194 93.7003 82.054 93.1029C82.7074 92.5056 83.034 91.6656 83.034 90.5829C83.034 89.5189 82.7354 88.6976 82.138 88.1189C81.5407 87.5403 80.7474 87.2509 79.758 87.2509C79.1794 87.2509 78.694 87.3349 78.302 87.5029C77.91 87.6523 77.4434 87.9043 76.902 88.2589L75.362 87.2789L75.894 78.4869H85.414V81.2029H78.694L78.33 85.5149C78.7034 85.3283 79.0674 85.1883 79.422 85.0949C79.7954 84.9829 80.2154 84.9269 80.682 84.9269C81.4474 84.9269 82.166 85.0389 82.838 85.2629C83.5287 85.4869 84.126 85.8323 84.63 86.2989C85.134 86.7469 85.5354 87.3256 85.834 88.0349C86.1327 88.7256 86.282 89.5469 86.282 90.4989C86.282 91.4696 86.1047 92.3376 85.75 93.1029C85.414 93.8683 84.9567 94.5123 84.378 95.0349C83.7994 95.5576 83.1274 95.9589 82.362 96.2389C81.6154 96.5003 80.8314 96.6309 80.01 96.6309Z" fill="white" />
    <path d="M59.5293 62V29.4H70.6793C72.3793 29.4 73.946 29.5333 75.3793 29.8C76.846 30.0333 78.1126 30.4667 79.1793 31.1C80.2793 31.7333 81.1293 32.5667 81.7293 33.6C82.3626 34.6333 82.6793 35.9333 82.6793 37.5C82.6793 38.2333 82.5793 38.9667 82.3793 39.7C82.1793 40.4333 81.896 41.1167 81.5293 41.75C81.1626 42.3833 80.7126 42.95 80.1793 43.45C79.6793 43.95 79.096 44.3167 78.4293 44.55V44.75C79.2626 44.95 80.0293 45.2667 80.7293 45.7C81.4293 46.1 82.046 46.6167 82.5793 47.25C83.1126 47.8833 83.5293 48.6333 83.8293 49.5C84.1293 50.3333 84.2793 51.3 84.2793 52.4C84.2793 54.0667 83.946 55.5 83.2793 56.7C82.646 57.9 81.746 58.9 80.5793 59.7C79.446 60.4667 78.1126 61.05 76.5793 61.45C75.046 61.8167 73.396 62 71.6293 62H59.5293ZM66.8793 42.45H70.3293C72.1293 42.45 73.4293 42.1 74.2293 41.4C75.0626 40.7 75.4793 39.7667 75.4793 38.6C75.4793 37.3333 75.0626 36.4333 74.2293 35.9C73.396 35.3667 72.1126 35.1 70.3793 35.1H66.8793V42.45ZM66.8793 56.3H71.0293C75.0626 56.3 77.0793 54.8333 77.0793 51.9C77.0793 50.4667 76.5793 49.45 75.5793 48.85C74.5793 48.2167 73.0626 47.9 71.0293 47.9H66.8793V56.3Z" fill="white" />
</svg>