<svg width="142" height="124" viewBox="0 0 142 124" fill="none" xmlns="http://www.w3.org/2000/svg">
    <path d="M141.002 62.6005C141.002 107.986 88.5638 123.636 55.3059 123.636C22.048 123.636 4.35156 96.3095 4.35156 62.6005C4.35156 28.8915 22.048 0 55.3059 0C88.5638 0 141.002 22.6927 141.002 62.6005Z" fill="#41AF60" />
    <path d="M52.4351 96.2949V93.6629H56.4111V81.9589H53.1351V79.9429C54.0311 79.7749 54.7965 79.5789 55.4311 79.3549C56.0845 79.1123 56.6911 78.8229 57.2511 78.4869H59.6591V93.6629H63.1591V96.2949H52.4351ZM65.6546 90.4149V88.0629H72.3186V90.4149H65.6546ZM80.01 96.6309C78.5727 96.6309 77.3594 96.3883 76.37 95.9029C75.3994 95.3989 74.5874 94.8203 73.934 94.1669L75.418 92.0949C75.9594 92.5989 76.566 93.0469 77.238 93.4389C77.91 93.8123 78.694 93.9989 79.59 93.9989C80.598 93.9989 81.4194 93.7003 82.054 93.1029C82.7074 92.5056 83.034 91.6656 83.034 90.5829C83.034 89.5189 82.7354 88.6976 82.138 88.1189C81.5407 87.5403 80.7474 87.2509 79.758 87.2509C79.1794 87.2509 78.694 87.3349 78.302 87.5029C77.91 87.6523 77.4434 87.9043 76.902 88.2589L75.362 87.2789L75.894 78.4869H85.414V81.2029H78.694L78.33 85.5149C78.7034 85.3283 79.0674 85.1883 79.422 85.0949C79.7954 84.9829 80.2154 84.9269 80.682 84.9269C81.4474 84.9269 82.166 85.0389 82.838 85.2629C83.5287 85.4869 84.126 85.8323 84.63 86.2989C85.134 86.7469 85.5354 87.3256 85.834 88.0349C86.1327 88.7256 86.282 89.5469 86.282 90.4989C86.282 91.4696 86.1047 92.3376 85.75 93.1029C85.414 93.8683 84.9567 94.5123 84.378 95.0349C83.7994 95.5576 83.1274 95.9589 82.362 96.2389C81.6154 96.5003 80.8314 96.6309 80.01 96.6309Z" fill="white" />
    <path d="M73.7152 62.6C71.6486 62.6 69.6986 62.25 67.8652 61.55C66.0319 60.8167 64.4152 59.75 63.0152 58.35C61.6486 56.95 60.5652 55.2167 59.7652 53.15C58.9652 51.05 58.5652 48.6333 58.5652 45.9C58.5652 43.2 58.9819 40.8 59.8152 38.7C60.6486 36.5667 61.7652 34.7667 63.1652 33.3C64.5652 31.8333 66.1986 30.7167 68.0652 29.95C69.9319 29.1833 71.8986 28.8 73.9652 28.8C76.0652 28.8 77.9486 29.2333 79.6152 30.1C81.2819 30.9333 82.6652 31.9167 83.7652 33.05L79.8652 37.75C79.0319 36.9833 78.1486 36.3667 77.2152 35.9C76.3152 35.4 75.2819 35.15 74.1152 35.15C73.0152 35.15 71.9652 35.4 70.9652 35.9C69.9986 36.3667 69.1486 37.05 68.4152 37.95C67.7152 38.85 67.1486 39.95 66.7152 41.25C66.3152 42.55 66.1152 44.0167 66.1152 45.65C66.1152 49.0167 66.8319 51.6333 68.2652 53.5C69.6986 55.3333 71.6152 56.25 74.0152 56.25C75.3486 56.25 76.5319 55.9667 77.5652 55.4C78.6319 54.8 79.5652 54.0667 80.3652 53.2L84.2652 57.8C81.5319 61 78.0152 62.6 73.7152 62.6Z" fill="white" />
</svg>