<svg width="142" height="124" viewBox="0 0 142 124" fill="none" xmlns="http://www.w3.org/2000/svg">
    <path d="M141.002 62.6005C141.002 107.986 88.5638 123.636 55.3059 123.636C22.048 123.636 4.35156 96.3095 4.35156 62.6005C4.35156 28.8915 22.048 0 55.3059 0C88.5638 0 141.002 22.6927 141.002 62.6005Z" fill="#ED6E2E" />
    <path d="M52.4351 96.2949V93.6629H56.4111V81.9589H53.1351V79.9429C54.0311 79.7749 54.7965 79.5789 55.4311 79.3549C56.0845 79.1123 56.6911 78.8229 57.2511 78.4869H59.6591V93.6629H63.1591V96.2949H52.4351ZM65.6546 90.4149V88.0629H72.3186V90.4149H65.6546ZM80.01 96.6309C78.5727 96.6309 77.3594 96.3883 76.37 95.9029C75.3994 95.3989 74.5874 94.8203 73.934 94.1669L75.418 92.0949C75.9594 92.5989 76.566 93.0469 77.238 93.4389C77.91 93.8123 78.694 93.9989 79.59 93.9989C80.598 93.9989 81.4194 93.7003 82.054 93.1029C82.7074 92.5056 83.034 91.6656 83.034 90.5829C83.034 89.5189 82.7354 88.6976 82.138 88.1189C81.5407 87.5403 80.7474 87.2509 79.758 87.2509C79.1794 87.2509 78.694 87.3349 78.302 87.5029C77.91 87.6523 77.4434 87.9043 76.902 88.2589L75.362 87.2789L75.894 78.4869H85.414V81.2029H78.694L78.33 85.5149C78.7034 85.3283 79.0674 85.1883 79.422 85.0949C79.7954 84.9829 80.2154 84.9269 80.682 84.9269C81.4474 84.9269 82.166 85.0389 82.838 85.2629C83.5287 85.4869 84.126 85.8323 84.63 86.2989C85.134 86.7469 85.5354 87.3256 85.834 88.0349C86.1327 88.7256 86.282 89.5469 86.282 90.4989C86.282 91.4696 86.1047 92.3376 85.75 93.1029C85.414 93.8683 84.9567 94.5123 84.378 95.0349C83.7994 95.5576 83.1274 95.9589 82.362 96.2389C81.6154 96.5003 80.8314 96.6309 80.01 96.6309Z" fill="white" />
    <path d="M60.9697 62V29.4H81.3697V35.6H68.3197V42.15H79.4197V48.3H68.3197V55.8H81.8697V62H60.9697Z" fill="white" />
</svg>