<svg width="72" height="72" viewBox="0 0 72 72" fill="none" xmlns="http://www.w3.org/2000/svg">
    <g clip-path="url(#clip0)">
        <path d="M6.89366 61.259C6.89366 61.259 15.4558 68.2904 23.5732 65.0792C31.7462 61.868 35.4713 54.8366 44.2558 52.0129C53.0404 49.1893 64.5493 52.1237 69.7199 43.2651C74.8906 34.4066 74.0566 8.88306 32.469 7.05599C-9.1187 5.22892 -2.22449 55.9439 6.89366 61.259Z" fill="#F3F4F5" />
        <path d="M37.1953 60.261C37.1953 60.261 39.1969 59.209 42.0324 55.9425C44.8679 52.7313 46.7583 51.9561 49.2046 52.7313C51.5953 53.451 53.2077 60.4271 47.1474 64.4134C41.0872 68.3998 34.471 63.3615 37.1953 60.261Z" fill="#F3F4F5" />
        <path d="M41.8653 17.7969H22.4058H20.2931H16.4568V21.6725H20.2931V25.4927V46.3656C20.2931 48.4695 22.0166 50.2412 24.185 50.2412H45.7572V21.6725C45.7572 19.5132 44.0336 17.7969 41.8653 17.7969Z" fill="#2B486D" />
        <path d="M20.3485 21.6725H12.5647C12.5647 19.5686 14.2882 17.7969 16.4566 17.7969C18.5693 17.7969 20.3485 19.5132 20.3485 21.6725Z" fill="#378DF4" />
        <path d="M45.7573 46.3652H28.077C28.077 47.8601 27.243 49.1335 25.9642 49.7979C25.4638 50.0747 24.8522 50.2408 24.1851 50.2408H49.5936C51.7063 50.2408 53.4299 48.5245 53.4299 46.3652H45.7573Z" fill="#378DF4" />
        <path d="M26.5208 29.9209C26.5208 28.0938 27.7439 26.6543 29.6899 26.6543C31.5802 26.6543 32.8034 28.1492 32.8034 29.8655V29.9209C32.8034 31.6926 31.5246 33.1874 29.6343 33.1874C27.7439 33.1321 26.5208 31.6926 26.5208 29.9209ZM37.1957 26.8204H39.5308L30.1903 38.8901H27.8551L37.1957 26.8204ZM30.635 29.9209C30.635 29.1458 30.1903 28.5367 29.6343 28.5367C29.0227 28.5367 28.6335 29.0904 28.6335 29.8655V29.9209C28.6335 30.696 29.0783 31.2496 29.6343 31.2496C30.2458 31.2496 30.635 30.696 30.635 29.9209ZM34.6381 35.845C34.6381 34.0179 35.8613 32.5784 37.8072 32.5784C39.6976 32.5784 40.9208 34.0179 40.9208 35.7896V35.845C40.9208 37.6167 39.642 39.1116 37.7516 39.1116C35.8613 39.0562 34.6381 37.6167 34.6381 35.845ZM38.7524 35.845C38.7524 35.0145 38.3076 34.4609 37.7516 34.4609C37.1401 34.4609 36.7509 35.0145 36.7509 35.7896V35.845C36.7509 36.6201 37.1957 37.1738 37.7516 37.1738C38.3632 37.1738 38.7524 36.6201 38.7524 35.845Z" fill="white" />
    </g>
    <defs>
        <clipPath id="clip0">
            <rect y="7" width="72" height="58.9091" fill="white" />
        </clipPath>
    </defs>
</svg>