<svg width="72" height="72" viewBox="0 0 72 72" fill="none" xmlns="http://www.w3.org/2000/svg">
    <g clip-path="url(#clip0)">
        <path d="M0.846303 27.6956C0.846303 27.6956 14.2306 -10.5135 44.1733 12.2862C74.116 35.0858 78.1894 46.5118 64.5406 61.3447C50.8919 76.1775 -7.77677 65.3805 0.846303 27.6956Z" fill="#F3F4F5" />
        <path d="M54.1195 15.8486C54.1195 15.8486 57.3995 20.0416 58.8808 19.2554C60.362 18.4692 64.4884 14.381 61.0497 9.40176C57.6111 4.42254 49.2525 3.95082 46.9248 6.78112C44.65 9.559 54.1195 15.8486 54.1195 15.8486Z" fill="#F3F4F5" />
        <path d="M42.2163 32.4648C41.7402 31.731 40.735 31.5738 40.0473 32.0455L36.2383 34.6662C36.1325 34.6137 36.0267 34.5613 35.9209 34.5613C34.3867 34.0896 32.7997 34.9282 32.3235 36.3958C31.8474 37.8634 32.6939 39.4882 34.1751 39.9599C35.7093 40.4316 37.2964 39.593 37.7725 38.1254C37.8783 37.8634 37.8783 37.6013 37.9312 37.2868L41.846 34.6137C42.5337 34.142 42.7453 33.1462 42.2163 32.4648Z" fill="#378DF4" />
        <path d="M42.0044 49.6019C41.7399 49.7067 41.4754 49.8115 41.2109 49.9164C40.5231 50.1784 40.1528 50.9646 40.4173 51.646C40.576 52.0129 40.7876 52.2225 41.105 52.3798C41.4225 52.537 41.7928 52.537 42.1631 52.4322C42.4805 52.3274 42.7979 52.1701 43.1153 52.0129C43.8031 51.6984 44.1205 50.9122 43.8031 50.2308C43.4856 49.6019 42.6921 49.2874 42.0044 49.6019Z" fill="#2B486D" />
        <path d="M48.5105 29.9482C48.6692 30.2102 48.8808 30.4199 49.1453 30.5247C49.5157 30.682 49.9918 30.6819 50.3621 30.4723C50.9969 30.1054 51.2614 29.2668 50.8911 28.6378C50.7324 28.3234 50.5208 28.0613 50.3621 27.7468C49.9389 27.1179 49.0924 26.9082 48.4576 27.3275C47.8228 27.7468 47.6112 28.5854 48.0344 29.2144C48.246 29.424 48.3518 29.6861 48.5105 29.9482Z" fill="#2B486D" />
        <path d="M46.0246 46.8776C45.813 47.0873 45.6014 47.2969 45.3898 47.4542C44.8078 47.9259 44.7549 48.8169 45.231 49.341C45.3898 49.4983 45.5485 49.6031 45.7072 49.7079C46.1833 49.9176 46.7652 49.8652 47.1884 49.4983C47.4529 49.2886 47.7175 49.0266 47.9291 48.8169C48.4581 48.2928 48.4581 47.4542 47.982 46.9301C47.4 46.4059 46.5536 46.3535 46.0246 46.8776Z" fill="#2B486D" />
        <path d="M52.5848 32.9873C52.4261 32.2535 51.6854 31.7818 50.9448 31.9914C50.2042 32.1487 49.728 32.8825 49.9397 33.6162C49.9926 33.8783 50.0455 34.1928 50.0984 34.4548C50.1513 34.9266 50.4687 35.2934 50.8919 35.4507C51.1564 35.5555 51.4209 35.6079 51.6854 35.5555C52.4261 35.4507 52.9551 34.7169 52.7964 33.9831C52.7435 33.6686 52.6906 33.3542 52.5848 32.9873Z" fill="#2B486D" />
        <path d="M50.68 42.423C49.9922 42.1086 49.1987 42.3706 48.8284 43.052C48.7226 43.3141 48.5639 43.5761 48.4052 43.8382C48.0348 44.4672 48.2465 45.3058 48.9342 45.6727C48.9871 45.6727 48.9871 45.7251 49.04 45.7251C49.6748 45.9871 50.4154 45.7775 50.7858 45.1485C50.9445 44.834 51.1032 44.572 51.2619 44.2575C51.6322 43.5237 51.3677 42.7375 50.68 42.423Z" fill="#2B486D" />
        <path d="M51.7378 37.234C50.9971 37.1292 50.3094 37.6533 50.2036 38.4395C50.1507 38.7016 50.1507 39.0161 50.0978 39.2781C49.992 39.9071 50.3094 40.4836 50.8913 40.7457C50.9971 40.7981 51.1029 40.8505 51.2087 40.8505C51.9494 41.0078 52.6371 40.4836 52.7958 39.7498C52.8487 39.4354 52.9016 39.0685 52.9545 38.754C53.0074 37.9678 52.4784 37.2864 51.7378 37.234Z" fill="#2B486D" />
        <path d="M36.1847 50.9132C34.968 50.9132 33.6983 50.756 32.5345 50.4939H32.4815C32.217 50.4415 31.8996 50.3367 31.6351 50.2318C31.1061 50.0746 30.63 49.8649 30.1538 49.6553C23.012 46.4057 19.8379 38.0196 23.0649 30.9439C23.7527 29.4239 24.7049 28.0612 25.8688 26.9081L25.9217 26.8557C29.9422 22.8723 36.1318 21.4571 41.6336 23.7633L40.893 25.4405C40.6814 25.9122 40.893 26.1743 41.422 26.0171L45.9187 24.7591C46.3948 24.6019 46.6594 24.1302 46.3948 23.6585L44.3317 19.5178C44.1201 19.0461 43.7497 19.0461 43.5381 19.5178L42.7975 21.1951C38.7769 19.4654 34.2802 19.3606 30.1538 20.933C29.7306 21.0902 29.3074 21.2475 28.9371 21.4571H28.8842C25.3926 23.0819 22.5888 25.8074 20.8959 29.2667C20.8959 29.3191 20.843 29.3191 20.843 29.3715C20.7901 29.4763 20.7372 29.5811 20.6843 29.7384C20.5785 29.948 20.5256 30.1053 20.4198 30.3149V30.3673C19.0973 33.6169 18.8328 37.1286 19.6263 40.5354C19.6263 40.5354 19.6263 40.5354 19.6263 40.5878C19.6792 40.9023 19.785 41.2692 19.8908 41.5837V41.6361C19.9966 41.9506 20.1024 42.2651 20.2082 42.632C21.4779 45.934 23.6998 48.7119 26.5565 50.6511C27.35 51.1753 28.1436 51.647 29.0429 52.0139C31.3177 53.0621 33.7512 53.5338 36.2376 53.5338C36.9782 53.5338 37.6131 52.9049 37.6131 52.1711C37.5602 51.4897 36.9253 50.9132 36.1847 50.9132Z" fill="#2B486D" />
    </g>
    <defs>
        <clipPath id="clip0">
            <rect y="5" width="72" height="62.7907" fill="white" />
        </clipPath>
    </defs>
</svg>