<svg width="72" height="72" viewBox="0 0 72 72" fill="none" xmlns="http://www.w3.org/2000/svg">
    <g clip-path="url(#clip0)">
        <path d="M6.94249 60.5261C6.94249 60.5261 15.4452 67.5467 23.6359 64.3484C31.8266 61.1501 35.4929 54.0515 44.3076 51.2433C53.1223 48.4351 64.5893 51.3993 69.8157 42.4286C75.0422 33.4578 74.1061 7.87168 32.5286 6.07753C-9.04884 4.28338 -2.26228 55.2216 6.94249 60.5261Z" fill="#F3F4F5" />
        <path d="M37.2091 59.5111C37.2091 59.5111 39.2372 58.4191 42.0455 55.1428C44.8537 51.8665 46.8039 51.1644 49.2221 51.8665C51.6403 52.5686 53.2004 59.5892 47.1159 63.6455C41.0314 67.7018 34.4788 62.6314 37.2091 59.5111Z" fill="#F3F4F5" />
        <path d="M26.6784 19.7297C26.6784 18.9496 26.0544 18.3256 25.2743 18.3256C24.4942 18.3256 23.8702 18.9496 23.8702 19.7297C23.8702 19.8857 23.8702 19.9637 23.9482 20.1197V19.8077L26.6784 19.7297L26.6004 20.0417C26.6784 19.9637 26.6784 19.8077 26.6784 19.7297ZM26.6784 19.7297C26.6784 18.9496 26.0544 18.3256 25.2743 18.3256C24.4942 18.3256 23.8702 18.9496 23.8702 19.7297C23.8702 19.8857 23.8702 19.9637 23.9482 20.1197V19.8077L26.6784 19.7297L26.6004 20.0417C26.6784 19.9637 26.6784 19.8077 26.6784 19.7297ZM24.5722 20.5098V20.9778C24.7283 21.0558 24.9623 21.1338 25.1963 21.1338C25.4303 21.1338 25.6643 21.0558 25.8203 20.9778V20.5098H24.5722ZM25.2743 18.2476C24.4942 18.2476 23.8702 18.8716 23.8702 19.6517C23.8702 19.8077 23.8702 19.8857 23.9482 20.0417C24.0262 20.4318 24.3382 20.7438 24.6502 20.9778C24.8063 21.0558 25.0403 21.1338 25.2743 21.1338C25.5083 21.1338 25.7423 21.0558 25.8984 20.9778C26.2884 20.8218 26.5224 20.4318 26.6004 20.0417C26.6004 19.9637 26.6784 19.8077 26.6784 19.6517C26.6784 18.9496 26.0544 18.2476 25.2743 18.2476ZM25.2743 18.2476C24.4942 18.2476 23.8702 18.8716 23.8702 19.6517C23.8702 19.8077 23.8702 19.8857 23.9482 20.0417C24.0262 20.4318 24.3382 20.7438 24.6502 20.9778C24.8063 21.0558 25.0403 21.1338 25.2743 21.1338C25.5083 21.1338 25.7423 21.0558 25.8984 20.9778C26.2884 20.8218 26.5224 20.4318 26.6004 20.0417C26.6004 19.9637 26.6784 19.8077 26.6784 19.6517C26.6784 18.9496 26.0544 18.2476 25.2743 18.2476ZM25.2743 21.9139C25.0403 21.9139 24.8063 21.9139 24.6502 21.8359V22.928H25.9764V21.8359C25.6643 21.8359 25.5083 21.9139 25.2743 21.9139ZM14.4314 16.4534V22.85H23.8702V21.3678C23.4021 20.9778 23.0901 20.3537 23.0901 19.7297C23.0901 18.4036 24.3382 17.3115 25.7423 17.6235C26.6004 17.7795 27.2245 18.4816 27.3805 19.3397C27.5365 20.1977 27.2245 20.9778 26.6004 21.4458V22.928H36.0392V16.5314C36.0392 15.9074 35.4932 15.3613 34.8691 15.3613H15.6015C14.9774 15.3613 14.4314 15.8294 14.4314 16.4534ZM25.2743 18.2476C24.4942 18.2476 23.8702 18.8716 23.8702 19.6517C23.8702 19.8077 23.8702 19.8857 23.9482 20.0417C24.0262 20.4318 24.3382 20.7438 24.6502 20.9778C24.8063 21.0558 25.0403 21.1338 25.2743 21.1338C25.5083 21.1338 25.7423 21.0558 25.8984 20.9778C26.2884 20.8218 26.5224 20.4318 26.6004 20.0417C26.6004 19.9637 26.6784 19.8077 26.6784 19.6517C26.6784 18.9496 26.0544 18.2476 25.2743 18.2476ZM25.2743 18.2476C24.4942 18.2476 23.8702 18.8716 23.8702 19.6517C23.8702 19.8077 23.8702 19.8857 23.9482 20.0417C24.0262 20.4318 24.3382 20.7438 24.6502 20.9778C24.8063 21.0558 25.0403 21.1338 25.2743 21.1338C25.5083 21.1338 25.7423 21.0558 25.8984 20.9778C26.2884 20.8218 26.5224 20.4318 26.6004 20.0417C26.6004 19.9637 26.6784 19.8077 26.6784 19.6517C26.6784 18.9496 26.0544 18.2476 25.2743 18.2476ZM25.2743 18.2476C24.4942 18.2476 23.8702 18.8716 23.8702 19.6517C23.8702 19.8077 23.8702 19.8857 23.9482 20.0417C24.0262 20.4318 24.3382 20.7438 24.6502 20.9778C24.8063 21.0558 25.0403 21.1338 25.2743 21.1338C25.5083 21.1338 25.7423 21.0558 25.8984 20.9778C26.2884 20.8218 26.5224 20.4318 26.6004 20.0417C26.6004 19.9637 26.6784 19.8077 26.6784 19.6517C26.6784 18.9496 26.0544 18.2476 25.2743 18.2476ZM26.6784 19.7297C26.6784 18.9496 26.0544 18.3256 25.2743 18.3256C24.4942 18.3256 23.8702 18.9496 23.8702 19.7297C23.8702 19.8857 23.8702 19.9637 23.9482 20.1197V19.8077L26.6784 19.7297L26.6004 20.0417C26.6784 19.9637 26.6784 19.8077 26.6784 19.7297Z" fill="#2B486D" />
        <path d="M25.274 26.3602C25.0399 26.3602 24.8059 26.3602 24.6499 26.4382V24.332H25.976V26.4382C25.664 26.4382 25.508 26.3602 25.274 26.3602Z" fill="#2B486D" />
        <path d="M26.6781 28.5427C26.6781 28.6987 26.6781 28.7767 26.6001 28.9327C26.6001 29.0887 26.5221 29.1667 26.4441 29.2447C26.2101 29.7128 25.742 29.9468 25.196 29.9468C24.6499 29.9468 24.1819 29.6348 23.9479 29.2447C23.8699 29.1667 23.8699 29.0107 23.7919 28.9327C23.7919 28.8547 23.7139 28.6987 23.7139 28.5427C23.7139 28.3867 23.7139 28.3087 23.7919 28.1526C23.8699 27.7626 24.1819 27.4506 24.4939 27.2166C24.6499 27.1386 24.884 27.0605 25.118 27.0605C25.352 27.0605 25.586 27.1386 25.742 27.2166C26.1321 27.3726 26.3661 27.7626 26.4441 28.1526C26.6781 28.3087 26.6781 28.4647 26.6781 28.5427Z" fill="#2B486D" />
        <path d="M36.0392 24.41V44.1457C36.0392 44.7697 35.4932 45.3158 34.8691 45.3158H15.6015C14.9774 45.3158 14.4314 44.7697 14.4314 44.1457V24.41H23.8702V26.9062C23.4021 27.2963 23.0901 27.9203 23.0901 28.5444C23.0901 29.8705 24.3382 30.9626 25.7423 30.6506C26.6004 30.4945 27.2245 29.7925 27.3805 28.9344C27.5365 28.0763 27.2245 27.2963 26.6004 26.8282V24.332H36.0392V24.41Z" fill="#2B486D" />
        <path d="M34.4005 40.0098H28.55V42.896H34.4005V40.0098Z" fill="white" />
        <path d="M25.2741 20.4315C25.6618 20.4315 25.9761 20.1171 25.9761 19.7294C25.9761 19.3417 25.6618 19.0273 25.2741 19.0273C24.8863 19.0273 24.572 19.3417 24.572 19.7294C24.572 20.1171 24.8863 20.4315 25.2741 20.4315Z" fill="white" />
        <path d="M25.1962 29.2459C25.5839 29.2459 25.8983 28.9316 25.8983 28.5439C25.8983 28.1561 25.5839 27.8418 25.1962 27.8418C24.8085 27.8418 24.4941 28.1561 24.4941 28.5439C24.4941 28.9316 24.8085 29.2459 25.1962 29.2459Z" fill="white" />
        <path d="M47.74 48.9025H28.6284C27.9263 48.9025 27.3022 48.2785 27.3022 47.5764V22.0683C27.3022 21.3662 27.9263 20.7422 28.6284 20.7422H47.6619C48.364 20.7422 48.9881 21.3662 48.9881 22.0683V47.5764C49.0661 48.2785 48.442 48.9025 47.74 48.9025Z" fill="#378DF4" />
        <path d="M38.145 26.6713C39.3082 26.6713 40.2512 25.7284 40.2512 24.5652C40.2512 23.402 39.3082 22.459 38.145 22.459C36.9818 22.459 36.0388 23.402 36.0388 24.5652C36.0388 25.7284 36.9818 26.6713 38.145 26.6713Z" fill="white" />
        <path d="M43.9957 28.6211H32.2947V29.9472H43.9957V28.6211Z" fill="white" />
        <path d="M45.1658 30.9609H31.2026V32.287H45.1658V30.9609Z" fill="white" />
        <path d="M35.0249 35.5645H29.0964V36.8906H35.0249V35.5645Z" fill="white" />
        <path d="M47.0377 35.5645H36.0388V36.8906H47.0377V35.5645Z" fill="white" />
        <path d="M35.0249 38.0605H29.0964V39.3867H35.0249V38.0605Z" fill="white" />
        <path d="M47.0377 38.0605H36.0388V39.3867H47.0377V38.0605Z" fill="white" />
        <path d="M35.0249 40.791H29.0964V42.1171H35.0249V40.791Z" fill="white" />
        <path d="M47.0377 40.791H36.0388V42.1171H47.0377V40.791Z" fill="white" />
        <path d="M46.9598 45.9395H40.0952V47.2656H46.9598V45.9395Z" fill="white" />
    </g>
    <defs>
        <clipPath id="clip0">
            <rect y="6" width="72" height="59.2069" fill="white" />
        </clipPath>
    </defs>
</svg>