<svg width="72" height="72" viewBox="0 0 72 72" fill="none" xmlns="http://www.w3.org/2000/svg">
    <g clip-path="url(#clip0)">
        <path d="M65.2407 30.0968C63.1248 32.6829 61.7142 36.4445 60.3036 40.6176C59.2456 43.7327 58.1876 47.0829 56.8946 50.3156C52.4276 61.4241 44.9632 71.3572 23.9803 66.5964C20.8064 65.8911 18.1027 65.0094 15.693 63.9515C15.3403 63.7752 14.9876 63.6576 14.635 63.4813C12.0489 62.247 9.87418 60.8952 8.11091 59.367C7.93459 59.2494 7.81704 59.1319 7.64071 58.9556C-5.99521 46.9066 2.82112 27.8046 2.82112 27.8046C3.64398 26.2176 4.64316 25.0421 5.75989 24.1017C8.69867 21.6331 12.5191 21.0454 16.3983 20.6339C17.0448 20.5752 17.7501 20.4576 18.3966 20.3988C20.5125 20.1637 22.5109 19.8111 24.3917 19.1646C25.8611 18.6356 27.2717 17.8715 28.4472 16.7548C35.3827 10.1719 40.8489 6.17516 55.6015 4.1768C70.4129 2.17843 74.2921 18.9882 65.2407 30.0968Z" fill="#F3F4F5" />
        <path d="M67.2396 36.0918C67.2396 36.0918 64.0069 35.6216 62.4788 43.2624C60.9506 50.9033 57.1302 53.7245 62.949 55.5465C68.7677 57.3686 72.7057 50.198 71.8828 47.4355C71.06 44.6731 70.3547 44.7906 70.3547 41.6167C70.3547 38.4428 69.3555 35.0926 67.2396 36.0918Z" fill="#F3F4F5" />
        <path d="M21.6884 26.7461L19.5137 42.204H50.5471L52.7218 26.7461H21.6884ZM49.1953 40.3232H21.7471L23.628 28.6857H50.7235L49.1953 40.3232Z" fill="#2B486D" />
        <path d="M34.9718 38.2658C37.0817 38.2658 38.7922 36.5554 38.7922 34.4454C38.7922 32.3355 37.0817 30.625 34.9718 30.625C32.8618 30.625 31.1514 32.3355 31.1514 34.4454C31.1514 36.5554 32.8618 38.2658 34.9718 38.2658Z" fill="#378DF4" />
        <path d="M19.5135 28.334H5.76001V30.6262H19.5135V28.334Z" fill="#378DF4" />
        <path d="M18.6319 33.0352H10.8735V35.3274H18.6319V33.0352Z" fill="#378DF4" />
        <path d="M18.044 37.6797H12.813V39.9719H18.044V37.6797Z" fill="#378DF4" />
        <path d="M22.8051 41.6178L22.041 44.7329H53.8386L55.9545 30.0391H51.6051L49.4304 41.6178H22.8051Z" fill="#2B486D" />
    </g>
    <defs>
        <clipPath id="clip0">
            <rect y="4" width="72" height="63.7714" fill="white" />
        </clipPath>
    </defs>
</svg>