<svg width="72" height="72" viewBox="0 0 72 72" fill="none" xmlns="http://www.w3.org/2000/svg">
    <g clip-path="url(#clip0)">
        <path d="M26.8075 4.44111C26.8075 4.44111 8.58728 7.57873 3.13774 19.6338C-2.3118 31.6888 -1.76134 41.0466 14.0368 48.753C29.835 56.4595 33.413 57.6705 39.5781 61.0833C45.7432 64.4962 68.4221 65.1017 71.4497 45.5604C74.4772 26.1292 65.3946 0.367718 26.8075 4.44111Z" fill="#F3F4F5" />
        <path d="M29.3951 60.5328C29.3951 60.5328 22.6795 55.0833 18.441 56.6796C14.2024 58.2759 16.1841 64.4411 21.7437 66.6979C27.3033 68.9548 33.4134 67.4135 33.5235 65.0466C33.6336 62.6796 29.3951 60.5328 29.3951 60.5328Z" fill="#F3F4F5" />
        <path d="M29.9458 23.8166H28.6797C28.3494 23.8166 28.0742 23.5414 28.0742 23.2111V17.4864C28.0742 17.1561 28.3494 16.8809 28.6797 16.8809H29.9458C30.2761 16.8809 30.5513 17.1561 30.5513 17.4864V23.1561C30.5513 23.5414 30.2761 23.8166 29.9458 23.8166Z" fill="#378DF4" />
        <path d="M37.3769 23.8166H36.1109C35.7806 23.8166 35.5054 23.5414 35.5054 23.2111V17.4864C35.5054 17.1561 35.7806 16.8809 36.1109 16.8809H37.3769C37.7072 16.8809 37.9824 17.1561 37.9824 17.4864V23.1561C37.9824 23.5414 37.7072 23.8166 37.3769 23.8166Z" fill="#378DF4" />
        <path d="M44.8628 23.8166H43.5967C43.2664 23.8166 42.9912 23.5414 42.9912 23.2111V17.4864C42.9912 17.1561 43.2664 16.8809 43.5967 16.8809H44.8628C45.193 16.8809 45.4683 17.1561 45.4683 17.4864V23.1561C45.4683 23.5414 45.193 23.8166 44.8628 23.8166Z" fill="#378DF4" />
        <path d="M48.8262 19.9629H46.184V23.5409C46.184 24.0363 45.7987 24.4216 45.3032 24.4216H43.1565C42.661 24.4216 42.2757 24.0363 42.2757 23.5409V19.9629H38.7528V23.5409C38.7528 24.0363 38.3675 24.4216 37.8721 24.4216H35.7253C35.2299 24.4216 34.8445 24.0363 34.8445 23.5409V19.9629H31.3216V23.5409C31.3216 24.0363 30.9363 24.4216 30.4409 24.4216H28.2941C27.7987 24.4216 27.4133 24.0363 27.4133 23.5409V19.9629H24.7711C23.8904 19.9629 23.1748 20.6785 23.1748 21.5592V45.7244C23.1748 46.6051 23.8904 47.3207 24.7711 47.3207H48.9363C49.817 47.3207 50.5326 46.6051 50.5326 45.7244V21.5592C50.4225 20.6785 49.7069 19.9629 48.8262 19.9629Z" fill="#2C496D" />
        <path d="M59.8348 48.0922C61.211 46.1656 61.9266 43.8536 61.9266 41.4867C61.9266 35.1564 56.8073 30.0371 50.4771 30.0371V33.56C54.8257 33.56 58.4037 37.083 58.4037 41.4867C58.4037 42.9178 58.0183 44.294 57.3027 45.56L54.9358 43.1931L55.266 50.0188L62.0917 50.349L59.8348 48.0922Z" fill="#378DF4" />
        <path d="M42.6053 41.4867C42.6053 39.9454 43.0457 38.4592 43.8713 37.1931L46.1282 39.45L45.798 32.5142V32.4592L38.8071 32.1289L41.3392 34.661C39.853 36.6427 39.0824 39.0096 39.0824 41.4867C39.0824 47.817 44.2016 52.9362 50.5319 52.9362V49.4133C46.1282 49.3583 42.6053 45.8353 42.6053 41.4867Z" fill="#378DF4" />
        <path d="M32.3116 28.0566H26.9722V33.3961H32.3116V28.0566Z" fill="white" />
        <path d="M32.3116 36.4785H26.9722V41.818H32.3116V36.4785Z" fill="white" />
    </g>
    <defs>
        <clipPath id="clip0">
            <rect y="4" width="72" height="63.7431" fill="white" />
        </clipPath>
    </defs>
</svg>