<svg width="72" height="72" viewBox="0 0 72 72" fill="none" xmlns="http://www.w3.org/2000/svg">
    <g clip-path="url(#clip0)">
        <path d="M6.89439 60.4871C6.89439 60.4871 15.4566 67.5481 23.5739 64.3234C31.7469 61.0987 35.472 54.0377 44.2565 51.2021C53.0411 48.3666 64.55 51.3133 69.7206 42.4176C74.8913 33.5218 74.0573 7.89094 32.4697 6.05619C-9.11797 4.22144 -2.22376 55.1496 6.89439 60.4871Z" fill="#F3F4F5" />
        <path d="M37.1956 59.4872C37.1956 59.4872 39.1971 58.4308 42.0326 55.1505C44.8682 51.9258 46.7585 51.1474 49.2048 51.9258C51.5956 52.6486 53.2079 59.654 47.1477 63.6571C41.0875 67.6601 34.4712 62.6007 37.1956 59.4872Z" fill="#F3F4F5" />
        <path d="M41.9214 22.3458H46.7029L41.1431 16.6191V21.5674C41.1431 22.0122 41.5323 22.3458 41.9214 22.3458Z" fill="#378DF4" />
        <path d="M47.7596 23.8486V46.3104C47.7596 46.366 47.7596 46.4216 47.7596 46.4772L46.3141 45.0872L43.0337 48.3675L39.6422 45.0316L36.3063 48.3675L33.026 45.0872L29.6901 48.4231L26.2986 45.0316L22.1843 48.4231V15.5645H39.6978V21.5691C39.6978 22.7923 40.7542 23.8486 41.9774 23.8486H47.7596Z" fill="#2B486D" />
        <path d="M25.8535 19.2891H28.0775C28.8002 19.2891 29.3006 19.4559 29.5786 19.7894C29.8566 20.0674 29.9678 20.401 29.9678 20.9014C29.9678 21.6242 29.5786 22.069 29.0226 22.347L30.1346 23.9593H28.6334L27.6883 22.5694H27.1323V23.9593H25.8535V19.2891ZM27.9663 21.5686C28.411 21.5686 28.6334 21.3462 28.6334 21.0126C28.6334 20.6234 28.3554 20.4566 27.9107 20.4566H27.0767V21.5686H27.9663Z" fill="white" />
        <path d="M30.5791 20.4013H31.8579V20.9017C32.0803 20.6237 32.4138 20.3457 32.9698 20.3457C33.8038 20.3457 34.5822 21.0685 34.5822 22.2361C34.5822 23.4036 33.8594 24.1264 32.9698 24.1264C32.4138 24.1264 32.0803 23.904 31.8579 23.626V25.1272H30.5791V20.4013ZM33.3034 22.1805C33.3034 21.6801 32.9698 21.3465 32.5806 21.3465C32.1915 21.3465 31.8579 21.6801 31.8579 22.1805C31.8579 22.6808 32.1915 23.0144 32.5806 23.0144C32.9698 23.0144 33.3034 22.6808 33.3034 22.1805Z" fill="white" />
        <path d="M44.5346 29.7969H25.8535V31.9652H44.5346V29.7969Z" fill="white" />
        <path d="M44.5346 33.9668H25.8535V36.1351H44.5346V33.9668Z" fill="white" />
        <path d="M40.1979 38.1367H25.8535V40.3051H40.1979V38.1367Z" fill="white" />
    </g>
    <defs>
        <clipPath id="clip0">
            <rect y="6" width="72" height="59.1568" fill="white" />
        </clipPath>
    </defs>
</svg>