<svg width="72" height="72" viewBox="0 0 72 72" fill="none" xmlns="http://www.w3.org/2000/svg">
    <g clip-path="url(#clip0)">
        <path d="M0.846303 26.9072C0.846303 26.9072 14.2306 -11.6586 44.1733 11.3539C74.116 34.3664 78.1894 45.8991 64.5406 60.8704C50.8919 75.8418 -7.77677 64.9439 0.846303 26.9072Z" fill="#F3F4F5" />
        <path d="M54.1196 14.9514C54.1196 14.9514 57.3995 19.1835 58.8808 18.39C60.362 17.5965 64.4884 13.4701 61.0498 8.44438C57.6111 3.41866 49.2525 2.94254 46.9248 5.79926C44.65 8.60308 54.1196 14.9514 54.1196 14.9514Z" fill="#F3F4F5" />
        <path d="M26.1335 28.0174C28.2496 28.8109 28.3554 30.6096 28.9373 32.8844C29.4134 34.8418 30.6831 36.4289 31.6353 35.8998C33.1695 35.0534 33.7514 34.4715 35.5501 32.9902C36.9784 31.8264 39.5707 29.6574 42.0571 27.5942C45.3899 24.8433 46.977 23.7852 48.0879 25.1078C49.2518 26.5361 47.3473 28.3877 44.5435 30.5567C41.3693 33.0431 39.941 34.207 40.1526 34.4715C40.5229 34.8947 41.7396 33.5721 42.6919 34.6831C43.8557 36.1115 42.6919 36.9579 43.0093 37.3282C43.3267 37.6985 44.5435 37.0108 45.4957 38.1746C46.395 39.2856 45.1254 40.6082 45.4957 41.0843C45.866 41.5604 46.4479 41.2959 47.0299 41.9836C47.6118 42.6713 47.5589 46.2687 42.3745 50.448C35.9204 55.7382 33.4869 53.8866 31.3179 55.6853L23.5413 47.6442C25.0754 46.0571 24.1761 43.5707 24.4935 40.9256C24.8109 38.2805 26.5567 35.794 24.0174 30.2393C23.118 28.1761 24.8638 27.5413 26.1335 28.0174Z" fill="#2B486D" />
        <path d="M34.2279 23.3092C33.6989 23.3092 33.2756 22.8859 33.2756 22.3569V18.5479C33.2756 18.0189 33.6989 17.5957 34.2279 17.5957C34.7569 17.5957 35.1801 18.0189 35.1801 18.5479V22.3569C35.1801 22.8859 34.7569 23.3092 34.2279 23.3092Z" fill="#378DF4" />
        <path d="M38.3013 26.0596C37.8252 25.848 37.6136 25.266 37.8252 24.7899L39.4652 21.2984C39.6768 20.8223 40.2587 20.6107 40.7348 20.8223C41.2109 21.0339 41.4225 21.6158 41.2109 22.0919L39.571 25.5835C39.3594 26.1125 38.7774 26.2712 38.3013 26.0596Z" fill="#378DF4" />
        <path d="M30.1542 26.0596C30.6304 25.848 30.842 25.266 30.6304 24.7899L28.9904 21.2984C28.7788 20.8223 28.1969 20.6107 27.7207 20.8223C27.2446 21.0339 27.033 21.6158 27.2446 22.0919L28.8846 25.5835C29.1491 26.1125 29.6781 26.2712 30.1542 26.0596Z" fill="#378DF4" />
    </g>
    <defs>
        <clipPath id="clip0">
            <rect y="4" width="72" height="63.3769" fill="white" />
        </clipPath>
    </defs>
</svg>