<svg width="72" height="72" viewBox="0 0 72 72" fill="none" xmlns="http://www.w3.org/2000/svg">
    <g clip-path="url(#clip0)">
        <path d="M26.8075 4.44111C26.8075 4.44111 8.58728 7.57873 3.13774 19.6338C-2.3118 31.6888 -1.76134 41.0466 14.0368 48.753C29.835 56.4595 33.413 57.6705 39.5781 61.0833C45.7432 64.4962 68.4221 65.1017 71.4497 45.5604C74.4772 26.1292 65.3946 0.367718 26.8075 4.44111Z" fill="#F3F4F5" />
        <path d="M29.3951 60.5328C29.3951 60.5328 22.6795 55.0833 18.441 56.6796C14.2024 58.2759 16.1841 64.4411 21.7437 66.6979C27.3033 68.9548 33.4134 67.4135 33.5235 65.0466C33.6336 62.6796 29.3951 60.5328 29.3951 60.5328Z" fill="#F3F4F5" />
        <path d="M46.0183 18.4219H26.7522H24.6605H20.8623V22.2751H24.6605V26.0733V46.8256C24.6605 48.9173 26.3669 50.6788 28.5137 50.6788H49.8715V22.22C49.8164 20.1283 48.11 18.4219 46.0183 18.4219Z" fill="#2B486D" />
        <path d="M24.6604 22.2204H17.009C17.009 20.1287 18.7155 18.3672 20.8622 18.3672C22.954 18.4222 24.6604 20.1287 24.6604 22.2204Z" fill="#378DF4" />
        <path d="M49.8161 46.7715H32.3115C32.3115 48.2577 31.4858 49.5238 30.2197 50.1843C29.7243 50.4596 29.1188 50.6247 28.4583 50.6247H53.6142C55.706 50.6247 57.4124 48.9183 57.4124 46.7715H49.8161Z" fill="#378DF4" />
        <path d="M37.5962 30.918V36.6427C37.5962 37.1382 37.431 37.6336 36.8806 37.6336C36.6053 37.6336 36.4952 37.5785 36.4402 37.4684C36.8806 36.8079 37.1558 35.9822 37.1558 35.0464C37.1558 34.496 37.0457 34.0005 36.8806 33.5051C36.8806 33.4501 36.8255 33.34 36.7705 33.2849C36.22 32.0189 35.0641 31.0831 33.743 30.973C33.6879 30.973 33.6329 30.973 33.5778 30.973C33.5228 30.973 33.4677 30.973 33.4127 30.973C31.9264 31.6886 30.9356 32.7895 30.9356 32.7895C30.9356 32.7895 30.9356 32.5143 30.8255 32.0189C30.8806 32.0739 30.8255 32.129 30.8255 32.184C30.165 32.9547 29.7246 33.9455 29.7246 35.1015C29.7246 37.3583 31.376 39.1749 33.4677 39.1749C34.1283 39.1749 34.7338 39.0097 35.2292 38.6794C35.6696 39.0097 36.165 39.1749 36.7705 39.1749C38.0365 39.1749 39.0824 38.2941 39.3576 37.0281V30.918H37.5962ZM34.2934 37.5235C34.0182 37.6886 33.743 37.7437 33.4127 37.7437C32.2567 37.7437 31.3209 36.5326 31.3209 34.9914C31.3209 33.5051 32.2567 32.2941 33.4127 32.2941C34.2934 32.2941 35.009 32.9547 35.3393 33.8904C35.4494 34.2207 35.5044 34.606 35.5044 34.9914C35.5595 36.1473 35.009 37.1382 34.2934 37.5235Z" fill="white" />
        <path d="M39.8533 34.055V36.5321L40.8991 35.5413L43.3762 39.1743H45.7982L42.3303 34L44.6973 31.4679L42.2202 31.3027L39.8533 34.055Z" fill="white" />
        <path d="M47.3944 30.2024C47.3944 30.2024 47.3393 30.2024 47.3944 30.2024C47.3393 30.2024 47.3393 30.2024 47.3944 30.2024C47.3393 30.2575 47.2843 30.3125 47.2292 30.3676C46.8989 30.6978 46.1283 31.3584 44.6971 31.4685C44.587 31.4685 44.4219 31.4685 44.3118 31.4685C43.9815 31.4685 43.5962 31.4685 43.1558 31.4134C42.8256 31.3584 42.4953 31.3584 42.165 31.2483C40.2384 30.918 37.9815 30.2575 35.9448 30.3125C35.1742 30.3676 34.4035 30.5877 33.743 30.863C32.0916 31.6336 30.9356 32.9547 30.9356 32.9547C30.9356 32.9547 30.8806 32.5694 30.7705 32.0189C30.6604 31.5786 30.4953 31.0281 30.22 30.4226C30.22 30.4226 30.22 30.3676 30.165 30.3676C29.5595 29.0465 28.1833 28.2758 28.1833 28.2758C31.4311 25.7437 34.8989 25.9088 37.1008 26.8446C37.5962 27.0648 38.0366 27.285 38.3668 27.5602C40.0733 28.8263 40.8989 29.8722 43.5411 30.6428C43.5962 30.6428 43.5962 30.6428 43.6512 30.6428H43.5411C42.0549 30.6428 41.1191 30.3125 40.0182 29.8722C40.0182 29.8722 39.9632 29.8722 39.9081 29.8171C39.0274 29.4318 38.0916 28.9914 36.6604 28.6611C35.4494 28.3309 34.1833 28.0556 32.9173 28.441C32.9173 28.441 32.9173 28.441 32.8622 28.441C32.0916 28.6611 31.321 29.1566 30.5503 29.9272C30.4402 30.0373 30.3301 30.1474 30.22 30.3125V30.3676C30.4953 30.9731 30.6604 31.5786 30.7705 32.0189C30.8806 32.4593 30.8806 32.7896 30.8806 32.7896C30.8806 32.7896 31.8714 31.7437 33.3577 30.9731C34.0733 30.5877 34.954 30.3125 35.8898 30.2575C38.2017 30.2024 40.8989 31.0281 43.0457 31.2483C43.4311 31.3033 43.8164 31.3033 44.1466 31.3033C45.6879 31.2483 46.5687 30.6978 47.009 30.3125C47.0641 30.2575 47.1191 30.2575 47.1742 30.2024C47.3393 30.2024 47.3393 30.2024 47.3944 30.2024Z" fill="white" />
        <path d="M47.3397 30.2021C47.2847 30.2571 47.2847 30.2571 47.2847 30.2571C47.2297 30.3122 47.1746 30.3122 47.1196 30.3672C46.6792 30.6975 45.7985 31.303 44.2572 31.3581C43.9269 31.3581 43.5416 31.3581 43.1563 31.303C41.0095 31.0828 38.3122 30.2021 36.0003 30.3122C35.0645 30.3672 34.2388 30.6425 33.4682 31.0278C31.9819 31.7434 30.9911 32.8443 30.9911 32.8443C30.9911 32.8443 30.9911 32.5691 30.881 32.0736C30.7709 31.6333 30.6058 31.0828 30.3306 30.4223C30.3306 30.4223 30.3306 30.4223 30.3306 30.4773C30.3306 30.4773 30.3306 30.5324 30.3856 30.5324C30.6608 31.1379 30.826 31.6883 30.9361 32.1287C31.0462 32.6241 31.1012 32.9544 31.1012 32.9544C31.1012 32.9544 32.1471 31.7984 33.6884 31.0828C34.404 30.7525 35.1746 30.4773 36.0553 30.4773C38.3673 30.4223 41.0645 31.248 43.2113 31.4681C43.5966 31.5232 43.9819 31.5232 44.3122 31.5232C45.8535 31.4681 46.7342 30.9177 47.1746 30.5874L47.2297 30.5324C47.3397 30.2571 47.3948 30.2021 47.3397 30.2021C47.3948 30.2021 47.3948 30.2021 47.3397 30.2021ZM36.7709 28.7159C38.2021 29.1012 39.193 29.5415 40.0186 29.8718C39.0829 29.4314 38.1471 28.881 36.9361 28.4957C35.7251 28.1103 34.3489 27.9452 32.9728 28.4406C34.2939 28.0553 35.5599 28.3856 36.7709 28.7159Z" fill="white" />
    </g>
    <defs>
        <clipPath id="clip0">
            <rect y="4" width="72" height="63.7431" fill="white" />
        </clipPath>
    </defs>
</svg>