<svg width="95" height="77" viewBox="0 0 95 77" fill="none" xmlns="http://www.w3.org/2000/svg">
    <g clip-path="url(#clip0)">
        <path d="M9.60284 70.2517C9.60284 70.2517 20.7515 79.2422 31.321 75.1363C41.9629 71.0304 46.8133 62.0398 58.2515 58.4294C69.6897 54.819 84.6752 58.571 91.4079 47.2443C98.1405 35.9176 97.0546 3.2825 42.904 0.946367C-11.2466 -1.38977 -2.26975 63.4556 9.60284 70.2517Z" fill="#F3F4F5" />
        <path d="M49.0566 68.9775C49.0566 68.9775 51.6627 67.6324 55.3548 63.4557C59.0469 59.3498 61.5083 58.3587 64.6936 59.3498C67.8066 60.2701 69.906 69.1898 62.015 74.2869C54.1241 79.3839 45.5093 72.9418 49.0566 68.9775Z" fill="#F3F4F5" />
        <path d="M72.5843 27.7064L65.5621 15.601C65.2725 15.1054 64.7657 14.8223 64.259 14.8223H33.2744C32.6953 14.8223 32.1885 15.1054 31.9713 15.601L24.9491 27.7064C24.8043 27.9188 24.7319 28.1311 24.7319 28.4143C24.7319 28.6975 24.7319 28.9099 24.8043 29.193C31.175 29.4054 36.9665 31.5999 41.6721 35.2811C42.1789 35.4227 42.6856 35.4227 43.1924 35.4227C45.4366 35.4227 47.4636 34.4316 48.8391 32.7326C50.2146 34.4316 52.314 35.4227 54.4858 35.4227C56.73 35.4227 58.757 34.4316 60.1325 32.7326C61.508 34.4316 63.6074 35.4227 65.8516 35.4227V53.0499H62.4491V41.1569C62.4491 38.8207 60.4945 36.9093 58.1055 36.9093H54.703C52.314 36.9093 50.3594 38.8207 50.3594 41.1569V46.7494C51.5177 49.6519 52.2416 52.7667 52.3864 56.0939H67.2271C68.0958 56.0939 68.7474 55.4568 68.7474 54.6073V34.7856C71.2088 33.5821 72.8014 31.1752 72.8014 28.4851C72.8014 28.2019 72.7291 27.9188 72.5843 27.7064ZM59.2638 53.0499H53.3275V41.1569C53.3275 40.4489 53.9067 39.8826 54.6306 39.8826H58.0331C58.757 39.8826 59.3362 40.4489 59.3362 41.1569V53.0499H59.2638Z" fill="#2B486D" />
        <path d="M22.8501 32.7324V35.6349C34.8675 35.6349 44.5682 45.1918 44.5682 56.8725H47.5364C47.6088 43.6344 36.5325 32.7324 22.8501 32.7324Z" fill="#378DF4" />
        <path d="M22.8501 38.6797V41.5822C31.5374 41.5822 38.5596 48.449 38.5596 56.944H41.5277C41.5277 46.8915 33.13 38.6797 22.8501 38.6797Z" fill="#378DF4" />
        <path d="M22.8501 44.625V47.5983C28.1348 47.5983 32.4785 51.775 32.4785 56.9428H35.4466C35.4466 50.1468 29.7999 44.625 22.8501 44.625Z" fill="#378DF4" />
        <path d="M28.4968 56.9436H22.8501V51.4219C25.963 51.4219 28.4968 53.8996 28.4968 56.9436Z" fill="#378DF4" />
        <path d="M28.4968 56.9436H22.8501V51.4219C25.963 51.4219 28.4968 53.8996 28.4968 56.9436Z" fill="#378DF4" />
        <path d="M35.4466 56.943H32.4785C32.4785 51.7752 28.1348 47.5985 22.8501 47.5985V44.696C29.7999 44.6252 35.4466 50.147 35.4466 56.943Z" fill="#378DF4" />
        <path d="M41.5277 56.944H38.5596C38.5596 48.5198 31.5374 41.5822 22.8501 41.5822V38.6797C33.13 38.6797 41.5277 46.8915 41.5277 56.944Z" fill="#378DF4" />
        <path d="M47.6084 56.9433H44.6403C44.6403 45.2626 34.8671 35.7057 22.9221 35.7057V32.7324C36.5322 32.7324 47.6084 43.6344 47.6084 56.9433Z" fill="#378DF4" />
    </g>
    <defs>
        <clipPath id="clip0">
            <rect x="0.625" y="0.875" width="93.75" height="75.3226" fill="white" />
        </clipPath>
    </defs>
</svg>