<svg width="95" height="83" viewBox="0 0 95 83" fill="none" xmlns="http://www.w3.org/2000/svg">
    <path d="M85.551 34.0273C82.7959 37.3201 80.9591 42.1097 79.1224 47.4232C77.7448 51.3895 76.3673 55.6552 74.6836 59.7713C68.8673 73.9155 59.1479 86.563 31.8265 80.5012C27.6938 79.6031 24.1734 78.4806 21.0356 77.1335C20.5765 76.909 20.1173 76.7593 19.6581 76.5348C16.2907 74.9632 13.4591 73.242 11.1632 71.2962C10.9336 71.1465 10.7805 70.9969 10.551 70.7724C-7.20415 55.4307 4.27544 31.1087 4.27544 31.1087C5.34687 29.088 6.64789 27.5913 8.10197 26.3939C11.9285 23.2507 16.903 22.5024 21.954 21.9785C22.7959 21.9037 23.7142 21.754 24.5561 21.6792C27.3112 21.3798 29.9132 20.9308 32.3622 20.1076C34.2754 19.4341 36.1122 18.4612 37.6428 17.0393C46.6734 8.6575 53.7908 3.56857 72.9999 1.02411C92.2857 -1.52036 97.3367 19.8831 85.551 34.0273Z" fill="#F3F4F5" />
    <path d="M88.1543 41.6605C88.1543 41.6605 83.9451 41.0618 81.9553 50.7906C79.9655 60.5194 74.991 64.1116 82.5675 66.4316C90.1441 68.7515 95.2716 59.6214 94.2002 56.104C93.1288 52.5867 92.2104 52.7364 92.2104 48.6952C92.2104 44.654 90.9094 40.3882 88.1543 41.6605Z" fill="#F3F4F5" />
    <path d="M60.9075 21.5299V32.0071C59.7596 31.7078 58.6116 31.5581 57.4637 31.5581C49.5045 31.5581 43.0759 37.8444 43.0759 45.6275C43.0759 49.519 44.683 53.0363 47.2851 55.5808H34.6575C32.0555 55.5808 29.9892 53.4854 29.9892 51.0157V21.5299H25.3208V16.9648H56.2392C58.7647 16.89 60.9075 18.9854 60.9075 21.5299Z" fill="#2B486D" />
    <path d="M29.9897 21.5299H20.5764C20.5764 18.9854 22.6427 16.9648 25.2448 16.9648C27.9234 16.89 29.9897 18.9854 29.9897 21.5299Z" fill="#378DF4" />
    <path d="M58.0753 33.3535C51.0345 33.3535 45.2947 38.9663 45.2947 45.8513C45.2947 52.7363 51.0345 58.3491 58.0753 58.3491C65.1161 58.3491 70.8559 52.7363 70.8559 45.8513C70.8559 38.9663 65.1161 33.3535 58.0753 33.3535ZM65.5753 41.885L59.6059 48.9197V52.9609L56.6212 51.9131V48.77L50.5753 41.885V40.3882H65.5753V41.885Z" fill="#378DF4" />
    <path d="M46.5946 26.8436L45.3701 26.3946L44.7578 26.1701L44.3752 25.4217V25.3469L43.3803 22.8024C43.2272 22.4283 42.8446 22.1289 42.4619 22.1289H42.1558C41.7731 22.1289 41.467 22.2786 41.1609 22.5779C41.0844 22.6528 40.9313 22.6528 40.7782 22.5779C40.5486 22.2786 40.166 22.1289 39.7833 22.1289H39.4772C39.018 22.1289 38.7119 22.3534 38.5589 22.8024L37.564 25.3469V25.4217L37.1813 26.1701L36.5691 26.3946L35.3446 26.8436C35.115 26.9185 34.9619 27.143 34.9619 27.2927C34.9619 27.592 35.1915 27.8165 35.4976 27.8165H46.4415C46.7476 27.8165 46.9772 27.592 46.9772 27.2927C46.9772 27.0682 46.8242 26.9185 46.5946 26.8436Z" fill="white" />
    <path d="M44.8344 28.4902H37.1048C36.9517 28.4902 36.7987 28.5651 36.7222 28.6399C36.5691 28.7147 36.5691 28.8644 36.5691 29.0141C36.6456 30.3612 37.0283 31.2592 37.7171 31.5586C37.9466 31.6334 38.1762 31.7082 38.4058 31.7082C39.4773 31.7082 40.5487 30.9599 40.9313 30.6605C41.3905 31.0347 42.9977 32.0824 44.2222 31.5586C44.9109 31.2592 45.3701 30.3612 45.3701 29.0141C45.3701 28.8644 45.2936 28.7147 45.217 28.6399C45.1405 28.4902 44.9875 28.4902 44.8344 28.4902Z" fill="white" />
</svg>