<svg width="95" height="82" viewBox="0 0 95 82" fill="none" xmlns="http://www.w3.org/2000/svg">
    <g clip-path="url(#clip0)">
        <path d="M1.72601 29.9676C1.72601 29.9676 19.1535 -19.137 58.1413 10.1641C97.1292 39.4652 102.433 54.1495 84.6613 73.2121C66.8895 92.2747 -9.50195 78.3987 1.72601 29.9676Z" fill="#F3F4F5" />
        <path d="M71.0931 14.7452C71.0931 14.7452 75.3639 20.1339 77.2926 19.1235C79.2214 18.1131 84.5942 12.8591 80.1168 6.46001C75.6394 0.0609058 64.7559 -0.545324 61.725 3.09206C58.763 6.66208 71.0931 14.7452 71.0931 14.7452Z" fill="#F3F4F5" />
        <path d="M68.8185 33.1328H28.7285C27.4198 33.1328 26.3176 33.9411 25.8354 35.1536C27.0753 35.2883 28.2464 35.5577 29.3485 35.8945H68.8185C68.9563 35.8945 69.0941 36.0292 69.0941 36.164V39.5993H37.1323C38.9233 40.8791 40.5764 42.361 41.9541 44.1123H69.163V56.5737C69.163 56.7085 69.0252 56.8432 68.8874 56.8432H47.327C47.3959 57.7862 47.4648 58.6619 47.4648 59.6049H68.8185C70.4717 59.6049 71.8494 58.2577 71.8494 56.5737V36.164C71.9183 34.48 70.5406 33.1328 68.8185 33.1328Z" fill="#2B486D" />
        <path d="M66.5464 49.9062H56.2139V53.2068H66.5464V49.9062Z" fill="#2B486D" />
        <path d="M20.2566 38.252V41.0137C31.6912 41.0137 40.9215 50.1071 40.9215 61.2214H43.7458C43.7458 48.6252 33.2066 38.252 20.2566 38.252Z" fill="#378DF4" />
        <path d="M20.2566 43.9102V46.6719C28.5226 46.6719 35.2042 53.2057 35.2042 61.2888H38.0284C38.0284 51.7238 30.038 43.9102 20.2566 43.9102Z" fill="#378DF4" />
        <path d="M20.2566 49.5684V52.3301C25.2851 52.3301 29.4181 56.3043 29.4181 61.2215H32.2423C32.2423 54.8224 26.8694 49.5684 20.2566 49.5684Z" fill="#378DF4" />
        <path d="M25.6295 61.2892H20.2566V56.0352C23.2186 56.0352 25.6295 58.3927 25.6295 61.2892Z" fill="#378DF4" />
        <path d="M25.6295 61.2892H20.2566V56.0352C23.2186 56.0352 25.6295 58.3927 25.6295 61.2892Z" fill="#378DF4" />
        <path d="M32.2423 61.2885H29.4181C29.4181 56.3713 25.3539 52.3971 20.2566 52.3971V49.6354C26.8694 49.568 32.2423 54.8221 32.2423 61.2885Z" fill="#378DF4" />
        <path d="M38.0284 61.2888H35.2042C35.2042 53.2731 28.5226 46.6719 20.2566 46.6719V43.9102C30.038 43.9102 38.0284 51.7238 38.0284 61.2888Z" fill="#378DF4" />
        <path d="M43.7458 61.2881H40.9215C40.9215 50.1739 31.6223 41.0804 20.2566 41.0804V38.3187C33.2066 38.2513 43.7458 48.6246 43.7458 61.2881Z" fill="#378DF4" />
        <path d="M78.3257 23.4326V44.1118C78.3257 45.5937 77.0858 46.8062 75.5703 46.8062H73.5727V32.9976C73.5727 31.6504 72.4706 30.5053 71.0929 30.5053C71.0929 30.5053 33.0005 30.5053 32.9316 30.5053V23.0285C32.9316 21.7487 33.9649 20.7383 35.2737 20.7383H75.6392C77.0858 20.7383 78.3257 21.9507 78.3257 23.4326Z" fill="#2B486D" />
    </g>
    <defs>
        <clipPath id="clip0">
            <rect x="0.625" y="0.800781" width="93.75" height="80.696" fill="white" />
        </clipPath>
    </defs>
</svg>