<svg width="95" height="83" viewBox="0 0 95 83" fill="none" xmlns="http://www.w3.org/2000/svg">
    <path d="M35.5096 1.36119C35.5096 1.36119 11.7854 5.35622 4.68962 20.7056C-2.40614 36.0549 -1.6894 47.9699 18.8811 57.7823C39.4517 67.5947 44.1105 69.1366 52.138 73.4821C60.1655 77.8276 89.6954 78.5985 93.6374 53.7172C97.5795 28.976 85.7533 -3.82535 35.5096 1.36119Z" fill="#F3F4F5" />
    <path d="M38.8785 72.781C38.8785 72.781 30.1342 65.8423 24.6153 67.8749C19.0964 69.9074 21.6766 77.7573 28.9157 80.6309C36.1549 83.5046 44.1107 81.5421 44.254 78.5283C44.3974 75.5145 38.8785 72.781 38.8785 72.781Z" fill="#F3F4F5" />
    <path d="M39.9558 27.9961C35.942 27.9961 32.645 31.2202 32.645 35.1451V38.8598H47.1949V35.1451C47.1949 31.1501 43.9696 27.9961 39.9558 27.9961Z" fill="#378DF4" />
    <path d="M39.954 27.0846C41.9728 27.0846 43.6094 25.4842 43.6094 23.5101C43.6094 21.5359 41.9728 19.9355 39.954 19.9355C37.9352 19.9355 36.2986 21.5359 36.2986 23.5101C36.2986 25.4842 37.9352 27.0846 39.954 27.0846Z" fill="#378DF4" />
    <path d="M68.6954 27.715L65.1117 27.1543L64.8967 28.2757L67.1186 28.6262L63.6065 31.1493H57.8726C57.8009 31.1493 57.6576 31.1493 57.5859 31.2194L50.4185 35.2845L50.9919 36.2658L58.0159 32.2707H63.8216C63.9649 32.2707 64.1083 32.2007 64.1799 32.1306L67.7636 29.5373L67.4053 31.5699L68.5521 31.7801L69.1255 28.2757C69.1971 28.0654 68.9821 27.7851 68.6954 27.715Z" fill="#2B486D" />
    <path d="M40.4546 44.957H32.9288C32.4271 44.957 31.9971 45.3776 31.9971 45.8682V53.2275C31.9971 53.7181 32.4271 54.1386 32.9288 54.1386H40.4546C40.9564 54.1386 41.3864 53.7181 41.3864 53.2275V45.8682C41.3864 45.3776 40.9564 44.957 40.4546 44.957Z" fill="#2B486D" />
    <path d="M54.5018 42.2227H46.976C46.4742 42.2227 46.0442 42.6432 46.0442 43.1338V53.2265C46.0442 53.7171 46.4742 54.1377 46.976 54.1377H54.5018C55.0035 54.1377 55.4335 53.7171 55.4335 53.2265V43.1338C55.4335 42.6432 55.0035 42.2227 54.5018 42.2227Z" fill="#2B486D" />
    <path d="M68.5536 38.5078H61.0995C60.5978 38.5078 60.1677 38.9283 60.1677 39.419V53.1563C60.1677 53.6469 60.5978 54.0674 61.0995 54.0674H68.6253C69.127 54.0674 69.5571 53.6469 69.5571 53.1563V39.4891C69.4854 38.9283 69.0553 38.5078 68.5536 38.5078Z" fill="#2B486D" />
</svg>