<svg width="130" height="86" viewBox="0 0 130 86" fill="none" xmlns="http://www.w3.org/2000/svg">
    <g clip-path="url(#clip0)">
        <path d="M0 47.4091H31.3467C31.3467 47.4091 30.513 41.4065 26.7892 41.4065C23.0654 41.4065 22.2317 47.1312 19.1193 43.6852C16.0068 40.2393 14.8397 39.9614 12.8388 39.9614C10.838 39.9614 8.55921 43.9631 5.72467 43.6852C2.83455 43.4073 0 47.4091 0 47.4091Z" fill="#F0EEEE" />
        <path d="M88.927 22.6766H120.274C120.274 22.6766 119.44 16.6741 115.716 16.6741C111.992 16.6741 111.159 22.3987 108.046 18.9528C104.934 15.5069 103.767 15.229 101.766 15.229C99.765 15.229 97.4862 19.2307 94.6517 18.9528C91.8171 18.6749 88.927 22.6766 88.927 22.6766Z" fill="#F0EEEE" />
        <path d="M23.0654 85.9256C23.0654 85.9256 26.9004 62.9158 39.1834 69.5297C51.4665 76.1436 58.7473 75.1432 62.8046 58.2471C66.8619 41.351 82.4241 43.9076 87.3151 67.4733C92.1505 90.9833 104.711 74.1428 114.66 75.1432C124.609 76.1436 130 85.87 130 85.87H23.0654V85.9256Z" fill="#F0EEEE" />
        <path d="M109.825 72.6419C111.992 73.42 114.938 73.809 117.995 73.809C121.052 73.809 123.998 73.42 126.165 72.6419C128.499 71.8638 129.778 70.6966 129.778 69.4739C129.778 68.2511 128.499 67.084 126.165 66.3058C123.998 65.5277 121.052 65.1387 117.995 65.1387C114.938 65.1387 111.992 65.5277 109.825 66.3058C107.49 67.084 106.212 68.2511 106.212 69.4739C106.212 70.6966 107.49 71.8082 109.825 72.6419Z" fill="#2C4A6E" />
        <path d="M128.944 74.1982C128.777 74.1982 128.555 74.2538 128.333 74.365C127.999 74.5317 127.555 74.6985 127.11 74.8652L126.999 74.9208C124.553 75.7545 121.33 76.2547 117.995 76.2547C114.605 76.2547 111.437 75.81 108.991 74.9208C108.324 74.6985 108.102 74.5873 107.824 74.4761C107.546 74.365 107.324 74.2538 107.101 74.2538C106.657 74.2538 106.323 74.5873 106.268 74.8652C106.212 75.0319 106.212 75.1431 106.212 75.3098C106.212 76.5326 107.49 77.6997 109.825 78.4778C111.992 79.256 114.938 79.645 117.995 79.645C121.052 79.645 123.998 79.256 126.165 78.4778C128.499 77.6997 129.778 76.5326 129.778 75.3098C129.778 75.1431 129.722 74.9208 129.667 74.754C129.5 74.2538 129.166 74.1982 128.944 74.1982Z" fill="#2C4A6E" />
        <path d="M128.944 79.978C128.777 79.978 128.555 80.0336 128.333 80.1448C127.999 80.3115 127.555 80.4782 127.11 80.645L126.999 80.7006C124.553 81.5342 121.33 82.0345 117.995 82.0345C114.605 82.0345 111.437 81.5898 108.991 80.7006C108.324 80.4782 108.102 80.3671 107.824 80.2559C107.546 80.1448 107.324 80.0336 107.101 80.0336C106.657 80.0336 106.323 80.3671 106.268 80.645C106.212 80.8117 106.212 80.9229 106.212 81.0896C106.212 82.3124 107.49 83.4795 109.825 84.2576C111.992 85.0357 114.938 85.4248 117.995 85.4248C121.052 85.4248 123.998 85.0357 126.165 84.2576C128.499 83.4795 129.778 82.3124 129.778 81.0896C129.778 80.9229 129.722 80.7006 129.667 80.5338C129.5 80.0892 129.166 79.978 128.944 79.978Z" fill="#2C4A6E" />
        <path d="M84.7584 67.0843C86.926 67.8624 89.8717 68.2514 92.9286 68.2514C95.9854 68.2514 98.9311 67.8624 101.099 67.0843C103.433 66.3062 104.711 65.139 104.711 63.9162C104.711 62.6935 103.433 61.5263 101.099 60.7482C98.9311 59.9701 95.9854 59.5811 92.9286 59.5811C89.8717 59.5811 86.926 59.9701 84.7584 60.7482C82.4241 61.5263 81.1458 62.6935 81.1458 63.9162C81.1458 65.139 82.4241 66.2506 84.7584 67.0843Z" fill="#2C4A6E" />
        <path d="M103.878 68.6406C103.711 68.6406 103.489 68.6962 103.266 68.8074C102.933 68.9741 102.488 69.1408 102.044 69.3076L101.932 69.3632C99.4869 70.1968 96.2633 70.6971 92.9286 70.6971C89.5938 70.6971 86.3702 70.2524 83.9247 69.3632C83.2578 69.1408 83.0354 69.0297 82.7575 68.9185C82.4797 68.8074 82.2573 68.6962 82.035 68.6962C81.5904 68.6962 81.2569 69.0297 81.2013 69.3076C81.1458 69.4743 81.1458 69.5855 81.1458 69.7522C81.1458 70.975 82.4241 72.1421 84.7584 72.9202C86.926 73.6983 89.8717 74.0874 92.9286 74.0874C95.9854 74.0874 98.9311 73.6983 101.099 72.9202C103.433 72.1421 104.711 70.975 104.711 69.7522C104.711 69.5855 104.656 69.3632 104.6 69.1964C104.433 68.6962 104.1 68.6406 103.878 68.6406Z" fill="#2C4A6E" />
        <path d="M103.878 74.4209C103.711 74.4209 103.489 74.4765 103.266 74.5876C102.933 74.7544 102.488 74.9211 102.044 75.0879L101.932 75.1434C99.4869 75.9771 96.2633 76.4773 92.9286 76.4773C89.5382 76.4773 86.3702 76.0327 83.9247 75.1434C83.2578 74.9211 83.0354 74.81 82.7575 74.6988C82.4797 74.5876 82.2573 74.4765 82.035 74.4765C81.5904 74.4765 81.2569 74.81 81.2013 75.0879C81.1458 75.2546 81.1458 75.3657 81.1458 75.5325C81.1458 76.7552 82.4241 77.9224 84.7584 78.7005C86.926 79.4786 89.8717 79.8677 92.9286 79.8677C95.9854 79.8677 98.9311 79.4786 101.099 78.7005C103.433 77.9224 104.711 76.7552 104.711 75.5325C104.711 75.3657 104.656 75.1434 104.6 74.9767C104.433 74.5321 104.1 74.4209 103.878 74.4209Z" fill="#2C4A6E" />
        <path d="M103.878 80.312C103.711 80.312 103.489 80.3676 103.266 80.4788C102.933 80.6455 102.488 80.8122 102.044 80.979L101.932 81.0345C99.4869 81.8682 96.2633 82.3684 92.9286 82.3684C89.5938 82.3684 86.3702 81.9238 83.9247 81.0345C83.2578 80.8122 83.0354 80.7011 82.7575 80.5899C82.4797 80.4787 82.2573 80.3676 82.035 80.3676C81.5904 80.3676 81.2569 80.7011 81.2013 80.979C81.1458 81.1457 81.1458 81.2569 81.1458 81.4236C81.1458 82.6463 82.4241 83.8135 84.7584 84.5916C86.926 85.3697 89.8717 85.7588 92.9286 85.7588C95.9854 85.7588 98.9311 85.3697 101.099 84.5916C103.433 83.8135 104.711 82.6463 104.711 81.4236C104.711 81.2569 104.656 81.0345 104.6 80.8678C104.433 80.4232 104.1 80.312 103.878 80.312Z" fill="#2C4A6E" />
        <path d="M78.5891 19.4527V15.1731C78.5891 14.7285 78.2556 14.395 77.811 14.395H57.8024C57.3578 14.395 57.0243 14.7285 57.0243 15.1731V18.6746C57.0243 19.1193 56.6908 19.4527 56.2462 19.4527H42.9628C42.5181 19.4527 42.1846 19.7862 42.1846 20.2308V82.3129H30.6797C30.2351 82.3129 29.9016 82.6464 29.9016 83.091V85.0919C29.9016 85.5365 30.2351 85.87 30.6797 85.87H90.094C90.5386 85.87 90.8721 85.5365 90.8721 85.0919V83.091C90.8721 82.6464 90.5386 82.3129 90.094 82.3129H78.5335V23.5656V19.4527H78.5891ZM50.3548 63.7494C50.3548 64.1941 50.0213 64.5276 49.5767 64.5276H47.2979C46.8533 64.5276 46.5198 64.1941 46.5198 63.7494V61.3595C46.5198 60.9149 46.8533 60.5814 47.2979 60.5814H49.5767C50.0213 60.5814 50.3548 60.9149 50.3548 61.3595V63.7494ZM50.3548 56.802C50.3548 57.2467 50.0213 57.5801 49.5767 57.5801H47.2979C46.8533 57.5801 46.5198 57.2467 46.5198 56.802V54.4121C46.5198 53.9675 46.8533 53.634 47.2979 53.634H49.5767C50.0213 53.634 50.3548 53.9675 50.3548 54.4121V56.802ZM50.3548 49.799C50.3548 50.2437 50.0213 50.5771 49.5767 50.5771H47.2979C46.8533 50.5771 46.5198 50.2437 46.5198 49.799V47.4091C46.5198 46.9645 46.8533 46.631 47.2979 46.631H49.5767C50.0213 46.631 50.3548 46.9645 50.3548 47.4091V49.799ZM50.3548 42.8516C50.3548 43.2963 50.0213 43.6297 49.5767 43.6297H47.2979C46.8533 43.6297 46.5198 43.2963 46.5198 42.8516V40.4617C46.5198 40.0171 46.8533 39.6836 47.2979 39.6836H49.5767C50.0213 39.6836 50.3548 40.0171 50.3548 40.4617V42.8516ZM50.3548 35.8486C50.3548 36.2933 50.0213 36.6267 49.5767 36.6267H47.2979C46.8533 36.6267 46.5198 36.2933 46.5198 35.8486V33.4587C46.5198 33.0141 46.8533 32.6806 47.2979 32.6806H49.5767C50.0213 32.6806 50.3548 33.0141 50.3548 33.4587V35.8486ZM50.3548 28.9012C50.3548 29.3459 50.0213 29.6793 49.5767 29.6793H47.2979C46.8533 29.6793 46.5198 29.3459 46.5198 28.9012V26.5113C46.5198 26.0667 46.8533 25.7332 47.2979 25.7332H49.5767C50.0213 25.7332 50.3548 26.0667 50.3548 26.5113V28.9012ZM68.1958 82.3129H52.6335V73.6426C52.6335 73.1979 52.967 72.8645 53.4117 72.8645H67.4176C67.8623 72.8645 68.1958 73.1979 68.1958 73.6426V82.3129ZM74.2539 63.7494C74.2539 64.1941 73.9204 64.5276 73.4758 64.5276H54.4677C54.023 64.5276 53.6896 64.1941 53.6896 63.7494V61.3595C53.6896 60.9149 54.023 60.5814 54.4677 60.5814H73.4758C73.9204 60.5814 74.2539 60.9149 74.2539 61.3595V63.7494ZM74.2539 56.802C74.2539 57.2467 73.9204 57.5801 73.4758 57.5801H54.4677C54.023 57.5801 53.6896 57.2467 53.6896 56.802V54.4121C53.6896 53.9675 54.023 53.634 54.4677 53.634H73.4758C73.9204 53.634 74.2539 53.9675 74.2539 54.4121V56.802ZM74.2539 49.799C74.2539 50.2437 73.9204 50.5771 73.4758 50.5771H54.4677C54.023 50.5771 53.6896 50.2437 53.6896 49.799V47.4091C53.6896 46.9645 54.023 46.631 54.4677 46.631H73.4758C73.9204 46.631 74.2539 46.9645 74.2539 47.4091V49.799ZM74.2539 42.8516C74.2539 43.2963 73.9204 43.6297 73.4758 43.6297H54.4677C54.023 43.6297 53.6896 43.2963 53.6896 42.8516V40.4617C53.6896 40.0171 54.023 39.6836 54.4677 39.6836H73.4758C73.9204 39.6836 74.2539 40.0171 74.2539 40.4617V42.8516ZM74.2539 35.8486C74.2539 36.2933 73.9204 36.6267 73.4758 36.6267H54.4677C54.023 36.6267 53.6896 36.2933 53.6896 35.8486V33.4587C53.6896 33.0141 54.023 32.6806 54.4677 32.6806H73.4758C73.9204 32.6806 74.2539 33.0141 74.2539 33.4587V35.8486ZM74.2539 28.9012C74.2539 29.3459 73.9204 29.6793 73.4758 29.6793H54.4677C54.023 29.6793 53.6896 29.3459 53.6896 28.9012V26.5113C53.6896 26.0667 54.023 25.7332 54.4677 25.7332H73.4758C73.9204 25.7332 74.2539 26.0667 74.2539 26.5113V28.9012Z" fill="#2C4A6E" />
        <path d="M29.9017 21.3425C35.7953 21.3425 40.5729 16.5648 40.5729 10.6712C40.5729 4.77767 35.7953 0 29.9017 0C24.0081 0 19.2305 4.77767 19.2305 10.6712C19.2305 16.5648 24.0081 21.3425 29.9017 21.3425Z" fill="#A3D391" />
    </g>
    <defs>
        <clipPath id="clip0">
            <rect width="130" height="85.9256" fill="white" />
        </clipPath>
    </defs>
</svg>