<svg width="130" height="84" viewBox="0 0 130 84" fill="none" xmlns="http://www.w3.org/2000/svg">
    <g clip-path="url(#clip0)">
        <path d="M0 44.7967H31.3467C31.3467 44.7967 30.513 38.7942 26.7892 38.7942C23.0654 38.7942 22.2317 44.5189 19.1193 41.0729C16.0068 37.627 14.8397 37.3491 12.8388 37.3491C10.838 37.3491 8.55921 41.3508 5.72467 41.0729C2.83455 40.795 0 44.7967 0 44.7967Z" fill="#F0EEEE" />
        <path d="M88.927 20.0638H120.274C120.274 20.0638 119.44 14.0613 115.716 14.0613C111.992 14.0613 111.159 19.7859 108.046 16.34C104.934 12.8941 103.767 12.6162 101.766 12.6162C99.765 12.6162 97.4862 16.6179 94.6517 16.34C91.8171 16.0621 88.927 20.0638 88.927 20.0638Z" fill="#F0EEEE" />
        <path d="M23.0654 83.3133C23.0654 83.3133 26.9004 60.3035 39.1834 66.9174C51.4665 73.5313 58.7473 72.5309 62.8046 55.6348C66.8619 38.7387 82.4241 41.2953 87.3151 64.861C92.1505 88.371 104.711 71.5305 114.66 72.5309C124.609 73.5313 130 83.2577 130 83.2577H23.0654V83.3133Z" fill="#F0EEEE" />
        <path d="M108.991 29.7348C108.991 26.5112 106.323 23.8989 103.155 23.8989H96.5413H92.2061C93.6511 25.5663 94.5404 27.7339 94.5404 30.1238L94.6516 50.0768C94.6516 52.9669 92.6507 55.3568 89.9829 55.9126V71.3081C89.9829 72.9199 91.3168 74.2538 92.9286 74.2538C94.5404 74.2538 95.8743 72.9199 95.8743 71.3081V47.6313H97.1526V71.3636C97.1526 72.9754 98.4866 74.3094 100.098 74.3094C101.71 74.3094 103.044 72.9754 103.044 71.3636C103.044 32.0691 102.988 54.6343 102.988 29.7348C102.988 29.4569 103.211 29.2345 103.489 29.2345C103.767 29.2345 103.989 29.4569 103.989 29.7348V29.7903L104.1 47.9648C104.1 49.2987 105.212 50.4103 106.546 50.4103C107.935 50.4103 108.991 49.2987 108.991 47.9092V29.7348Z" fill="#2C4A6E" />
        <path d="M96.5413 22.2871C99.3758 22.2871 101.655 20.0084 101.655 17.1738C101.655 14.3393 99.3758 12.0605 96.5413 12.0605C93.7067 12.0605 91.428 14.3393 91.428 17.1738C91.3724 20.0084 93.7067 22.2871 96.5413 22.2871Z" fill="#2C4A6E" />
        <path d="M91.3724 50.1327L91.2612 30.1797C91.2612 26.6782 88.3711 23.7881 84.8141 23.7881C84.2583 23.7881 70.4746 23.7881 70.1411 23.7881C71.7529 25.5666 72.7533 27.9565 72.8089 30.5688L72.9201 52.0779C72.9201 54.19 71.8641 56.0241 70.3079 57.1357V75.9215C70.3079 77.7 71.7529 79.2006 73.587 79.2006C75.3656 79.2006 76.8662 77.7556 76.8662 75.9215V49.7992H78.2557V75.8659C78.2557 77.6444 79.7008 79.1451 81.5349 79.1451C83.369 79.1451 84.8141 77.7 84.8141 75.8659C84.8141 32.7364 84.7585 57.4691 84.7585 30.1797C84.7585 29.8462 85.0364 29.6239 85.3143 29.6239C85.6477 29.6239 85.8701 29.9018 85.8701 30.1797L85.9812 50.1327C85.9812 51.6333 87.204 52.8561 88.7046 52.8561C90.2052 52.8561 91.3724 51.6333 91.3724 50.1327Z" fill="#2C4A6E" />
        <path d="M62.6935 23.6211C61.0817 23.6211 48.632 23.6211 46.9646 23.6211C43.1852 23.6211 40.0727 26.7335 40.0172 30.5129L39.906 52.0221C39.906 53.5783 41.1287 54.9122 42.7405 54.9678H42.7961C44.4079 54.9678 45.7418 53.6895 45.7418 52.0777L45.9086 30.5685C45.9086 30.235 46.1865 30.0127 46.4644 30.0127C46.7978 30.0127 47.0202 30.2906 47.0202 30.5685V79.8118C47.0202 81.757 48.5764 83.3133 50.5217 83.3133C52.4669 83.3133 54.0231 81.757 54.0231 79.8118V51.6886H55.5238V79.7562C55.5238 81.7015 57.08 83.2577 59.0253 83.2577C60.9706 83.2577 62.5268 81.7015 62.5268 79.7562C62.5268 67.1953 62.4712 43.6852 62.4712 30.5129C62.4712 30.1795 62.7491 29.9016 63.0826 29.9016C63.416 29.9016 63.6939 30.1795 63.6939 30.5129L63.8051 52.0221C63.8051 53.6339 65.139 54.9122 66.7508 54.9122C68.3626 54.9122 69.6965 53.5783 69.6409 51.9665V30.5685C69.6409 26.7891 66.5285 23.6211 62.6935 23.6211Z" fill="#2C4A6E" />
        <path d="M54.8567 21.7315C58.1915 21.7315 60.9149 19.0081 60.9149 15.6734C60.9149 12.3386 58.1915 9.61523 54.8567 9.61523C51.522 9.61523 48.7986 12.283 48.7986 15.6734C48.7986 19.0081 51.522 21.7315 54.8567 21.7315Z" fill="#2C4A6E" />
        <path d="M77.5889 21.9541C80.7013 21.9541 83.2024 19.453 83.2024 16.3406C83.2024 13.2281 80.7013 10.7271 77.5889 10.7271C74.4764 10.7271 71.9753 13.2281 71.9753 16.3406C71.9753 19.453 74.4764 21.9541 77.5889 21.9541Z" fill="#2C4A6E" />
        <path d="M29.2347 21.3425C35.1283 21.3425 39.9059 16.5648 39.9059 10.6712C39.9059 4.77767 35.1283 0 29.2347 0C23.3411 0 18.5635 4.77767 18.5635 10.6712C18.5635 16.5648 23.3411 21.3425 29.2347 21.3425Z" fill="#A3D391" />
    </g>
    <defs>
        <clipPath id="clip0">
            <rect width="130" height="83.3134" fill="white" />
        </clipPath>
    </defs>
</svg>