<svg width="135" height="40" viewBox="0 0 135 40" fill="none" xmlns="http://www.w3.org/2000/svg">
    <path d="M130 0H5C2.23858 0 0 2.23858 0 5V35C0 37.7614 2.23858 40 5 40H130C132.761 40 135 37.7614 135 35V5C135 2.23858 132.761 0 130 0Z" fill="black"/>
    <path d="M130 0.8C131.114 0.8 132.182 1.2425 132.97 2.03015C133.758 2.8178 134.2 3.88609 134.2 5V35C134.2 36.1139 133.758 37.1822 132.97 37.9698C132.182 38.7575 131.114 39.2 130 39.2H5C3.88609 39.2 2.8178 38.7575 2.03015 37.9698C1.2425 37.1822 0.8 36.1139 0.8 35V5C0.8 3.88609 1.2425 2.8178 2.03015 2.03015C2.8178 1.2425 3.88609 0.8 5 0.8H130ZM130 0H5C3.67392 0 2.40215 0.526784 1.46447 1.46447C0.526784 2.40215 0 3.67392 0 5V35C0 36.3261 0.526784 37.5979 1.46447 38.5355C2.40215 39.4732 3.67392 40 5 40H130C131.326 40 132.598 39.4732 133.536 38.5355C134.473 37.5979 135 36.3261 135 35V5C135 3.67392 134.473 2.40215 133.536 1.46447C132.598 0.526784 131.326 0 130 0Z" fill="#A6A6A6"/>
    <path d="M32.1127 19.3133C32.085 16.2424 34.6271 14.7484 34.7434 14.6788C33.3037 12.5798 31.0722 12.293 30.288 12.2701C28.4139 12.0729 26.5959 13.3916 25.6412 13.3916C24.6674 13.3916 23.1973 12.2892 21.6127 12.3216C19.5737 12.353 17.6662 13.5335 16.62 15.3667C14.461 19.1046 16.0712 24.5975 18.1398 27.6189C19.1745 29.0986 20.3836 30.7507 21.9662 30.6926C23.5145 30.6288 24.0929 29.7055 25.9613 29.7055C27.8127 29.7055 28.3558 30.6926 29.9698 30.6555C31.6315 30.6288 32.6777 29.1691 33.6762 27.676C34.872 25.98 35.3522 24.3098 35.3713 24.224C35.3322 24.2107 32.1441 22.9939 32.1127 19.3133Z" fill="white"/>
    <path d="M29.0636 10.2823C29.8964 9.24084 30.4661 7.82402 30.308 6.38623C29.1027 6.43959 27.5953 7.21994 26.7273 8.23849C25.9594 9.13603 25.2733 10.6072 25.4506 11.9906C26.8045 12.0916 28.1946 11.3075 29.0636 10.2823Z" fill="white"/>
    <path d="M54.5197 30.4802H52.3559L51.1706 26.7557H47.0507L45.9216 30.4802H43.8149L47.8968 17.8003H50.4179L54.5197 30.4802ZM50.8133 25.1931L49.7414 21.8821C49.628 21.5439 49.4155 20.7473 49.1021 19.4934H49.0639C48.9391 20.0327 48.7381 20.8293 48.4618 21.8821L47.4089 25.1931H50.8133Z" fill="white"/>
    <path d="M65.0163 25.7958C65.0163 27.3507 64.5961 28.5799 63.7557 29.4822C63.003 30.2854 62.0683 30.6865 60.9526 30.6865C59.7482 30.6865 58.8831 30.2539 58.3562 29.3888H58.3181V34.2052H56.2867V24.3465C56.2867 23.369 56.261 22.3657 56.2114 21.3366H57.9979L58.1113 22.7858H58.1494C58.8269 21.6939 59.855 21.1489 61.2346 21.1489C62.3132 21.1489 63.2136 21.5748 63.9339 22.4276C64.6561 23.2813 65.0163 24.4037 65.0163 25.7958ZM62.9468 25.8701C62.9468 24.9802 62.7467 24.2465 62.3446 23.6691C61.9054 23.0669 61.3156 22.7658 60.5762 22.7658C60.0751 22.7658 59.6196 22.9335 59.2128 23.2642C58.805 23.5976 58.5382 24.0331 58.4134 24.5724C58.3505 24.8239 58.319 25.0297 58.319 25.1917V26.7162C58.319 27.3812 58.5229 27.9424 58.9307 28.4007C59.3385 28.859 59.8683 29.0877 60.52 29.0877C61.2851 29.0877 61.8806 28.7923 62.3065 28.2035C62.7334 27.6137 62.9468 26.8362 62.9468 25.8701Z" fill="white"/>
    <path d="M75.5329 25.7958C75.5329 27.3507 75.1127 28.5799 74.2714 29.4822C73.5197 30.2854 72.5849 30.6865 71.4692 30.6865C70.2649 30.6865 69.3997 30.2539 68.8738 29.3888H68.8357V34.2052H66.8043V24.3465C66.8043 23.369 66.7785 22.3657 66.729 21.3366H68.5155L68.6289 22.7858H68.667C69.3435 21.6939 70.3716 21.1489 71.7522 21.1489C72.8298 21.1489 73.7302 21.5748 74.4525 22.4276C75.1718 23.2813 75.5329 24.4037 75.5329 25.7958ZM73.4634 25.8701C73.4634 24.9802 73.2624 24.2465 72.8603 23.6691C72.4211 23.0669 71.8332 22.7658 71.0929 22.7658C70.5907 22.7658 70.1362 22.9335 69.7284 23.2642C69.3206 23.5976 69.0548 24.0331 68.93 24.5724C68.8681 24.8239 68.8357 25.0297 68.8357 25.1917V26.7162C68.8357 27.3812 69.0396 27.9424 69.4455 28.4007C69.8533 28.8581 70.383 29.0877 71.0366 29.0877C71.8017 29.0877 72.3973 28.7923 72.8232 28.2035C73.25 27.6137 73.4634 26.8362 73.4634 25.8701Z" fill="white"/>
    <path d="M87.2907 26.9241C87.2907 28.0027 86.9162 28.8802 86.1645 29.5577C85.3384 30.298 84.1884 30.6677 82.7105 30.6677C81.3461 30.6677 80.2523 30.4047 79.4243 29.8778L79.895 28.1847C80.7868 28.724 81.7654 28.9946 82.8316 28.9946C83.5967 28.9946 84.1922 28.8212 84.62 28.4762C85.0459 28.1313 85.2583 27.6683 85.2583 27.0909C85.2583 26.5764 85.083 26.1428 84.7314 25.7912C84.3818 25.4397 83.7977 25.1128 82.9821 24.8108C80.7621 23.9828 79.653 22.7699 79.653 21.1749C79.653 20.1325 80.0417 19.2779 80.8202 18.6128C81.5958 17.9468 82.6305 17.6143 83.9244 17.6143C85.0783 17.6143 86.0368 17.8153 86.8019 18.2164L86.294 19.8724C85.5794 19.4837 84.7715 19.2893 83.8673 19.2893C83.1526 19.2893 82.5943 19.4656 82.1941 19.8162C81.8559 20.1297 81.6863 20.5117 81.6863 20.9643C81.6863 21.4655 81.8797 21.88 82.2684 22.2058C82.6067 22.5069 83.2213 22.8328 84.1131 23.1844C85.204 23.6236 86.0054 24.1372 86.5208 24.726C87.0344 25.3129 87.2907 26.0475 87.2907 26.9241Z" fill="white"/>
    <path d="M94.0067 22.8612H91.7676V27.3004C91.7676 28.4294 92.162 28.9935 92.9529 28.9935C93.3159 28.9935 93.617 28.9621 93.8552 28.8992L93.9114 30.4418C93.5112 30.5914 92.9843 30.6666 92.3316 30.6666C91.5294 30.6666 90.9024 30.4218 90.4498 29.933C89.9992 29.4432 89.7724 28.6219 89.7724 27.4681V22.8593H88.4385V21.3348H89.7724V19.6608L91.7676 19.0586V21.3348H94.0067V22.8612Z" fill="white"/>
    <path d="M104.109 25.8334C104.109 27.2388 103.707 28.3927 102.905 29.295C102.064 30.224 100.947 30.687 99.5548 30.687C98.2133 30.687 97.1452 30.2421 96.3486 29.3521C95.5521 28.4622 95.1538 27.3389 95.1538 25.9849C95.1538 24.5681 95.5635 23.4076 96.3858 22.5053C97.2062 21.602 98.3133 21.1504 99.7054 21.1504C101.047 21.1504 102.126 21.5954 102.941 22.4862C103.72 23.3504 104.109 24.4662 104.109 25.8334ZM102.002 25.8992C102.002 25.0559 101.822 24.3328 101.457 23.7296C101.031 22.9998 100.422 22.6358 99.6329 22.6358C98.8164 22.6358 98.1961 23.0007 97.7702 23.7296C97.4053 24.3337 97.2252 25.0683 97.2252 25.9373C97.2252 26.7805 97.4053 27.5037 97.7702 28.1059C98.2095 28.8357 98.8231 29.1997 99.6148 29.1997C100.39 29.1997 100.999 28.8281 101.439 28.0868C101.813 27.4723 102.002 26.7415 102.002 25.8992Z" fill="white"/>
    <path d="M110.712 23.1231C110.511 23.086 110.297 23.0669 110.072 23.0669C109.357 23.0669 108.805 23.3366 108.416 23.8768C108.078 24.3532 107.908 24.9554 107.908 25.6824V30.4798H105.877L105.897 24.216C105.897 23.1622 105.871 22.2027 105.82 21.3376H107.59L107.664 23.0869H107.72C107.935 22.4857 108.273 22.0017 108.736 21.6387C109.188 21.3119 109.677 21.1489 110.204 21.1489C110.392 21.1489 110.561 21.1623 110.712 21.1861V23.1231Z" fill="white"/>
    <path d="M119.797 25.4757C119.797 25.8397 119.774 26.1465 119.723 26.397H113.629C113.653 27.3003 113.947 27.9911 114.513 28.4675C115.027 28.8934 115.691 29.1068 116.506 29.1068C117.409 29.1068 118.232 28.963 118.972 28.6743L119.291 30.0844C118.425 30.4617 117.404 30.6494 116.225 30.6494C114.808 30.6494 113.695 30.2321 112.885 29.3984C112.077 28.5647 111.672 27.4451 111.672 26.0407C111.672 24.662 112.048 23.5139 112.802 22.5982C113.591 21.6206 114.657 21.1318 115.999 21.1318C117.316 21.1318 118.314 21.6206 118.991 22.5982C119.528 23.3747 119.797 24.3352 119.797 25.4757ZM117.86 24.9488C117.874 24.3466 117.741 23.8264 117.466 23.3871C117.114 22.8221 116.574 22.5401 115.847 22.5401C115.183 22.5401 114.643 22.8154 114.23 23.3681C113.892 23.8073 113.691 24.3342 113.629 24.9478H117.86V24.9488Z" fill="white"/>
    <path d="M50.1414 9.99908C50.1414 11.1205 49.805 11.9647 49.1333 12.5316C48.5111 13.0547 47.6269 13.3167 46.4816 13.3167C45.9138 13.3167 45.4278 13.292 45.021 13.2424V7.11493C45.5517 7.02918 46.1234 6.98535 46.7408 6.98535C47.8318 6.98535 48.654 7.2226 49.2086 7.6971C49.8298 8.23353 50.1414 9.00054 50.1414 9.99908ZM49.0885 10.0267C49.0885 9.29972 48.8961 8.74233 48.5111 8.35358C48.1262 7.96579 47.564 7.77142 46.8237 7.77142C46.5093 7.77142 46.2415 7.79238 46.0195 7.83621V12.4945C46.1424 12.5135 46.3673 12.5221 46.6941 12.5221C47.4583 12.5221 48.0481 12.3096 48.4635 11.8847C48.8789 11.4597 49.0885 10.8404 49.0885 10.0267Z" fill="white"/>
    <path d="M55.7238 10.9788C55.7238 11.6696 55.5266 12.2355 55.1321 12.6795C54.7186 13.1359 54.1707 13.3637 53.4866 13.3637C52.8273 13.3637 52.3023 13.1455 51.9107 12.7072C51.52 12.2698 51.3247 11.7182 51.3247 11.0531C51.3247 10.3576 51.5257 9.78682 51.9297 9.34377C52.3337 8.90071 52.8768 8.67871 53.5609 8.67871C54.2203 8.67871 54.75 8.8969 55.1512 9.33424C55.5323 9.75919 55.7238 10.308 55.7238 10.9788ZM54.6881 11.0112C54.6881 10.5967 54.5986 10.2413 54.4204 9.94499C54.2108 9.58674 53.9125 9.40761 53.5247 9.40761C53.1236 9.40761 52.8187 9.58674 52.6091 9.94499C52.43 10.2413 52.3414 10.6024 52.3414 11.0293C52.3414 11.4438 52.4309 11.7992 52.6091 12.0955C52.8254 12.4537 53.1265 12.6329 53.5152 12.6329C53.8963 12.6329 54.1955 12.4509 54.4108 12.0859C54.5957 11.7839 54.6881 11.4257 54.6881 11.0112Z" fill="white"/>
    <path d="M63.2093 8.77002L61.8039 13.2615H60.8892L60.3071 11.3112C60.1594 10.8243 60.0393 10.3402 59.946 9.86003H59.9279C59.8412 10.3536 59.7211 10.8367 59.5667 11.3112L58.9484 13.2615H58.0232L56.7017 8.77002H57.7278L58.2357 10.9053C58.3586 11.4102 58.4596 11.8914 58.5406 12.3469H58.5587C58.633 11.9714 58.7559 11.4931 58.9293 10.9148L59.5667 8.77097H60.3804L60.9912 10.8691C61.1389 11.3807 61.2589 11.8733 61.3513 12.3478H61.379C61.4466 11.8857 61.5486 11.3931 61.6839 10.8691L62.2289 8.77097H63.2093V8.77002Z" fill="white"/>
    <path d="M68.3857 13.2611H67.3872V10.6886C67.3872 9.89584 67.0861 9.49947 66.482 9.49947C66.1857 9.49947 65.9465 9.60809 65.7607 9.82628C65.5769 10.0445 65.4835 10.3017 65.4835 10.5961V13.2602H64.4849V10.0531C64.4849 9.65859 64.4726 9.23078 64.4487 8.76772H65.3263L65.373 9.46993H65.4006C65.5168 9.25174 65.6902 9.07166 65.918 8.92779C66.1886 8.76009 66.4915 8.67529 66.8231 8.67529C67.2424 8.67529 67.5911 8.81059 67.8683 9.08214C68.2133 9.41467 68.3857 9.91108 68.3857 10.5704V13.2611Z" fill="white"/>
    <path d="M71.1392 13.2614H70.1416V6.70898H71.1392V13.2614Z" fill="white"/>
    <path d="M77.0182 10.9788C77.0182 11.6696 76.821 12.2355 76.4266 12.6795C76.013 13.1359 75.4642 13.3637 74.7811 13.3637C74.1208 13.3637 73.5958 13.1455 73.2051 12.7072C72.8145 12.2698 72.6191 11.7182 72.6191 11.0531C72.6191 10.3576 72.8202 9.78682 73.2242 9.34377C73.6282 8.90071 74.1713 8.67871 74.8544 8.67871C75.5147 8.67871 76.0435 8.8969 76.4456 9.33424C76.8267 9.75919 77.0182 10.308 77.0182 10.9788ZM75.9816 11.0112C75.9816 10.5967 75.892 10.2413 75.7139 9.94499C75.5052 9.58674 75.206 9.40761 74.8192 9.40761C74.4171 9.40761 74.1122 9.58674 73.9035 9.94499C73.7244 10.2413 73.6358 10.6024 73.6358 11.0293C73.6358 11.4438 73.7253 11.7992 73.9035 12.0955C74.1198 12.4537 74.4209 12.6329 74.8096 12.6329C75.1908 12.6329 75.489 12.4509 75.7043 12.0859C75.8901 11.7839 75.9816 11.4257 75.9816 11.0112Z" fill="white"/>
    <path d="M81.8504 13.2617H80.9539L80.8795 12.7443H80.8519C80.5451 13.1569 80.1078 13.3637 79.5399 13.3637C79.1159 13.3637 78.7729 13.2274 78.5147 12.9568C78.2803 12.711 78.1631 12.4051 78.1631 12.0421C78.1631 11.4933 78.3918 11.075 78.852 10.7854C79.3112 10.4957 79.9572 10.3537 80.789 10.3604V10.2766C80.789 9.68487 80.4784 9.3895 79.8562 9.3895C79.4132 9.3895 79.0225 9.50098 78.6852 9.72203L78.4823 9.0665C78.8996 8.80829 79.4151 8.67871 80.023 8.67871C81.1968 8.67871 81.7857 9.29803 81.7857 10.5367V12.1908C81.7857 12.6395 81.8076 12.9968 81.8504 13.2617ZM80.8138 11.7182V11.0255C79.7123 11.0064 79.1616 11.3085 79.1616 11.9306C79.1616 12.165 79.2245 12.3403 79.3531 12.4575C79.4818 12.5747 79.6457 12.6329 79.841 12.6329C80.0601 12.6329 80.265 12.5633 80.4517 12.4251C80.6394 12.286 80.7547 12.1098 80.7976 11.8935C80.8081 11.8449 80.8138 11.7858 80.8138 11.7182Z" fill="white"/>
    <path d="M87.5245 13.2614H86.6383L86.5917 12.5402H86.564C86.281 13.089 85.7989 13.3634 85.1215 13.3634C84.5803 13.3634 84.1296 13.1509 83.7723 12.726C83.415 12.301 83.2368 11.7493 83.2368 11.0719C83.2368 10.3449 83.4302 9.75606 83.819 9.30633C84.1953 8.8871 84.6565 8.67748 85.2053 8.67748C85.8084 8.67748 86.2305 8.88043 86.4706 9.28728H86.4897V6.70898H87.4892V12.0514C87.4892 12.4887 87.5006 12.8917 87.5245 13.2614ZM86.4897 11.3673V10.6183C86.4897 10.4888 86.4802 10.384 86.4621 10.3039C86.4059 10.0638 86.2849 9.86182 86.101 9.69889C85.9152 9.53596 85.6912 9.45402 85.433 9.45402C85.0605 9.45402 84.7689 9.6017 84.5545 9.89803C84.3421 10.1944 84.2344 10.5726 84.2344 11.0347C84.2344 11.4787 84.3364 11.8389 84.5412 12.1162C84.7575 12.4115 85.0491 12.5592 85.414 12.5592C85.7417 12.5592 86.0038 12.4363 86.2029 12.1895C86.3954 11.9618 86.4897 11.6874 86.4897 11.3673Z" fill="white"/>
    <path d="M96.0651 10.9788C96.0651 11.6696 95.8679 12.2355 95.4734 12.6795C95.0599 13.1359 94.513 13.3637 93.8279 13.3637C93.1696 13.3637 92.6446 13.1455 92.252 12.7072C91.8613 12.2698 91.666 11.7182 91.666 11.0531C91.666 10.3576 91.8671 9.78682 92.2711 9.34377C92.675 8.90071 93.2181 8.67871 93.9032 8.67871C94.5616 8.67871 95.0923 8.8969 95.4925 9.33424C95.8736 9.75919 96.0651 10.308 96.0651 10.9788ZM95.0304 11.0112C95.0304 10.5967 94.9408 10.2413 94.7626 9.94499C94.5521 9.58674 94.2548 9.40761 93.8661 9.40761C93.4659 9.40761 93.161 9.58674 92.9504 9.94499C92.7713 10.2413 92.6827 10.6024 92.6827 11.0293C92.6827 11.4438 92.7722 11.7992 92.9504 12.0955C93.1667 12.4537 93.4678 12.6329 93.8565 12.6329C94.2376 12.6329 94.5378 12.4509 94.7531 12.0859C94.937 11.7839 95.0304 11.4257 95.0304 11.0112Z" fill="white"/>
    <path d="M101.434 13.2611H100.436V10.6886C100.436 9.89584 100.135 9.49947 99.5299 9.49947C99.2336 9.49947 98.9944 9.60809 98.8096 9.82628C98.6247 10.0445 98.5323 10.3017 98.5323 10.5961V13.2602H97.5328V10.0531C97.5328 9.65859 97.5214 9.23078 97.4976 8.76772H98.3741L98.4208 9.46993H98.4485C98.5657 9.25174 98.7391 9.07166 98.9658 8.92779C99.2374 8.76009 99.5394 8.67529 99.872 8.67529C100.29 8.67529 100.639 8.81059 100.916 9.08214C101.262 9.41467 101.434 9.91108 101.434 10.5704V13.2611Z" fill="white"/>
    <path d="M108.153 9.51792H107.054V11.6998C107.054 12.2544 107.249 12.5316 107.636 12.5316C107.815 12.5316 107.964 12.5164 108.081 12.485L108.107 13.2424C107.91 13.3168 107.65 13.3539 107.331 13.3539C106.937 13.3539 106.63 13.2339 106.408 12.9938C106.185 12.7536 106.074 12.3497 106.074 11.7827V9.51792H105.418V8.76996H106.074V7.94674L107.053 7.65137V8.76901H108.153V9.51792H108.153Z" fill="white"/>
    <path d="M113.44 13.2614H112.441V10.7079C112.441 9.90279 112.14 9.49975 111.537 9.49975C111.074 9.49975 110.757 9.73319 110.584 10.2001C110.554 10.2982 110.537 10.4183 110.537 10.5593V13.2605H109.54V6.70898H110.537V9.41591H110.556C110.871 8.92331 111.321 8.67748 111.905 8.67748C112.319 8.67748 112.661 8.81278 112.932 9.08433C113.271 9.42258 113.44 9.92566 113.44 10.5907V13.2614Z" fill="white"/>
    <path d="M118.893 10.8033C118.893 10.9824 118.88 11.1329 118.856 11.2558H115.861C115.875 11.6998 116.018 12.0381 116.295 12.2725C116.548 12.4821 116.875 12.5869 117.275 12.5869C117.718 12.5869 118.122 12.5164 118.486 12.3744L118.643 13.0681C118.217 13.2529 117.715 13.3453 117.135 13.3453C116.44 13.3453 115.892 13.1405 115.495 12.7308C115.097 12.3211 114.9 11.7713 114.9 11.0815C114.9 10.404 115.084 9.83997 115.454 9.39024C115.841 8.91003 116.364 8.66992 117.025 8.66992C117.671 8.66992 118.161 8.91003 118.493 9.39024C118.761 9.77137 118.893 10.243 118.893 10.8033ZM117.94 10.545C117.948 10.2487 117.882 9.99337 117.747 9.77804C117.573 9.50077 117.31 9.36166 116.952 9.36166C116.626 9.36166 116.361 9.49696 116.158 9.76851C115.992 9.98479 115.894 10.243 115.861 10.545H117.94Z" fill="white"/>
    </svg>
    