<svg width="46" height="74" viewBox="0 0 46 74" fill="none" xmlns="http://www.w3.org/2000/svg">
    <path fill-rule="evenodd" clip-rule="evenodd" d="M4 2C4 3.10457 3.10457 4 2 4C0.89543 4 0 3.10457 0 2C0 0.895431 0.89543 0 2 0C3.10457 0 4 0.895431 4 2ZM18 2C18 3.10457 17.1046 4 16 4C14.8954 4 14 3.10457 14 2C14 0.895431 14.8954 0 16 0C17.1046 0 18 0.895431 18 2ZM30 4C31.1046 4 32 3.10457 32 2C32 0.895431 31.1046 0 30 0C28.8954 0 28 0.895431 28 2C28 3.10457 28.8954 4 30 4ZM46 2C46 3.10457 45.1046 4 44 4C42.8954 4 42 3.10457 42 2C42 0.895431 42.8954 0 44 0C45.1046 0 46 0.895431 46 2ZM2 18C3.10457 18 4 17.1046 4 16C4 14.8954 3.10457 14 2 14C0.89543 14 0 14.8954 0 16C0 17.1046 0.89543 18 2 18ZM18 16C18 17.1046 17.1046 18 16 18C14.8954 18 14 17.1046 14 16C14 14.8954 14.8954 14 16 14C17.1046 14 18 14.8954 18 16ZM30 18C31.1046 18 32 17.1046 32 16C32 14.8954 31.1046 14 30 14C28.8954 14 28 14.8954 28 16C28 17.1046 28.8954 18 30 18ZM46 16C46 17.1046 45.1046 18 44 18C42.8954 18 42 17.1046 42 16C42 14.8954 42.8954 14 44 14C45.1046 14 46 14.8954 46 16ZM2 32C3.10457 32 4 31.1046 4 30C4 28.8954 3.10457 28 2 28C0.89543 28 0 28.8954 0 30C0 31.1046 0.89543 32 2 32ZM18 30C18 31.1046 17.1046 32 16 32C14.8954 32 14 31.1046 14 30C14 28.8954 14.8954 28 16 28C17.1046 28 18 28.8954 18 30ZM30 32C31.1046 32 32 31.1046 32 30C32 28.8954 31.1046 28 30 28C28.8954 28 28 28.8954 28 30C28 31.1046 28.8954 32 30 32ZM46 30C46 31.1046 45.1046 32 44 32C42.8954 32 42 31.1046 42 30C42 28.8954 42.8954 28 44 28C45.1046 28 46 28.8954 46 30ZM2 46C3.10457 46 4 45.1046 4 44C4 42.8954 3.10457 42 2 42C0.89543 42 0 42.8954 0 44C0 45.1046 0.89543 46 2 46ZM18 44C18 45.1046 17.1046 46 16 46C14.8954 46 14 45.1046 14 44C14 42.8954 14.8954 42 16 42C17.1046 42 18 42.8954 18 44ZM30 46C31.1046 46 32 45.1046 32 44C32 42.8954 31.1046 42 30 42C28.8954 42 28 42.8954 28 44C28 45.1046 28.8954 46 30 46ZM46 44C46 45.1046 45.1046 46 44 46C42.8954 46 42 45.1046 42 44C42 42.8954 42.8954 42 44 42C45.1046 42 46 42.8954 46 44ZM2 60C3.10457 60 4 59.1046 4 58C4 56.8954 3.10457 56 2 56C0.89543 56 0 56.8954 0 58C0 59.1046 0.89543 60 2 60ZM18 58C18 59.1046 17.1046 60 16 60C14.8954 60 14 59.1046 14 58C14 56.8954 14.8954 56 16 56C17.1046 56 18 56.8954 18 58ZM30 60C31.1046 60 32 59.1046 32 58C32 56.8954 31.1046 56 30 56C28.8954 56 28 56.8954 28 58C28 59.1046 28.8954 60 30 60ZM46 58C46 59.1046 45.1046 60 44 60C42.8954 60 42 59.1046 42 58C42 56.8954 42.8954 56 44 56C45.1046 56 46 56.8954 46 58ZM2 74C3.10457 74 4 73.1046 4 72C4 70.8954 3.10457 70 2 70C0.89543 70 0 70.8954 0 72C0 73.1046 0.89543 74 2 74ZM18 72C18 73.1046 17.1046 74 16 74C14.8954 74 14 73.1046 14 72C14 70.8954 14.8954 70 16 70C17.1046 70 18 70.8954 18 72ZM30 74C31.1046 74 32 73.1046 32 72C32 70.8954 31.1046 70 30 70C28.8954 70 28 70.8954 28 72C28 73.1046 28.8954 74 30 74ZM46 72C46 73.1046 45.1046 74 44 74C42.8954 74 42 73.1046 42 72C42 70.8954 42.8954 70 44 70C45.1046 70 46 70.8954 46 72Z" fill="#8F2629" />
</svg>