<svg width="96" height="96" viewBox="0 0 96 96" fill="none" xmlns="http://www.w3.org/2000/svg">
    <path d="M90.7479 -0.000293974C87.8475 -0.000294108 85.4963 2.35093 85.4963 5.25132C85.4963 8.1517 87.8475 10.5029 90.7479 10.5029C93.6483 10.5029 95.9995 8.1517 95.9995 5.25132C95.9995 2.35093 93.6483 -0.00029384 90.7479 -0.000293974Z" fill="#C53741" />
    <path d="M69.3221 -0.000293974C66.4217 -0.000294108 64.0705 2.35093 64.0705 5.25132C64.0705 8.1517 66.4217 10.5029 69.3221 10.5029C72.2225 10.5029 74.5737 8.1517 74.5737 5.25132C74.5737 2.35093 72.2225 -0.00029384 69.3221 -0.000293974Z" fill="#C53741" />
    <path d="M47.8963 -0.000293974C44.996 -0.000294108 42.6447 2.35093 42.6447 5.25132C42.6447 8.1517 44.996 10.5029 47.8963 10.5029C50.7967 10.5029 53.1479 8.1517 53.148 5.25132C53.148 2.35093 50.7967 -0.00029384 47.8963 -0.000293974Z" fill="#C53741" />
    <path d="M26.4667 -0.000293974C23.5663 -0.000294108 21.215 2.35093 21.215 5.25132C21.215 8.1517 23.5663 10.5029 26.4667 10.5029C29.367 10.5029 31.7183 8.1517 31.7183 5.25132C31.7183 2.35093 29.367 -0.00029384 26.4667 -0.000293974Z" fill="#C53741" />
    <path d="M5.25181 0.000194307C2.35142 0.000194173 0.000196163 2.35142 0.000195589 5.25181C0.000195015 8.15219 2.35142 10.5034 5.25181 10.5034C8.15219 10.5034 10.5034 8.15219 10.5034 5.25181C10.5034 2.35142 8.15219 0.000194441 5.25181 0.000194307Z" fill="#C53741" />
    <path d="M90.7479 21.4265C87.8475 21.4265 85.4963 23.7777 85.4963 26.6781C85.4963 29.5785 87.8475 31.9297 90.7479 31.9297C93.6483 31.9297 95.9995 29.5785 95.9995 26.6781C95.9995 23.7777 93.6483 21.4265 90.7479 21.4265Z" fill="#C53741" />
    <path d="M69.3221 21.4265C66.4217 21.4265 64.0705 23.7777 64.0705 26.6781C64.0705 29.5785 66.4217 31.9297 69.3221 31.9297C72.2225 31.9297 74.5737 29.5785 74.5737 26.6781C74.5737 23.7777 72.2225 21.4265 69.3221 21.4265Z" fill="#C53741" />
    <path d="M47.8963 21.4265C44.996 21.4265 42.6447 23.7777 42.6447 26.6781C42.6447 29.5785 44.996 31.9297 47.8963 31.9297C50.7967 31.9297 53.1479 29.5785 53.148 26.6781C53.148 23.7777 50.7967 21.4265 47.8963 21.4265Z" fill="#C53741" />
    <path d="M26.4667 21.4265C23.5663 21.4265 21.215 23.7777 21.215 26.6781C21.215 29.5785 23.5663 31.9297 26.4667 31.9297C29.367 31.9297 31.7183 29.5785 31.7183 26.6781C31.7183 23.7777 29.367 21.4265 26.4667 21.4265Z" fill="#C53741" />
    <path d="M90.7479 42.8527C87.8475 42.8527 85.4963 45.204 85.4963 48.1043C85.4963 51.0047 87.8475 53.356 90.7479 53.356C93.6483 53.356 95.9995 51.0047 95.9995 48.1043C95.9995 45.204 93.6483 42.8527 90.7479 42.8527Z" fill="#C53741" />
    <path d="M69.3221 42.8527C66.4217 42.8527 64.0705 45.204 64.0705 48.1043C64.0705 51.0047 66.4217 53.356 69.3221 53.356C72.2225 53.356 74.5737 51.0047 74.5737 48.1043C74.5737 45.204 72.2225 42.8527 69.3221 42.8527Z" fill="#C53741" />
    <path d="M47.8963 42.8527C44.996 42.8527 42.6447 45.204 42.6447 48.1043C42.6447 51.0047 44.996 53.356 47.8963 53.356C50.7967 53.356 53.1479 51.0047 53.148 48.1043C53.148 45.204 50.7967 42.8527 47.8963 42.8527Z" fill="#C53741" />
    <path d="M90.7479 64.2805C87.8475 64.2805 85.4963 66.6317 85.4963 69.5321C85.4963 72.4325 87.8475 74.7837 90.7479 74.7837C93.6483 74.7837 95.9995 72.4325 95.9995 69.5321C95.9995 66.6317 93.6483 64.2805 90.7479 64.2805Z" fill="#C53741" />
    <path d="M69.3221 64.28C66.4217 64.28 64.0705 66.6312 64.0705 69.5316C64.0705 72.432 66.4217 74.7832 69.3221 74.7832C72.2225 74.7832 74.5737 72.432 74.5737 69.5316C74.5737 66.6312 72.2225 64.28 69.3221 64.28Z" fill="#C53741" />
    <path d="M90.7479 85.4963C87.8475 85.4963 85.4963 87.8475 85.4963 90.7479C85.4963 93.6483 87.8475 95.9995 90.7479 95.9995C93.6483 95.9995 95.9995 93.6483 95.9995 90.7479C95.9995 87.8475 93.6483 85.4963 90.7479 85.4963Z" fill="#C53741" />
</svg>