<svg width="135" height="40" viewBox="0 0 135 40" fill="none" xmlns="http://www.w3.org/2000/svg">
    <path d="M130 0H5C2.23858 0 0 2.23858 0 5V35C0 37.7614 2.23858 40 5 40H130C132.761 40 135 37.7614 135 35V5C135 2.23858 132.761 0 130 0Z" fill="black" />
    <path d="M130 0.8C131.114 0.8 132.182 1.2425 132.97 2.03015C133.758 2.8178 134.2 3.88609 134.2 5V35C134.2 36.1139 133.758 37.1822 132.97 37.9698C132.182 38.7575 131.114 39.2 130 39.2H5C3.88609 39.2 2.8178 38.7575 2.03015 37.9698C1.2425 37.1822 0.8 36.1139 0.8 35V5C0.8 3.88609 1.2425 2.8178 2.03015 2.03015C2.8178 1.2425 3.88609 0.8 5 0.8H130ZM130 0H5C3.67392 0 2.40215 0.526784 1.46447 1.46447C0.526784 2.40215 0 3.67392 0 5V35C0 36.3261 0.526784 37.5979 1.46447 38.5355C2.40215 39.4732 3.67392 40 5 40H130C131.326 40 132.598 39.4732 133.536 38.5355C134.473 37.5979 135 36.3261 135 35V5C135 3.67392 134.473 2.40215 133.536 1.46447C132.598 0.526784 131.326 0 130 0Z" fill="#A6A6A6" />
    <path d="M68.1401 21.7496C67.3004 21.7536 66.4807 22.0062 65.7844 22.4756C65.0881 22.945 64.5465 23.6101 64.2279 24.387C63.9093 25.164 63.828 26.0179 63.9942 26.841C64.1605 27.6641 64.5668 28.4195 65.162 29.0118C65.7571 29.6042 66.5144 30.007 67.3383 30.1694C68.1622 30.3317 69.0157 30.2464 69.7911 29.9242C70.5665 29.6019 71.2291 29.0572 71.6952 28.3587C72.1613 27.6602 72.4101 26.8393 72.4101 25.9996C72.4183 25.4376 72.3132 24.8796 72.1013 24.359C71.8893 23.8383 71.5748 23.3657 71.1764 22.9691C70.7779 22.5726 70.3038 22.2603 69.7822 22.0508C69.2606 21.8412 68.7021 21.7388 68.1401 21.7496ZM68.1401 28.5796C67.6237 28.6158 67.1083 28.4957 66.6611 28.235C66.2138 27.9744 65.8553 27.5852 65.6321 27.1181C65.409 26.651 65.3315 26.1275 65.4098 25.6158C65.4881 25.1041 65.7185 24.6277 66.0711 24.2487C66.4237 23.8696 66.8821 23.6054 67.3869 23.4904C67.8916 23.3754 68.4193 23.4149 68.9013 23.6037C69.3833 23.7926 69.7973 24.122 70.0896 24.5493C70.3819 24.9766 70.5388 25.482 70.5401 25.9996C70.5562 26.3276 70.5065 26.6556 70.3938 26.9641C70.2812 27.2725 70.1079 27.5554 69.8842 27.7958C69.6606 28.0363 69.391 28.2295 69.0915 28.3641C68.7919 28.4987 68.4684 28.572 68.1401 28.5796ZM58.8301 21.7496C57.99 21.7516 57.1693 22.0025 56.4717 22.4707C55.7741 22.9389 55.2309 23.6034 54.9108 24.3801C54.5906 25.1569 54.5079 26.0111 54.673 26.8349C54.8381 27.6586 55.2437 28.415 55.8384 29.0084C56.4332 29.6017 57.1905 30.0055 58.0146 30.1687C58.8388 30.3319 59.6928 30.2471 60.4688 29.9252C61.2448 29.6032 61.908 29.0585 62.3745 28.3598C62.8411 27.6611 63.0901 26.8398 63.0901 25.9996C63.0983 25.4376 62.9932 24.8796 62.7813 24.359C62.5693 23.8383 62.2548 23.3657 61.8564 22.9691C61.4579 22.5726 60.9838 22.2603 60.4622 22.0508C59.9406 21.8412 59.3821 21.7388 58.8201 21.7496H58.8301ZM58.8301 28.5796C58.3134 28.6178 57.7972 28.4995 57.3487 28.2402C56.9002 27.9809 56.5402 27.5925 56.3155 27.1257C56.0907 26.6589 56.0118 26.1353 56.0888 25.623C56.1658 25.1106 56.3953 24.6334 56.7474 24.2533C57.0995 23.8733 57.5578 23.608 58.0628 23.4921C58.5677 23.3761 59.0959 23.4149 59.5785 23.6033C60.0611 23.7917 60.4757 24.1211 60.7686 24.5485C61.0614 24.9759 61.2187 25.4816 61.2201 25.9996C61.2362 26.3276 61.1865 26.6556 61.0738 26.9641C60.9612 27.2725 60.7879 27.5554 60.5642 27.7958C60.3406 28.0363 60.071 28.2295 59.7715 28.3641C59.4719 28.4987 59.1484 28.572 58.8201 28.5796H58.8301ZM47.7401 23.0596V24.8596H52.0601C51.9924 25.7074 51.6399 26.5074 51.0601 27.1296C50.6279 27.5699 50.1083 27.9147 49.5348 28.1421C48.9613 28.3694 48.3465 28.4742 47.7301 28.4496C46.4571 28.4496 45.2362 27.9439 44.336 27.0437C43.4358 26.1436 42.9301 24.9227 42.9301 23.6496C42.9301 22.3766 43.4358 21.1557 44.336 20.2555C45.2362 19.3553 46.4571 18.8496 47.7301 18.8496C48.9479 18.8298 50.1239 19.2937 51.0001 20.1396L52.2701 18.8696C51.6786 18.2707 50.9728 17.7965 50.1947 17.4753C49.4166 17.1541 48.5819 16.9923 47.7401 16.9996C46.8511 16.965 45.9643 17.1103 45.1327 17.4266C44.3012 17.7429 43.5421 18.2239 42.9009 18.8406C42.2596 19.4574 41.7495 20.1972 41.4011 21.0158C41.0527 21.8344 40.873 22.715 40.873 23.6046C40.873 24.4943 41.0527 25.3748 41.4011 26.1934C41.7495 27.012 42.2596 27.7519 42.9009 28.3686C43.5421 28.9854 44.3012 29.4663 45.1327 29.7827C45.9643 30.099 46.8511 30.2442 47.7401 30.2096C48.5961 30.2483 49.4504 30.1032 50.2455 29.7841C51.0407 29.465 51.7583 28.9793 52.3501 28.3596C53.3978 27.2086 53.9571 25.6954 53.9101 24.1396C53.9133 23.7606 53.8798 23.3822 53.8101 23.0096L47.7401 23.0596ZM93.0501 24.4596C92.7893 23.6924 92.3016 23.0224 91.6516 22.5385C91.0016 22.0545 90.2199 21.7795 89.4101 21.7496C88.8631 21.7486 88.3217 21.8597 87.8193 22.0762C87.317 22.2926 86.8644 22.6098 86.4895 23.0082C86.1146 23.4065 85.8254 23.8775 85.6397 24.392C85.4541 24.9065 85.3759 25.4537 85.4101 25.9996C85.398 26.5585 85.4986 27.1142 85.706 27.6333C85.9134 28.1525 86.2233 28.6245 86.6172 29.0212C87.0111 29.4179 87.4809 29.7311 87.9986 29.9422C88.5162 30.1533 89.0711 30.2578 89.6301 30.2496C90.3296 30.2534 91.0191 30.0836 91.6369 29.7555C92.2547 29.4275 92.7815 28.9513 93.1701 28.3696L91.7201 27.3696C91.5037 27.7304 91.1973 28.0288 90.831 28.2357C90.4646 28.4425 90.0508 28.5507 89.6301 28.5496C89.1969 28.5661 88.7688 28.4519 88.4014 28.2219C88.0341 27.9918 87.7444 27.6565 87.5701 27.2596L93.2601 24.9096L93.0501 24.4596ZM87.2501 25.8796C87.2298 25.5703 87.2715 25.2601 87.3726 24.9671C87.4738 24.6741 87.6323 24.4042 87.8391 24.1732C88.0458 23.9423 88.2966 23.7549 88.5766 23.6221C88.8567 23.4892 89.1605 23.4136 89.4701 23.3996C89.7927 23.3784 90.1144 23.4523 90.3953 23.6123C90.6762 23.7723 90.9039 24.0113 91.0501 24.2996L87.2501 25.8796ZM82.6301 29.9996H84.5001V17.4996H82.6301V29.9996ZM79.5701 22.6996H79.5001C79.2183 22.3845 78.873 22.1326 78.487 21.9602C78.101 21.7879 77.6829 21.6991 77.2601 21.6996C76.1673 21.7526 75.1368 22.2241 74.3821 23.0162C73.6274 23.8084 73.2064 24.8605 73.2064 25.9546C73.2064 27.0487 73.6274 28.1009 74.3821 28.8931C75.1368 29.6852 76.1673 30.1566 77.2601 30.2096C77.6839 30.2168 78.104 30.1309 78.4911 29.9581C78.8781 29.7854 79.2225 29.5299 79.5001 29.2096H79.5601V29.8196C79.5601 31.4496 78.6901 32.3196 77.2901 32.3196C76.8238 32.3087 76.3713 32.1593 75.9902 31.8904C75.6091 31.6215 75.3167 31.2453 75.1501 30.8096L73.5201 31.4896C73.8269 32.236 74.3497 32.8737 75.0214 33.3209C75.6932 33.7681 76.4832 34.0045 77.2901 33.9996C79.4801 33.9996 81.2901 32.7096 81.2901 29.5696V21.9996H79.5701V22.6996ZM77.4301 28.5796C76.7851 28.5228 76.1847 28.2264 75.7474 27.7488C75.3101 27.2712 75.0675 26.6472 75.0675 25.9996C75.0675 25.3521 75.3101 24.728 75.7474 24.2505C76.1847 23.7729 76.7851 23.4765 77.4301 23.4196C77.7499 23.436 78.0632 23.5163 78.3516 23.6557C78.6399 23.795 78.8974 23.9907 79.109 24.2311C79.3205 24.4716 79.4818 24.7519 79.5833 25.0556C79.6848 25.3593 79.7245 25.6803 79.7001 25.9996C79.7274 26.3203 79.6893 26.6432 79.5883 26.9488C79.4872 27.2544 79.3252 27.5362 79.1121 27.7774C78.8989 28.0186 78.6391 28.214 78.3483 28.3519C78.0575 28.4898 77.7417 28.5673 77.4201 28.5796H77.4301ZM101.81 17.4996H97.3401V29.9996H99.2101V25.2596H101.82C102.353 25.2979 102.888 25.226 103.392 25.0484C103.896 24.8707 104.358 24.5912 104.749 24.2271C105.14 23.8631 105.452 23.4224 105.665 22.9325C105.879 22.4426 105.989 21.914 105.989 21.3796C105.989 20.8453 105.879 20.3167 105.665 19.8268C105.452 19.3369 105.14 18.8962 104.749 18.5321C104.358 18.1681 103.896 17.8885 103.392 17.7109C102.888 17.5333 102.353 17.4613 101.82 17.4996H101.81ZM101.81 23.4996H99.2001V19.2396H101.85C102.419 19.2396 102.965 19.4656 103.367 19.8679C103.769 20.2702 103.995 20.8157 103.995 21.3846C103.995 21.9535 103.769 22.4991 103.367 22.9014C102.965 23.3036 102.419 23.5296 101.85 23.5296L101.81 23.4996ZM113.34 21.6996C112.659 21.6589 111.981 21.818 111.39 22.1574C110.798 22.4967 110.319 23.0014 110.01 23.6096L111.67 24.2996C111.834 23.998 112.082 23.7504 112.383 23.5871C112.685 23.4237 113.028 23.3517 113.37 23.3796C113.608 23.3519 113.848 23.3717 114.078 23.438C114.307 23.5042 114.521 23.6155 114.708 23.7653C114.894 23.9152 115.048 24.1007 115.162 24.3109C115.276 24.5211 115.347 24.7518 115.37 24.9896V25.1196C114.77 24.8016 114.1 24.6368 113.42 24.6396C111.63 24.6396 109.82 25.6396 109.82 27.4496C109.838 27.8356 109.933 28.214 110.099 28.5627C110.266 28.9113 110.5 29.2231 110.789 29.4794C111.078 29.7358 111.416 29.9316 111.782 30.0553C112.148 30.179 112.535 30.2281 112.92 30.1996C113.391 30.2335 113.862 30.1399 114.285 29.9287C114.707 29.7176 115.065 29.3967 115.32 28.9996H115.38V29.9996H117.18V25.1896C117.18 22.9996 115.52 21.7296 113.39 21.7296L113.34 21.6996ZM113.11 28.5496C112.5 28.5496 111.65 28.2396 111.65 27.4896C111.65 26.4896 112.71 26.1596 113.65 26.1596C114.244 26.145 114.831 26.29 115.35 26.5796C115.288 27.121 115.032 27.6216 114.629 27.9891C114.227 28.3566 113.705 28.5664 113.16 28.5796L113.11 28.5496ZM123.74 21.9996L121.6 27.4196H121.54L119.32 21.9996H117.32L120.65 29.5796L118.75 33.7896H120.7L125.82 21.9996H123.74ZM106.93 29.9996H108.8V17.4996H106.93V29.9996Z" fill="white" />
    <path d="M47.3575 10.3024C47.3745 10.6692 47.3168 11.0356 47.1878 11.3794C47.0589 11.7232 46.8615 12.0372 46.6075 12.3024C46.3239 12.597 45.9814 12.8285 45.6023 12.9818C45.2233 13.1352 44.8161 13.2069 44.4075 13.1924C43.7875 13.1875 43.1827 12.9998 42.6689 12.6527C42.1551 12.3057 41.7551 11.8147 41.5192 11.2413C41.2832 10.6679 41.2217 10.0376 41.3424 9.42946C41.463 8.82128 41.7605 8.26224 42.1975 7.82237C42.4847 7.52916 42.829 7.298 43.2091 7.14319C43.5893 6.98838 43.9971 6.91323 44.4075 6.92237C44.8302 6.92097 45.2488 7.00604 45.6375 7.17237C45.9993 7.31833 46.3215 7.54793 46.5775 7.84237L46.0475 8.37237C45.8479 8.13497 45.5958 7.94723 45.3112 7.82401C45.0266 7.70079 44.7172 7.64545 44.4075 7.66237C44.0951 7.66084 43.7857 7.7224 43.4977 7.84336C43.2097 7.96432 42.9491 8.1422 42.7315 8.36631C42.5139 8.59043 42.3439 8.85618 42.2315 9.14762C42.1191 9.43906 42.0667 9.7502 42.0775 10.0624C42.0709 10.5285 42.2026 10.9861 42.4558 11.3775C42.709 11.7689 43.0725 12.0766 43.5004 12.2616C43.9283 12.4467 44.4014 12.5009 44.86 12.4174C45.3187 12.3339 45.7423 12.1164 46.0775 11.7924C46.3852 11.4589 46.5627 11.0259 46.5775 10.5724H44.4075V9.85237H47.3175C47.3442 10.0009 47.3575 10.1515 47.3575 10.3024ZM51.9375 7.80237H49.2375V9.70237H51.6975V10.4224H49.2375V12.3224H51.9375V13.0624H48.4375V7.06237H51.9375V7.80237ZM55.2175 13.0624H54.4475V7.80237H52.7675V7.06237H56.9375V7.80237H55.2175V13.0624ZM59.8775 13.0624V7.06237H60.6475V13.0624H59.8775ZM64.0675 13.0624H63.2975V7.80237H61.6175V7.06237H65.7375V7.80237H64.0675V13.0624ZM73.5475 12.2824C72.9629 12.8637 72.1719 13.19 71.3475 13.19C70.523 13.19 69.7321 12.8637 69.1475 12.2824C68.5792 11.6809 68.2627 10.8848 68.2627 10.0574C68.2627 9.22994 68.5792 8.43385 69.1475 7.83237C69.4356 7.54212 69.7784 7.31175 70.1559 7.15454C70.5335 6.99734 70.9385 6.91641 71.3475 6.91641C71.7565 6.91641 72.1614 6.99734 72.539 7.15454C72.9166 7.31175 73.2593 7.54212 73.5475 7.83237C74.118 8.4327 74.436 9.22922 74.436 10.0574C74.436 10.8855 74.118 11.682 73.5475 12.2824ZM69.7175 11.7824C70.1504 12.2135 70.7365 12.4555 71.3475 12.4555C71.9585 12.4555 72.5445 12.2135 72.9775 11.7824C73.4047 11.3114 73.6414 10.6983 73.6414 10.0624C73.6414 9.42648 73.4047 8.81336 72.9775 8.34237C72.5445 7.91125 71.9585 7.6692 71.3475 7.6692C70.7365 7.6692 70.1504 7.91125 69.7175 8.34237C69.2902 8.81336 69.0536 9.42648 69.0536 10.0624C69.0536 10.6983 69.2902 11.3114 69.7175 11.7824ZM75.5175 13.0624V7.06237H76.4575L79.3775 11.7324V7.06237H80.1475V13.0624H79.3475L76.2975 8.17237V13.0624H75.5175Z" fill="white" />
    <path fill-rule="evenodd" clip-rule="evenodd" d="M71.3475 7.01641C70.9517 7.01641 70.5598 7.09473 70.1944 7.24686C69.8294 7.39884 69.498 7.62147 69.2193 7.90195C68.6692 8.48475 68.3627 9.25589 68.3627 10.0574C68.3627 10.8588 68.6691 11.6298 69.2191 12.2126C69.7849 12.7746 70.55 13.09 71.3475 13.09C72.145 13.09 72.9102 12.7745 73.476 12.2125C74.0282 11.6308 74.336 10.8594 74.336 10.0574C74.336 9.25524 74.0281 8.48373 73.4758 7.90208C73.1971 7.62154 72.8656 7.39886 72.5006 7.24686C72.1352 7.09473 71.7433 7.01641 71.3475 7.01641ZM70.1175 7.06223C70.5073 6.89995 70.9253 6.81641 71.3475 6.81641C71.7697 6.81641 72.1877 6.89995 72.5774 7.06223C72.9672 7.2245 73.321 7.4623 73.6184 7.76192L73.62 7.76347C74.2081 8.38239 74.536 9.20358 74.536 10.0574C74.536 10.9112 74.2081 11.7323 73.62 12.3513L73.618 12.3533C73.0147 12.9533 72.1984 13.29 71.3475 13.29C70.4966 13.29 69.6803 12.9533 69.077 12.3533L69.0747 12.3511C68.489 11.731 68.1627 10.9104 68.1627 10.0574C68.1627 9.2044 68.489 8.38374 69.0748 7.7637L69.0765 7.7619C69.3739 7.46228 69.7277 7.2245 70.1175 7.06223ZM44.4052 7.02235C44.0086 7.01351 43.6143 7.08616 43.2469 7.2358C42.8794 7.38545 42.5466 7.60891 42.2689 7.89235L42.2684 7.89286C41.8453 8.31875 41.5573 8.86005 41.4404 9.44892C41.3236 10.0378 41.3832 10.6481 41.6116 11.2032C41.8401 11.7584 42.2274 12.2338 42.7248 12.5699C43.2223 12.9059 43.8079 13.0877 44.4083 13.0924L44.411 13.0924C44.8056 13.1064 45.1988 13.0372 45.5648 12.8891C45.9308 12.7411 46.2615 12.5175 46.5353 12.2331C46.7799 11.9778 46.97 11.6754 47.0942 11.3443C47.2184 11.0132 47.274 10.6603 47.2576 10.307L47.3575 10.3024L47.2575 10.3023C47.2575 10.1852 47.2491 10.0682 47.2324 9.95237H44.5075V10.4724H46.6808L46.6774 10.5756C46.6618 11.0531 46.475 11.5091 46.151 11.8602L46.1471 11.8644C45.7977 12.2021 45.356 12.4287 44.8779 12.5157C44.3999 12.6028 43.9067 12.5463 43.4607 12.3534C43.0147 12.1605 42.6358 11.8398 42.3719 11.4319C42.1083 11.0246 41.9711 10.5484 41.9775 10.0634C41.9666 9.73858 42.0212 9.41489 42.1382 9.11164C42.2554 8.80763 42.4328 8.53043 42.6598 8.29666C42.8867 8.06288 43.1586 7.87734 43.459 7.75116C43.7584 7.62537 44.0802 7.56117 44.405 7.56236C44.7292 7.54511 45.053 7.60325 45.3509 7.73224C45.6164 7.84719 45.855 8.01561 46.0519 8.22657L46.4395 7.83891C46.2048 7.58943 45.9184 7.39353 45.6001 7.26511L45.5981 7.26433C45.222 7.10336 44.8169 7.02101 44.4078 7.02237L44.4052 7.02235ZM47.4575 10.3001C47.4747 10.6796 47.4149 11.0587 47.2815 11.4145C47.1478 11.771 46.943 12.0966 46.6797 12.3715C46.3864 12.6763 46.0319 12.9159 45.6398 13.0745C45.2482 13.233 44.8275 13.3072 44.4053 13.2924C43.7661 13.2871 43.1426 13.0934 42.6129 12.7356C42.0828 12.3775 41.6702 11.8709 41.4267 11.2793C41.1832 10.6878 41.1198 10.0375 41.2443 9.41C41.3687 8.78263 41.6756 8.20593 42.1263 7.75214C42.423 7.44927 42.7787 7.2105 43.1714 7.05058C43.5638 6.89077 43.9848 6.81311 44.4084 6.82237C44.844 6.82109 45.2753 6.90877 45.6759 7.08003C46.052 7.23191 46.3868 7.47066 46.6529 7.77676L46.7141 7.84714L46.0411 8.52018L45.9709 8.43672C45.7813 8.21119 45.5419 8.03284 45.2715 7.91578C45.0011 7.79872 44.7071 7.74615 44.4129 7.76223L44.407 7.76255C44.1081 7.76108 43.812 7.81981 43.5364 7.93556C43.2608 8.05131 43.0115 8.22151 42.8033 8.43597C42.5951 8.65043 42.4323 8.90472 42.3248 9.1836C42.2172 9.46248 42.1671 9.76021 42.1774 10.0589L42.1776 10.0638C42.1713 10.5102 42.2973 10.9484 42.5398 11.3232C42.7823 11.698 43.1304 11.9926 43.5401 12.1698C43.9499 12.3471 44.4029 12.399 44.8421 12.319C45.2804 12.2392 45.6853 12.0316 46.0059 11.7225C46.2727 11.4324 46.4357 11.0631 46.4712 10.6724H44.3075V9.75237H47.4011L47.4159 9.8347C47.4435 9.98829 47.4574 10.144 47.4575 10.3001ZM48.3375 6.96237H52.0375V7.90237H49.3375V9.60237H51.7975V10.5224H49.3375V12.2224H52.0375V13.1624H48.3375V6.96237ZM48.5375 7.16237V12.9624H51.8375V12.4224H49.1375V10.3224H51.5975V9.80237H49.1375V7.70237H51.8375V7.16237H48.5375ZM52.6675 6.96237H57.0375V7.90237H55.3175V13.1624H54.3475V7.90237H52.6675V6.96237ZM52.8675 7.16237V7.70237H54.5475V12.9624H55.1175V7.70237H56.8375V7.16237H52.8675ZM59.7775 6.96237H60.7475V13.1624H59.7775V6.96237ZM59.9775 7.16237V12.9624H60.5475V7.16237H59.9775ZM61.5175 6.96237H65.8375V7.90237H64.1675V13.1624H63.1975V7.90237H61.5175V6.96237ZM61.7175 7.16237V7.70237H63.3975V12.9624H63.9675V7.70237H65.6375V7.16237H61.7175ZM75.4175 6.96237H76.5129L79.2775 11.3838V6.96237H80.2475V13.1624H79.292L76.3975 8.52166V13.1624H75.4175V6.96237ZM75.6175 7.16237V12.9624H76.1975V7.82309L79.403 12.9624H80.0475V7.16237H79.4775V12.0809L76.4021 7.16237H75.6175ZM69.6469 8.27152C70.0986 7.82173 70.71 7.5692 71.3475 7.5692C71.9849 7.5692 72.5964 7.82173 73.048 8.27152L73.0516 8.2751C73.4956 8.76448 73.7414 9.40165 73.7414 10.0624C73.7414 10.7231 73.4955 11.3602 73.0515 11.8496L73.0481 11.8533C72.5965 12.3031 71.9849 12.5555 71.3475 12.5555C70.71 12.5555 70.0986 12.303 69.6469 11.8532L69.7175 11.7824L69.6434 11.8496C69.1995 11.3602 68.9536 10.7231 68.9536 10.0624C68.9536 9.40165 69.1995 8.76457 69.6434 8.27519L69.6469 8.27152ZM69.7898 11.7133C70.2039 12.1246 70.7638 12.3555 71.3475 12.3555C71.9312 12.3555 72.4911 12.1246 72.9051 11.7133C73.3146 11.261 73.5414 10.6726 73.5414 10.0624C73.5414 9.45217 73.3146 8.86377 72.9051 8.41143C72.4911 8.0001 71.9312 7.7692 71.3475 7.7692C70.7638 7.7692 70.2039 8.0001 69.7898 8.41143C69.3804 8.86377 69.1536 9.45217 69.1536 10.0624C69.1536 10.6726 69.3804 11.261 69.7898 11.7133Z" fill="white" />
    <path d="M10.4397 7.54022C10.1137 7.93132 9.94921 8.43201 9.97966 8.94022V31.0602C9.94921 31.5684 10.1137 32.0691 10.4397 32.4602L10.5097 32.5302L22.8997 20.1502V19.8602L10.5097 7.47021L10.4397 7.54022Z" fill="url(#paint0_linear)" />
    <path d="M26.9999 24.2802L22.8999 20.1502V19.8602L26.9999 15.7202L27.0899 15.7702L31.9999 18.5602C33.3999 19.3502 33.3999 20.6502 31.9999 21.4502L27.1099 24.2302L26.9999 24.2802Z" fill="url(#paint1_linear)" />
    <path d="M27.1199 24.22L22.8999 20L10.4399 32.46C10.7253 32.7108 11.0893 32.8541 11.4691 32.8651C11.8489 32.876 12.2206 32.754 12.5199 32.52L27.1299 24.22" fill="url(#paint2_linear)" />
    <path d="M27.1197 15.78L12.5097 7.48005C12.2103 7.24606 11.8387 7.124 11.4589 7.13496C11.0791 7.14591 10.715 7.2892 10.4297 7.54005L22.8997 20L27.1197 15.78Z" fill="url(#paint3_linear)" />
    <path opacity="0.2" d="M26.9999 24.1299L12.5099 32.3799C12.2212 32.5957 11.8704 32.7124 11.5099 32.7124C11.1495 32.7124 10.7987 32.5957 10.5099 32.3799L10.4399 32.4499L10.5099 32.5199C10.798 32.7373 11.1491 32.8549 11.5099 32.8549C11.8708 32.8549 12.2219 32.7373 12.5099 32.5199L27.1199 24.2199L26.9999 24.1299Z" fill="black" />
    <path opacity="0.12" d="M10.4397 32.32C10.1137 31.9289 9.94921 31.4282 9.97966 30.92V31.07C9.94921 31.5782 10.1137 32.0789 10.4397 32.47L10.5097 32.4L10.4397 32.32ZM31.9997 21.3L26.9997 24.13L27.0897 24.22L31.9997 21.44C32.2783 21.3091 32.5174 21.1071 32.693 20.8543C32.8686 20.6014 32.9743 20.3068 32.9997 20C32.9434 20.2787 32.824 20.5408 32.6507 20.7662C32.4773 20.9915 32.2546 21.1742 31.9997 21.3Z" fill="black" />
    <path opacity="0.25" d="M12.5097 7.61994L31.9997 18.6999C32.2547 18.8258 32.4774 19.0084 32.6508 19.2338C32.8241 19.4591 32.9435 19.7212 32.9997 19.9999C32.9744 19.6932 32.8686 19.3985 32.6931 19.1457C32.5175 18.8929 32.2783 18.6908 31.9997 18.5599L12.5097 7.47994C11.1097 6.68994 9.96973 7.34994 9.96973 8.94994V9.09994C9.99973 7.48994 11.1197 6.82994 12.5097 7.61994Z" fill="white" />
    <defs>
        <linearGradient id="paint0_linear" x1="21.7997" y1="8.71022" x2="5.01965" y2="25.4902" gradientUnits="userSpaceOnUse">
            <stop stop-color="#00A0FF" />
            <stop offset="0.01" stop-color="#00A1FF" />
            <stop offset="0.26" stop-color="#00BEFF" />
            <stop offset="0.51" stop-color="#00D2FF" />
            <stop offset="0.76" stop-color="#00DFFF" />
            <stop offset="1" stop-color="#00E3FF" />
        </linearGradient>
        <linearGradient id="paint1_linear" x1="33.8299" y1="20.0002" x2="9.63991" y2="20.0002" gradientUnits="userSpaceOnUse">
            <stop stop-color="#FFE000" />
            <stop offset="0.41" stop-color="#FFBD00" />
            <stop offset="0.78" stop-color="#FFA500" />
            <stop offset="1" stop-color="#FF9C00" />
        </linearGradient>
        <linearGradient id="paint2_linear" x1="24.8299" y1="22.3" x2="2.06995" y2="45.05" gradientUnits="userSpaceOnUse">
            <stop stop-color="#FF3A44" />
            <stop offset="1" stop-color="#C31162" />
        </linearGradient>
        <linearGradient id="paint3_linear" x1="7.29969" y1="0.180049" x2="17.4597" y2="10.34" gradientUnits="userSpaceOnUse">
            <stop stop-color="#32A071" />
            <stop offset="0.07" stop-color="#2DA771" />
            <stop offset="0.48" stop-color="#15CF74" />
            <stop offset="0.8" stop-color="#06E775" />
            <stop offset="1" stop-color="#00F076" />
        </linearGradient>
    </defs>
</svg>