<svg width="130" height="74" viewBox="0 0 130 74" fill="none" xmlns="http://www.w3.org/2000/svg">
    <path d="M0 35.2372H31.3467C31.3467 35.2372 30.513 29.2346 26.7892 29.2346C23.0654 29.2346 22.2317 34.9593 19.1193 31.5134C16.0068 28.0674 14.8397 27.7896 12.8388 27.7896C10.838 27.7896 8.55921 31.7913 5.72467 31.5134C2.83455 31.2355 0 35.2372 0 35.2372Z" fill="#F0EEEE" />
    <path d="M88.9268 10.5043H120.273C120.273 10.5043 119.44 4.5017 115.716 4.5017C111.992 4.5017 111.158 10.2264 108.046 6.78045C104.934 3.33454 103.766 3.05664 101.766 3.05664C99.7647 3.05664 97.486 7.05835 94.6514 6.78045C91.8169 6.50256 88.9268 10.5043 88.9268 10.5043Z" fill="#F0EEEE" />
    <path d="M23.0654 73.7539C23.0654 73.7539 26.9004 50.744 39.1834 57.358C51.4665 63.9719 58.7473 62.9715 62.8046 46.1309C66.8619 29.2904 82.4241 31.7915 87.3151 55.3571C92.1505 78.8671 104.711 62.0266 114.66 63.0271C124.609 64.0275 130 73.7539 130 73.7539H23.0654Z" fill="#F0EEEE" />
    <path d="M108.991 20.1752C108.991 16.9516 106.323 14.3394 103.155 14.3394H96.5413H92.2061C93.6511 16.0067 94.5404 18.1743 94.5404 20.5642L94.6516 40.5172C94.6516 43.4073 92.6507 45.7972 89.9829 46.353V61.7485C89.9829 63.3603 91.3168 64.6942 92.9286 64.6942C94.5404 64.6942 95.8743 63.3603 95.8743 61.7485V38.0161H97.1526V61.7485C97.1526 63.3603 98.4866 64.6942 100.098 64.6942C101.71 64.6942 103.044 63.3603 103.044 61.7485C103.044 22.4539 102.988 45.0191 102.988 20.1196C102.988 19.8417 103.211 19.6194 103.489 19.6194C103.767 19.6194 103.989 19.8417 103.989 20.1196V20.1752L104.1 38.3496C104.1 39.6835 105.212 40.7951 106.546 40.7951C107.935 40.7951 108.991 39.6835 108.991 38.294V20.1752Z" fill="#2C4A6E" />
    <path d="M96.541 12.6719C99.3756 12.6719 101.654 10.3932 101.654 7.55861C101.654 4.72406 99.3756 2.44531 96.541 2.44531C93.7065 2.44531 91.4277 4.72406 91.4277 7.55861C91.3722 10.3932 93.7065 12.6719 96.541 12.6719Z" fill="#2C4A6E" />
    <path d="M91.3724 40.5174L91.2613 20.5645C91.2613 17.063 88.3711 14.1729 84.8141 14.1729C84.2583 14.1729 70.4746 14.1729 70.1411 14.1729C71.7529 15.9514 72.7533 18.3413 72.8089 20.9535L72.9201 42.4627C72.9201 44.5747 71.8641 46.4088 70.3079 47.5204V66.3062C70.3079 68.0848 71.7529 69.5854 73.587 69.5854C75.3656 69.5854 76.8662 68.1404 76.8662 66.3062V40.2395H78.2557V66.3062C78.2557 68.0848 79.7008 69.5854 81.5349 69.5854C83.369 69.5854 84.8141 68.1404 84.8141 66.3062C84.8141 23.1767 84.7585 47.9095 84.7585 20.62C84.7585 20.2866 85.0364 20.0643 85.3143 20.0643C85.6477 20.0643 85.8701 20.3422 85.8701 20.62L85.9812 40.573C85.9812 42.0737 87.204 43.2964 88.7046 43.2964C90.2053 43.2408 91.3724 42.0181 91.3724 40.5174Z" fill="#2C4A6E" />
    <path d="M62.6933 14.0615C61.0815 14.0615 48.6317 14.0615 46.9643 14.0615C43.1849 14.0615 40.0725 17.174 40.0169 20.9534L39.9058 42.4626C39.9058 44.0188 41.1285 45.3527 42.7403 45.4083H42.7959C44.4077 45.4083 45.7416 44.1299 45.7416 42.5181L45.8527 21.0089C45.8527 20.6755 46.1306 20.4531 46.4085 20.4531C46.742 20.4531 46.9643 20.731 46.9643 21.0089V70.2522C46.9643 72.1975 48.5206 73.7537 50.4658 73.7537C52.4111 73.7537 53.9673 72.1975 53.9673 70.2522V42.1291H55.468V70.1966C55.468 72.1419 57.0242 73.6981 58.9695 73.6981C60.9147 73.6981 62.471 72.1419 62.471 70.1966C62.471 57.6357 62.4154 34.1257 62.4154 20.9534C62.4154 20.6199 62.6933 20.342 63.0268 20.342C63.3602 20.342 63.6381 20.6199 63.6381 20.9534L63.7493 42.4626C63.7493 44.0744 65.0832 45.3527 66.695 45.3527C68.3068 45.3527 69.6407 44.0188 69.5851 42.407L69.4739 20.8978C69.6407 17.174 66.5282 14.0615 62.6933 14.0615Z" fill="#2C4A6E" />
    <path d="M54.8565 12.1163C58.1912 12.1163 60.9146 9.3929 60.9146 6.05814C60.9146 2.72339 58.1912 0 54.8565 0C51.5217 0 48.7983 2.66781 48.7983 6.05814C48.7983 9.44848 51.5217 12.1163 54.8565 12.1163Z" fill="#2C4A6E" />
    <path d="M77.5886 12.394C80.7011 12.394 83.2021 9.89294 83.2021 6.7805C83.2021 3.66806 80.7011 1.16699 77.5886 1.16699C74.4762 1.16699 71.9751 3.66806 71.9751 6.7805C71.9751 9.83737 74.4762 12.394 77.5886 12.394Z" fill="#2C4A6E" />
</svg>