<svg width="130" height="72" viewBox="0 0 130 72" fill="none" xmlns="http://www.w3.org/2000/svg">
    <g clip-path="url(#clip0)">
        <path d="M0 33.014H31.3467C31.3467 33.014 30.513 27.0115 26.7892 27.0115C23.0654 27.0115 22.2317 32.7361 19.1193 29.2902C16.0068 25.8443 14.8397 25.5664 12.8388 25.5664C10.838 25.5664 8.55921 29.5681 5.72467 29.2902C2.83455 29.0123 0 33.014 0 33.014Z" fill="#F0EEEE" />
        <path d="M88.927 8.22595H120.274C120.274 8.22595 119.44 2.22338 115.716 2.22338C111.992 2.22338 111.159 7.94805 108.046 4.50213C104.934 1.05622 103.767 0.77832 101.766 0.77832C99.765 0.77832 97.4862 4.78003 94.6517 4.50213C91.8171 4.27982 88.927 8.22595 88.927 8.22595Z" fill="#F0EEEE" />
        <path d="M23.0654 71.5306C23.0654 71.5306 26.9004 48.5207 39.1834 55.1347C51.4665 61.7486 58.7473 60.7482 62.8046 43.8521C66.8619 26.956 82.4241 29.5126 87.3151 53.0782C92.1505 76.5883 104.711 59.7478 114.66 60.7482C124.609 61.7486 130 71.475 130 71.475H23.0654V71.5306Z" fill="#F0EEEE" />
        <path d="M109.825 58.2473C111.992 59.0255 114.938 59.4145 117.995 59.4145C121.052 59.4145 123.998 59.0255 126.165 58.2473C128.499 57.4692 129.778 56.3021 129.778 55.0793C129.778 53.8566 128.499 52.6894 126.165 51.9113C123.998 51.1332 121.052 50.7441 117.995 50.7441C114.938 50.7441 111.992 51.1332 109.825 51.9113C107.49 52.6894 106.212 53.8566 106.212 55.0793C106.212 56.3021 107.49 57.4137 109.825 58.2473Z" fill="#2C4A6E" />
        <path d="M128.944 59.748C128.777 59.748 128.555 59.8036 128.333 59.9148C127.999 60.0815 127.555 60.2483 127.11 60.415L126.999 60.4706C124.553 61.3043 121.33 61.8045 117.995 61.8045C114.605 61.8045 111.437 61.3598 108.991 60.4706C108.324 60.2483 108.102 60.1371 107.824 60.0259C107.546 59.9148 107.324 59.8036 107.101 59.8036C106.657 59.8036 106.323 60.1371 106.268 60.415C106.212 60.5817 106.212 60.6929 106.212 60.8596C106.212 62.0824 107.49 63.2495 109.825 64.0277C111.992 64.8058 114.938 65.1948 117.995 65.1948C121.052 65.1948 123.998 64.8058 126.165 64.0277C128.499 63.2495 129.778 62.0824 129.778 60.8596C129.778 60.6929 129.722 60.4706 129.667 60.3038C129.5 59.8592 129.166 59.748 128.944 59.748Z" fill="#2C4A6E" />
        <path d="M128.944 65.5835C128.777 65.5835 128.555 65.6391 128.333 65.7502C127.999 65.917 127.555 66.0837 127.11 66.2504L126.999 66.306C124.553 67.1397 121.33 67.6399 117.995 67.6399C114.605 67.6399 111.437 67.1953 108.991 66.306C108.324 66.0837 108.102 65.9726 107.824 65.8614C107.546 65.7502 107.324 65.6391 107.101 65.6391C106.657 65.6391 106.323 65.9725 106.268 66.2504C106.212 66.4172 106.212 66.5283 106.212 66.6951C106.212 67.9178 107.49 69.085 109.825 69.8631C111.992 70.6412 114.938 71.0303 117.995 71.0303C121.052 71.0303 123.998 70.6412 126.165 69.8631C128.499 69.085 129.778 67.9178 129.778 66.6951C129.778 66.5283 129.722 66.306 129.667 66.1393C129.5 65.6391 129.166 65.5835 128.944 65.5835Z" fill="#2C4A6E" />
        <path d="M84.7584 52.6892C86.926 53.4674 89.8717 53.8564 92.9286 53.8564C95.9854 53.8564 98.9311 53.4674 101.099 52.6892C103.433 51.9111 104.711 50.744 104.711 49.5212C104.711 48.2985 103.433 47.1313 101.099 46.3532C98.9311 45.5751 95.9854 45.186 92.9286 45.186C89.8717 45.186 86.926 45.5751 84.7584 46.3532C82.4241 47.1313 81.1458 48.2985 81.1458 49.5212C81.1458 50.744 82.4241 51.8556 84.7584 52.6892Z" fill="#2C4A6E" />
        <path d="M103.878 54.2451C103.711 54.2451 103.489 54.3007 103.266 54.4119C102.933 54.5786 102.488 54.7453 102.044 54.9121L101.932 54.9677C99.4869 55.8013 96.2633 56.3016 92.9286 56.3016C89.5938 56.3016 86.3702 55.8569 83.9247 54.9677C83.2578 54.7453 83.0354 54.6342 82.7575 54.523C82.4797 54.4119 82.2573 54.3007 82.035 54.3007C81.5904 54.3007 81.2569 54.6342 81.2013 54.9121C81.1458 55.0788 81.1458 55.19 81.1458 55.3567C81.1458 56.5794 82.4241 57.7466 84.7584 58.5247C86.926 59.3028 89.8717 59.6919 92.9286 59.6919C95.9854 59.6919 98.9311 59.3028 101.099 58.5247C103.433 57.7466 104.711 56.5794 104.711 55.3567C104.711 55.19 104.656 54.9676 104.6 54.8009C104.433 54.3007 104.1 54.2451 103.878 54.2451Z" fill="#2C4A6E" />
        <path d="M103.878 60.0259C103.711 60.0259 103.489 60.0815 103.266 60.1926C102.933 60.3594 102.488 60.5261 102.044 60.6928L101.932 60.7484C99.4869 61.5821 96.2633 62.0823 92.9286 62.0823C89.5382 62.0823 86.3702 61.6377 83.9247 60.7484C83.2578 60.5261 83.0354 60.4149 82.7575 60.3038C82.4797 60.1926 82.2573 60.0815 82.035 60.0815C81.5904 60.0815 81.2569 60.4149 81.2013 60.6928C81.1458 60.8596 81.1458 60.9707 81.1458 61.1375C81.1458 62.3602 82.4241 63.5274 84.7584 64.3055C86.926 65.0836 89.8717 65.4727 92.9286 65.4727C95.9854 65.4727 98.9311 65.0836 101.099 64.3055C103.433 63.5274 104.711 62.3602 104.711 61.1375C104.711 60.9707 104.656 60.7484 104.6 60.5817C104.433 60.0815 104.1 60.0259 103.878 60.0259Z" fill="#2C4A6E" />
        <path d="M103.878 65.917C103.711 65.917 103.489 65.9726 103.266 66.0837C102.933 66.2505 102.488 66.4172 102.044 66.5839L101.932 66.6395C99.4869 67.4732 96.2633 67.9734 92.9286 67.9734C89.5938 67.9734 86.3702 67.5288 83.9247 66.6395C83.2578 66.4172 83.0354 66.306 82.7575 66.1949C82.4797 66.0837 82.2573 65.9726 82.035 65.9726C81.5904 65.9726 81.2569 66.306 81.2013 66.5839C81.1458 66.7507 81.1458 66.8618 81.1458 67.0286C81.1458 68.2513 82.4241 69.4185 84.7584 70.1966C86.926 70.9747 89.8717 71.3638 92.9286 71.3638C95.9854 71.3638 98.9311 70.9747 101.099 70.1966C103.433 69.4185 104.711 68.2513 104.711 67.0286C104.711 66.8618 104.656 66.6395 104.6 66.4728C104.433 65.9726 104.1 65.917 103.878 65.917Z" fill="#2C4A6E" />
        <path d="M78.5891 5.00214V0.77811C78.5891 0.333476 78.2556 0 77.811 0H57.8024C57.3578 0 57.0243 0.333476 57.0243 0.77811V4.27961C57.0243 4.72424 56.6908 5.05772 56.2462 5.05772H42.9628C42.5737 5.00214 42.2402 5.39119 42.2402 5.78025V67.8623H30.6797C30.2351 67.8623 29.9016 68.1958 29.9016 68.6405V70.6413C29.9016 71.0859 30.2351 71.4194 30.6797 71.4194H90.094C90.5386 71.4194 90.8721 71.0859 90.8721 70.6413V68.6405C90.8721 68.1958 90.5386 67.8623 90.094 67.8623H78.5335V9.17059V5.00214H78.5891ZM50.3548 49.3544C50.3548 49.7991 50.0213 50.1325 49.5767 50.1325H47.2979C46.8533 50.1325 46.5198 49.7991 46.5198 49.3544V46.9645C46.5198 46.5199 46.8533 46.1864 47.2979 46.1864H49.5767C50.0213 46.1864 50.3548 46.5199 50.3548 46.9645V49.3544ZM50.3548 42.407C50.3548 42.8517 50.0213 43.1851 49.5767 43.1851H47.2979C46.8533 43.1851 46.5198 42.8517 46.5198 42.407V40.0171C46.5198 39.5725 46.8533 39.239 47.2979 39.239H49.5767C50.0213 39.239 50.3548 39.5725 50.3548 40.0171V42.407ZM50.3548 35.404C50.3548 35.8487 50.0213 36.1821 49.5767 36.1821H47.2979C46.8533 36.1821 46.5198 35.8487 46.5198 35.404V33.0141C46.5198 32.5695 46.8533 32.236 47.2979 32.236H49.5767C50.0213 32.236 50.3548 32.5695 50.3548 33.0141V35.404ZM50.3548 28.4566C50.3548 28.9012 50.0213 29.2347 49.5767 29.2347H47.2979C46.8533 29.2347 46.5198 28.9012 46.5198 28.4566V26.0667C46.5198 25.6221 46.8533 25.2886 47.2979 25.2886H49.5767C50.0213 25.2886 50.3548 25.6221 50.3548 26.0667V28.4566ZM50.3548 21.4536C50.3548 21.8983 50.0213 22.2317 49.5767 22.2317H47.2979C46.8533 22.2317 46.5198 21.8983 46.5198 21.4536V19.0637C46.5198 18.6191 46.8533 18.2856 47.2979 18.2856H49.5767C50.0213 18.2856 50.3548 18.6191 50.3548 19.0637V21.4536ZM50.3548 14.5062C50.3548 14.9508 50.0213 15.2843 49.5767 15.2843H47.2979C46.8533 15.2843 46.5198 14.9508 46.5198 14.5062V12.1163C46.5198 11.6717 46.8533 11.3382 47.2979 11.3382H49.5767C50.0213 11.3382 50.3548 11.6717 50.3548 12.1163V14.5062ZM68.1958 67.9179H52.6335V59.2476C52.6335 58.8029 52.967 58.4694 53.4117 58.4694H67.4176C67.8623 58.4694 68.1958 58.8029 68.1958 59.2476V67.9179ZM74.2539 49.3544C74.2539 49.7991 73.9204 50.1325 73.4758 50.1325H54.4677C54.023 50.1325 53.6896 49.7991 53.6896 49.3544V46.9645C53.6896 46.5199 54.023 46.1864 54.4677 46.1864H73.4758C73.9204 46.1864 74.2539 46.5199 74.2539 46.9645V49.3544ZM74.2539 42.407C74.2539 42.8517 73.9204 43.1851 73.4758 43.1851H54.4677C54.023 43.1851 53.6896 42.8517 53.6896 42.407V40.0171C53.6896 39.5725 54.023 39.239 54.4677 39.239H73.4758C73.9204 39.239 74.2539 39.5725 74.2539 40.0171V42.407ZM74.2539 35.404C74.2539 35.8487 73.9204 36.1821 73.4758 36.1821H54.4677C54.023 36.1821 53.6896 35.8487 53.6896 35.404V33.0141C53.6896 32.5695 54.023 32.236 54.4677 32.236H73.4758C73.9204 32.236 74.2539 32.5695 74.2539 33.0141V35.404ZM74.2539 28.4566C74.2539 28.9012 73.9204 29.2347 73.4758 29.2347H54.4677C54.023 29.2347 53.6896 28.9012 53.6896 28.4566V26.0667C53.6896 25.6221 54.023 25.2886 54.4677 25.2886H73.4758C73.9204 25.2886 74.2539 25.6221 74.2539 26.0667V28.4566ZM74.2539 21.4536C74.2539 21.8983 73.9204 22.2317 73.4758 22.2317H54.4677C54.023 22.2317 53.6896 21.8983 53.6896 21.4536V19.0637C53.6896 18.6191 54.023 18.2856 54.4677 18.2856H73.4758C73.9204 18.2856 74.2539 18.6191 74.2539 19.0637V21.4536ZM74.2539 14.5062C74.2539 14.9508 73.9204 15.2843 73.4758 15.2843H54.4677C54.023 15.2843 53.6896 14.9508 53.6896 14.5062V12.1163C53.6896 11.6717 54.023 11.3382 54.4677 11.3382H73.4758C73.9204 11.3382 74.2539 11.6717 74.2539 12.1163V14.5062Z" fill="#2C4A6E" />
    </g>
    <defs>
        <clipPath id="clip0">
            <rect width="130" height="71.5306" fill="white" />
        </clipPath>
    </defs>
</svg>