<svg width="104" height="47" viewBox="0 0 104 47" fill="none" xmlns="http://www.w3.org/2000/svg">
    <path d="M48.694 22.0002V7.65624H51.928V13.5302H52.016L56.284 7.65624H59.848L55.514 13.3762L60.64 22.0002H57.098L53.6 15.9502L51.928 18.1502V22.0002H48.694ZM67.4361 22.2642C66.4681 22.2642 65.5808 22.0956 64.7741 21.7582C63.9821 21.4062 63.3001 20.9076 62.7281 20.2622C62.1561 19.6169 61.7088 18.8322 61.3861 17.9082C61.0781 16.9842 60.9241 15.9356 60.9241 14.7622C60.9241 13.5889 61.0781 12.5476 61.3861 11.6382C61.7088 10.7142 62.1561 9.94424 62.7281 9.32824C63.3001 8.69758 63.9821 8.22091 64.7741 7.89824C65.5808 7.56091 66.4681 7.39224 67.4361 7.39224C68.4041 7.39224 69.2841 7.56091 70.0761 7.89824C70.8828 8.22091 71.5721 8.69758 72.1441 9.32824C72.7161 9.95891 73.1561 10.7362 73.4641 11.6602C73.7868 12.5696 73.9481 13.6036 73.9481 14.7622C73.9481 15.9356 73.7868 16.9842 73.4641 17.9082C73.1561 18.8322 72.7161 19.6169 72.1441 20.2622C71.5721 20.9076 70.8828 21.4062 70.0761 21.7582C69.2841 22.0956 68.4041 22.2642 67.4361 22.2642ZM67.4361 19.4702C68.4188 19.4702 69.1961 19.0522 69.7681 18.2162C70.3401 17.3656 70.6261 16.2142 70.6261 14.7622C70.6261 13.3249 70.3401 12.2029 69.7681 11.3962C69.1961 10.5896 68.4188 10.1862 67.4361 10.1862C66.4534 10.1862 65.6761 10.5896 65.1041 11.3962C64.5321 12.2029 64.2461 13.3249 64.2461 14.7622C64.2461 16.2142 64.5321 17.3656 65.1041 18.2162C65.6761 19.0522 66.4534 19.4702 67.4361 19.4702ZM76.6452 22.0002V7.65624H79.8792V22.0002H76.6452ZM83.2624 22.0002V7.65624H86.5844L90.3244 14.7842L91.7324 17.9522H91.8204C91.747 17.1896 91.659 16.3389 91.5564 15.4002C91.4684 14.4616 91.4244 13.5669 91.4244 12.7162V7.65624H94.5044V22.0002H91.1824L87.4424 14.8502L86.0344 11.7262H85.9464C86.0197 12.5182 86.1004 13.3689 86.1884 14.2782C86.291 15.1876 86.3424 16.0676 86.3424 16.9182V22.0002H83.2624ZM48.694 44.0002V29.6562H53.864C54.6267 29.6562 55.338 29.7296 55.998 29.8762C56.6727 30.0229 57.2593 30.2722 57.758 30.6242C58.2567 30.9616 58.6527 31.4162 58.946 31.9882C59.2393 32.5602 59.386 33.2716 59.386 34.1222C59.386 35.1782 59.1513 36.0509 58.682 36.7402C58.2273 37.4149 57.6113 37.9209 56.834 38.2582L60.09 44.0002H56.46L53.71 38.8302H51.928V44.0002H48.694ZM51.928 36.2562H53.6C54.4507 36.2562 55.096 36.0802 55.536 35.7282C55.9907 35.3616 56.218 34.8262 56.218 34.1222C56.218 33.4182 55.9907 32.9269 55.536 32.6482C55.096 32.3696 54.4507 32.2302 53.6 32.2302H51.928V36.2562ZM68.0162 44.2642C67.0482 44.2642 66.1609 44.0956 65.3542 43.7582C64.5622 43.4062 63.8802 42.9076 63.3082 42.2622C62.7362 41.6169 62.2889 40.8322 61.9662 39.9082C61.6582 38.9842 61.5042 37.9356 61.5042 36.7622C61.5042 35.5889 61.6582 34.5476 61.9662 33.6382C62.2889 32.7142 62.7362 31.9442 63.3082 31.3282C63.8802 30.6976 64.5622 30.2209 65.3542 29.8982C66.1609 29.5609 67.0482 29.3922 68.0162 29.3922C68.9842 29.3922 69.8642 29.5609 70.6562 29.8982C71.4629 30.2209 72.1522 30.6976 72.7242 31.3282C73.2962 31.9589 73.7362 32.7362 74.0442 33.6602C74.3669 34.5696 74.5282 35.6036 74.5282 36.7622C74.5282 37.9356 74.3669 38.9842 74.0442 39.9082C73.7362 40.8322 73.2962 41.6169 72.7242 42.2622C72.1522 42.9076 71.4629 43.4062 70.6562 43.7582C69.8642 44.0956 68.9842 44.2642 68.0162 44.2642ZM68.0162 41.4702C68.9989 41.4702 69.7762 41.0522 70.3482 40.2162C70.9202 39.3656 71.2062 38.2142 71.2062 36.7622C71.2062 35.3249 70.9202 34.2029 70.3482 33.3962C69.7762 32.5896 68.9989 32.1862 68.0162 32.1862C67.0335 32.1862 66.2562 32.5896 65.6842 33.3962C65.1122 34.2029 64.8262 35.3249 64.8262 36.7622C64.8262 38.2142 65.1122 39.3656 65.6842 40.2162C66.2562 41.0522 67.0335 41.4702 68.0162 41.4702ZM77.2253 44.0002V29.6562H82.1313C82.8793 29.6562 83.5686 29.7149 84.1993 29.8322C84.8446 29.9349 85.4019 30.1256 85.8713 30.4042C86.3553 30.6829 86.7293 31.0496 86.9933 31.5042C87.2719 31.9589 87.4113 32.5309 87.4113 33.2202C87.4113 33.5429 87.3673 33.8656 87.2793 34.1882C87.1913 34.5109 87.0666 34.8116 86.9053 35.0902C86.7439 35.3689 86.5459 35.6182 86.3113 35.8382C86.0913 36.0582 85.8346 36.2196 85.5413 36.3222V36.4102C85.9079 36.4982 86.2453 36.6376 86.5533 36.8282C86.8613 37.0042 87.1326 37.2316 87.3673 37.5102C87.6019 37.7889 87.7853 38.1189 87.9173 38.5002C88.0493 38.8669 88.1153 39.2922 88.1153 39.7762C88.1153 40.5096 87.9686 41.1402 87.6753 41.6682C87.3966 42.1962 87.0006 42.6362 86.4873 42.9882C85.9886 43.3256 85.4019 43.5822 84.7273 43.7582C84.0526 43.9196 83.3266 44.0002 82.5493 44.0002H77.2253ZM80.4593 35.3982H81.9773C82.7693 35.3982 83.3413 35.2442 83.6933 34.9362C84.0599 34.6282 84.2433 34.2176 84.2433 33.7042C84.2433 33.1469 84.0599 32.7509 83.6933 32.5162C83.3266 32.2816 82.7619 32.1642 81.9992 32.1642H80.4593V35.3982ZM80.4593 41.4922H82.2853C84.0599 41.4922 84.9473 40.8469 84.9473 39.5562C84.9473 38.9256 84.7273 38.4782 84.2873 38.2142C83.8473 37.9356 83.1799 37.7962 82.2853 37.7962H80.4593V41.4922ZM96.3756 44.2642C95.4076 44.2642 94.5202 44.0956 93.7136 43.7582C92.9216 43.4062 92.2396 42.9076 91.6676 42.2622C91.0956 41.6169 90.6482 40.8322 90.3256 39.9082C90.0176 38.9842 89.8636 37.9356 89.8636 36.7622C89.8636 35.5889 90.0176 34.5476 90.3256 33.6382C90.6482 32.7142 91.0956 31.9442 91.6676 31.3282C92.2396 30.6976 92.9216 30.2209 93.7136 29.8982C94.5202 29.5609 95.4076 29.3922 96.3756 29.3922C97.3436 29.3922 98.2236 29.5609 99.0156 29.8982C99.8222 30.2209 100.512 30.6976 101.084 31.3282C101.656 31.9589 102.096 32.7362 102.404 33.6602C102.726 34.5696 102.888 35.6036 102.888 36.7622C102.888 37.9356 102.726 38.9842 102.404 39.9082C102.096 40.8322 101.656 41.6169 101.084 42.2622C100.512 42.9076 99.8222 43.4062 99.0156 43.7582C98.2236 44.0956 97.3436 44.2642 96.3756 44.2642ZM96.3756 41.4702C97.3582 41.4702 98.1356 41.0522 98.7076 40.2162C99.2796 39.3656 99.5656 38.2142 99.5656 36.7622C99.5656 35.3249 99.2796 34.2029 98.7076 33.3962C98.1356 32.5896 97.3582 32.1862 96.3756 32.1862C95.3929 32.1862 94.6156 32.5896 94.0436 33.3962C93.4716 34.2029 93.1856 35.3249 93.1856 36.7622C93.1856 38.2142 93.4716 39.3656 94.0436 40.2162C94.6156 41.0522 95.3929 41.4702 96.3756 41.4702Z" fill="#378DF4" />
    <g clip-path="url(#clip0)">
        <path d="M30.6023 43.7141H7.35547V21.9834H30.6023V43.7141ZM9.25059 41.819H28.7072V23.8785H9.25059V41.819Z" fill="#378DF4" />
        <path d="M30.6021 18.9512C30.2231 12.5078 25.1695 7.4541 18.9787 7.4541C12.788 7.4541 7.73437 12.5078 7.229 18.9512V19.9619H30.6021V18.9512Z" fill="#378DF4" />
        <path d="M34.1397 21.9834H32.2446V36.8917H34.1397V21.9834Z" fill="#378DF4" />
        <path d="M32.3706 42.4506V40.5555C33.1287 40.5555 33.7604 39.9238 33.7604 39.1657C33.7604 38.4077 33.1287 37.776 32.3706 37.776V35.8809C34.1394 35.8809 35.6555 37.2706 35.6555 39.0394C35.6555 40.8082 34.2657 42.4506 32.3706 42.4506Z" fill="#378DF4" />
        <path d="M5.71299 21.9834H3.81787V36.8917H5.71299V21.9834Z" fill="#378DF4" />
        <path d="M5.46017 42.4506C3.69139 42.4506 2.17529 41.0609 2.17529 39.2921C2.17529 37.5233 3.69139 36.1335 5.46017 36.1335V37.9023C4.70212 37.9023 4.07041 38.534 4.07041 39.2921C4.07041 40.0501 4.70212 40.6818 5.46017 40.6818V42.4506Z" fill="#378DF4" />
        <path d="M19.8629 4.16919H17.9678V7.95943H19.8629V4.16919Z" fill="#378DF4" />
        <path d="M18.9786 5.93804C17.3362 5.93804 16.0728 4.67463 16.0728 3.03219C16.0728 1.38975 17.3362 0 18.9786 0C20.621 0 21.8845 1.26341 21.8845 2.90585C21.8845 4.54829 20.621 5.93804 18.9786 5.93804ZM18.9786 1.89512C18.3469 1.89512 17.8415 2.40049 17.8415 3.03219C17.8415 3.6639 18.3469 4.16926 18.9786 4.16926C19.6103 4.16926 20.1157 3.6639 20.1157 3.03219C20.1157 2.40049 19.6103 1.89512 18.9786 1.89512Z" fill="#378DF4" />
    </g>
    <defs>
        <clipPath id="clip0">
            <rect x="2.17529" width="33.4804" height="43.7141" fill="white" />
        </clipPath>
    </defs>
</svg>