<svg width="128" height="44" viewBox="0 0 128 44" fill="none" xmlns="http://www.w3.org/2000/svg">
    <path d="M63.694 19V4.656H66.928V10.53H67.016L71.284 4.656H74.848L70.514 10.376L75.64 19H72.098L68.6 12.95L66.928 15.15V19H63.694ZM82.4361 19.264C81.4681 19.264 80.5808 19.0953 79.7741 18.758C78.9821 18.406 78.3001 17.9073 77.7281 17.262C77.1561 16.6167 76.7088 15.832 76.3861 14.908C76.0781 13.984 75.9241 12.9353 75.9241 11.762C75.9241 10.5887 76.0781 9.54733 76.3861 8.638C76.7088 7.714 77.1561 6.944 77.7281 6.328C78.3001 5.69733 78.9821 5.22067 79.7741 4.898C80.5808 4.56067 81.4681 4.392 82.4361 4.392C83.4041 4.392 84.2841 4.56067 85.0761 4.898C85.8828 5.22067 86.5721 5.69733 87.1441 6.328C87.7161 6.95867 88.1561 7.736 88.4641 8.66C88.7868 9.56933 88.9481 10.6033 88.9481 11.762C88.9481 12.9353 88.7868 13.984 88.4641 14.908C88.1561 15.832 87.7161 16.6167 87.1441 17.262C86.5721 17.9073 85.8828 18.406 85.0761 18.758C84.2841 19.0953 83.4041 19.264 82.4361 19.264ZM82.4361 16.47C83.4188 16.47 84.1961 16.052 84.7681 15.216C85.3401 14.3653 85.6261 13.214 85.6261 11.762C85.6261 10.3247 85.3401 9.20267 84.7681 8.396C84.1961 7.58933 83.4188 7.186 82.4361 7.186C81.4534 7.186 80.6761 7.58933 80.1041 8.396C79.5321 9.20267 79.2461 10.3247 79.2461 11.762C79.2461 13.214 79.5321 14.3653 80.1041 15.216C80.6761 16.052 81.4534 16.47 82.4361 16.47ZM91.6452 19V4.656H94.8792V19H91.6452ZM98.2624 19V4.656H101.584L105.324 11.784L106.732 14.952H106.82C106.747 14.1893 106.659 13.3387 106.556 12.4C106.468 11.4613 106.424 10.5667 106.424 9.716V4.656H109.504V19H106.182L102.442 11.85L101.034 8.726H100.946C101.02 9.518 101.1 10.3687 101.188 11.278C101.291 12.1873 101.342 13.0673 101.342 13.918V19H98.2624ZM63.694 41V26.656H68.6C69.348 26.656 70.0373 26.7147 70.668 26.832C71.3133 26.9347 71.8707 27.1253 72.34 27.404C72.824 27.6827 73.198 28.0493 73.462 28.504C73.7407 28.9587 73.88 29.5307 73.88 30.22C73.88 30.5427 73.836 30.8653 73.748 31.188C73.66 31.5107 73.5353 31.8113 73.374 32.09C73.2127 32.3687 73.0147 32.618 72.78 32.838C72.56 33.058 72.3033 33.2193 72.01 33.322V33.41C72.3767 33.498 72.714 33.6373 73.022 33.828C73.33 34.004 73.6013 34.2313 73.836 34.51C74.0707 34.7887 74.254 35.1187 74.386 35.5C74.518 35.8667 74.584 36.292 74.584 36.776C74.584 37.5093 74.4373 38.14 74.144 38.668C73.8653 39.196 73.4693 39.636 72.956 39.988C72.4573 40.3253 71.8707 40.582 71.196 40.758C70.5213 40.9193 69.7953 41 69.018 41H63.694ZM66.928 32.398H68.446C69.238 32.398 69.81 32.244 70.162 31.936C70.5287 31.628 70.712 31.2173 70.712 30.704C70.712 30.1467 70.5287 29.7507 70.162 29.516C69.7953 29.2813 69.2307 29.164 68.468 29.164H66.928V32.398ZM66.928 38.492H68.754C70.5287 38.492 71.416 37.8467 71.416 36.556C71.416 35.9253 71.196 35.478 70.756 35.214C70.316 34.9353 69.6487 34.796 68.754 34.796H66.928V38.492ZM77.0143 41V26.656H80.2483V41H77.0143ZM88.0095 41.264C87.0708 41.264 86.1322 41.0953 85.1935 40.758C84.2695 40.406 83.4408 39.8853 82.7075 39.196L84.5555 36.974C85.0688 37.414 85.6335 37.7733 86.2495 38.052C86.8802 38.3307 87.4962 38.47 88.0975 38.47C88.7722 38.47 89.2708 38.3453 89.5935 38.096C89.9308 37.8467 90.0995 37.5093 90.0995 37.084C90.0995 36.864 90.0482 36.6733 89.9455 36.512C89.8575 36.3507 89.7182 36.2113 89.5275 36.094C89.3515 35.962 89.1315 35.8447 88.8675 35.742C88.6182 35.6247 88.3395 35.5 88.0315 35.368L86.1615 34.576C85.7948 34.4293 85.4355 34.2387 85.0835 34.004C84.7462 33.7693 84.4382 33.498 84.1595 33.19C83.8955 32.8673 83.6828 32.5007 83.5215 32.09C83.3602 31.6647 83.2795 31.188 83.2795 30.66C83.2795 30.0733 83.4042 29.5233 83.6535 29.01C83.9028 28.482 84.2548 28.0273 84.7095 27.646C85.1642 27.25 85.6995 26.942 86.3155 26.722C86.9462 26.502 87.6355 26.392 88.3835 26.392C89.2195 26.392 90.0408 26.5533 90.8475 26.876C91.6688 27.1987 92.3875 27.668 93.0035 28.284L91.3535 30.33C90.8842 29.9633 90.4148 29.6847 89.9455 29.494C89.4762 29.2887 88.9555 29.186 88.3835 29.186C87.8262 29.186 87.3788 29.3033 87.0415 29.538C86.7188 29.758 86.5575 30.0733 86.5575 30.484C86.5575 30.704 86.6088 30.8947 86.7115 31.056C86.8288 31.2027 86.9828 31.342 87.1735 31.474C87.3788 31.5913 87.6135 31.7087 87.8775 31.826C88.1415 31.9287 88.4275 32.046 88.7355 32.178L90.5835 32.926C91.4635 33.278 92.1528 33.762 92.6515 34.378C93.1648 34.994 93.4215 35.808 93.4215 36.82C93.4215 37.4213 93.2968 37.9933 93.0475 38.536C92.8128 39.064 92.4608 39.5333 91.9915 39.944C91.5368 40.34 90.9722 40.6627 90.2975 40.912C89.6228 41.1467 88.8602 41.264 88.0095 41.264ZM95.8561 41V26.656H99.1781L102.918 33.784L104.326 36.952H104.414C104.341 36.1893 104.253 35.3387 104.15 34.4C104.062 33.4613 104.018 32.5667 104.018 31.716V26.656H107.098V41H103.776L100.036 33.85L98.6281 30.726H98.5401C98.6134 31.518 98.6941 32.3687 98.7821 33.278C98.8848 34.1873 98.9361 35.0673 98.9361 35.918V41H95.8561ZM110.487 41V26.656H113.721V41H110.487ZM121.482 41.264C120.543 41.264 119.605 41.0953 118.666 40.758C117.742 40.406 116.913 39.8853 116.18 39.196L118.028 36.974C118.541 37.414 119.106 37.7733 119.722 38.052C120.353 38.3307 120.969 38.47 121.57 38.47C122.245 38.47 122.743 38.3453 123.066 38.096C123.403 37.8467 123.572 37.5093 123.572 37.084C123.572 36.864 123.521 36.6733 123.418 36.512C123.33 36.3507 123.191 36.2113 123 36.094C122.824 35.962 122.604 35.8447 122.34 35.742C122.091 35.6247 121.812 35.5 121.504 35.368L119.634 34.576C119.267 34.4293 118.908 34.2387 118.556 34.004C118.219 33.7693 117.911 33.498 117.632 33.19C117.368 32.8673 117.155 32.5007 116.994 32.09C116.833 31.6647 116.752 31.188 116.752 30.66C116.752 30.0733 116.877 29.5233 117.126 29.01C117.375 28.482 117.727 28.0273 118.182 27.646C118.637 27.25 119.172 26.942 119.788 26.722C120.419 26.502 121.108 26.392 121.856 26.392C122.692 26.392 123.513 26.5533 124.32 26.876C125.141 27.1987 125.86 27.668 126.476 28.284L124.826 30.33C124.357 29.9633 123.887 29.6847 123.418 29.494C122.949 29.2887 122.428 29.186 121.856 29.186C121.299 29.186 120.851 29.3033 120.514 29.538C120.191 29.758 120.03 30.0733 120.03 30.484C120.03 30.704 120.081 30.8947 120.184 31.056C120.301 31.2027 120.455 31.342 120.646 31.474C120.851 31.5913 121.086 31.7087 121.35 31.826C121.614 31.9287 121.9 32.046 122.208 32.178L124.056 32.926C124.936 33.278 125.625 33.762 126.124 34.378C126.637 34.994 126.894 35.808 126.894 36.82C126.894 37.4213 126.769 37.9933 126.52 38.536C126.285 39.064 125.933 39.5333 125.464 39.944C125.009 40.34 124.445 40.6627 123.77 40.912C123.095 41.1467 122.333 41.264 121.482 41.264Z" fill="#2B486D" />
    <path d="M5.1491 21.1694H3.30078V40.0745H5.1491V21.1694Z" fill="#2B486D" />
    <path d="M47 39.1492H0V41H47V39.1492Z" fill="#2B486D" />
    <path d="M43.9633 3.58644C43.6992 2.66102 42.9071 2 41.983 2H5.01667C4.09251 2 3.16835 2.66102 3.03633 3.58644L0.131836 14.5593V18.261C0.131836 18.261 0.131836 21.9627 4.75262 21.9627C6.73296 21.9627 7.92116 21.3017 8.58127 20.5085C9.24139 21.3017 10.4296 21.9627 12.2779 21.9627C14.2582 21.9627 15.3144 21.3017 15.9745 20.5085C16.6346 21.3017 17.8228 21.9627 19.6712 21.9627C21.5195 21.9627 22.7077 21.3017 23.3678 20.5085C24.0279 21.3017 25.2161 21.9627 27.0644 21.9627C29.0448 21.9627 30.233 21.3017 30.8931 20.3763C31.5532 21.1695 32.7414 21.9627 34.7217 21.9627C36.57 21.9627 37.7582 21.3017 38.4184 20.5085C39.0785 21.3017 40.2667 21.9627 42.247 21.9627C46.8678 21.9627 46.8678 18.261 46.8678 18.261V14.5593L43.9633 3.58644Z" fill="#2B486D" />
    <path d="M43.6994 21.1694H41.8511V40.0745H43.6994V21.1694Z" fill="#2B486D" />
    <path d="M19.1431 41H9.10938V25.0034H19.1431V41ZM11.0897 39.1492H17.2948V26.9865H11.0897V39.1492Z" fill="#2B486D" />
    <path d="M38.1541 33.8609H23.1035V24.8711H38.1541V33.8609ZM24.9518 31.8779H36.3058V26.5897H24.9518V31.8779Z" fill="#2B486D" />
</svg>