<svg width="106" height="45" viewBox="0 0 106 45" fill="none" xmlns="http://www.w3.org/2000/svg">
    <path d="M57.694 19.4519V5.1079H60.928V10.9819H61.016L65.284 5.1079H68.848L64.514 10.8279L69.64 19.4519H66.098L62.6 13.4019L60.928 15.6019V19.4519H57.694ZM76.4361 19.7159C75.4681 19.7159 74.5808 19.5472 73.7741 19.2099C72.9821 18.8579 72.3001 18.3592 71.7281 17.7139C71.1561 17.0686 70.7088 16.2839 70.3861 15.3599C70.0781 14.4359 69.9241 13.3872 69.9241 12.2139C69.9241 11.0406 70.0781 9.99924 70.3861 9.0899C70.7088 8.1659 71.1561 7.3959 71.7281 6.7799C72.3001 6.14924 72.9821 5.67257 73.7741 5.3499C74.5808 5.01257 75.4681 4.8439 76.4361 4.8439C77.4041 4.8439 78.2841 5.01257 79.0761 5.3499C79.8828 5.67257 80.5721 6.14924 81.1441 6.7799C81.7161 7.41057 82.1561 8.1879 82.4641 9.1119C82.7868 10.0212 82.9481 11.0552 82.9481 12.2139C82.9481 13.3872 82.7868 14.4359 82.4641 15.3599C82.1561 16.2839 81.7161 17.0686 81.1441 17.7139C80.5721 18.3592 79.8828 18.8579 79.0761 19.2099C78.2841 19.5472 77.4041 19.7159 76.4361 19.7159ZM76.4361 16.9219C77.4188 16.9219 78.1961 16.5039 78.7681 15.6679C79.3401 14.8172 79.6261 13.6659 79.6261 12.2139C79.6261 10.7766 79.3401 9.65457 78.7681 8.8479C78.1961 8.04124 77.4188 7.6379 76.4361 7.6379C75.4534 7.6379 74.6761 8.04124 74.1041 8.8479C73.5321 9.65457 73.2461 10.7766 73.2461 12.2139C73.2461 13.6659 73.5321 14.8172 74.1041 15.6679C74.6761 16.5039 75.4534 16.9219 76.4361 16.9219ZM85.6452 19.4519V5.1079H88.8792V19.4519H85.6452ZM92.2624 19.4519V5.1079H95.5844L99.3244 12.2359L100.732 15.4039H100.82C100.747 14.6412 100.659 13.7906 100.556 12.8519C100.468 11.9132 100.424 11.0186 100.424 10.1679V5.1079H103.504V19.4519H100.182L96.4424 12.3019L95.0344 9.1779H94.9464C95.0197 9.9699 95.1004 10.8206 95.1884 11.7299C95.291 12.6392 95.3424 13.5192 95.3424 14.3699V19.4519H92.2624ZM57.694 41.4519V27.1079H62.622C63.414 27.1079 64.1547 27.1886 64.844 27.3499C65.5333 27.4966 66.1347 27.7532 66.648 28.1199C67.1613 28.4719 67.5647 28.9486 67.858 29.5499C68.166 30.1366 68.32 30.8626 68.32 31.7279C68.32 32.5639 68.166 33.2899 67.858 33.9059C67.5647 34.5219 67.1613 35.0279 66.648 35.4239C66.1347 35.8199 65.5407 36.1132 64.866 36.3039C64.1913 36.4946 63.4727 36.5899 62.71 36.5899H60.928V41.4519H57.694ZM60.928 34.0159H62.512C64.272 34.0159 65.152 33.2532 65.152 31.7279C65.152 30.9799 64.9173 30.4519 64.448 30.1439C63.9787 29.8359 63.304 29.6819 62.424 29.6819H60.928V34.0159ZM69.9195 41.4519V39.6039C70.8141 38.7679 71.6281 37.9906 72.3615 37.2719C73.1095 36.5386 73.7475 35.8566 74.2755 35.2259C74.8181 34.5806 75.2361 33.9866 75.5295 33.4439C75.8375 32.8866 75.9915 32.3586 75.9915 31.8599C75.9915 31.1706 75.8155 30.6499 75.4635 30.2979C75.1115 29.9312 74.6275 29.7479 74.0115 29.7479C73.4981 29.7479 73.0435 29.8946 72.6475 30.1879C72.2515 30.4666 71.8775 30.7966 71.5255 31.1779L69.7655 29.4399C70.4548 28.7066 71.1588 28.1566 71.8775 27.7899C72.5961 27.4086 73.4541 27.2179 74.4515 27.2179C75.1408 27.2179 75.7641 27.3279 76.3215 27.5479C76.8935 27.7532 77.3848 28.0539 77.7955 28.4499C78.2061 28.8312 78.5215 29.2932 78.7415 29.8359C78.9615 30.3786 79.0715 30.9872 79.0715 31.6619C79.0715 32.2486 78.9468 32.8499 78.6975 33.4659C78.4481 34.0672 78.1108 34.6759 77.6855 35.2919C77.2748 35.8932 76.7981 36.5019 76.2555 37.1179C75.7275 37.7192 75.1775 38.3132 74.6055 38.8999C74.9575 38.8559 75.3461 38.8192 75.7715 38.7899C76.2115 38.7459 76.6001 38.7239 76.9375 38.7239H79.7535V41.4519H69.9195ZM82.4225 41.4519V27.1079H87.3505C88.1425 27.1079 88.8832 27.1886 89.5725 27.3499C90.2618 27.4966 90.8632 27.7532 91.3765 28.1199C91.8898 28.4719 92.2932 28.9486 92.5865 29.5499C92.8945 30.1366 93.0485 30.8626 93.0485 31.7279C93.0485 32.5639 92.8945 33.2899 92.5865 33.9059C92.2932 34.5219 91.8898 35.0279 91.3765 35.4239C90.8632 35.8199 90.2692 36.1132 89.5945 36.3039C88.9198 36.4946 88.2012 36.5899 87.4385 36.5899H85.6565V41.4519H82.4225ZM85.6565 34.0159H87.2405C89.0005 34.0159 89.8805 33.2532 89.8805 31.7279C89.8805 30.9799 89.6458 30.4519 89.1765 30.1439C88.7072 29.8359 88.0325 29.6819 87.1525 29.6819H85.6565V34.0159Z" fill="#9E2C34" />
    <g clip-path="url(#clip0)">
        <path d="M9.24312 0C6.54718 0 4.36475 2.23397 4.36475 4.99359C4.36475 7.7532 6.54718 9.98718 9.24312 9.98718C11.9391 9.98718 14.1215 7.7532 14.1215 4.99359C14.1215 2.23397 11.9391 0 9.24312 0Z" fill="#9E2C34" />
        <path d="M0 14.4552V19.9744C0 21.1571 1.02703 22.2084 2.18243 22.2084H16.1757C17.3311 22.2084 18.3581 21.1571 18.3581 19.9744V14.4552C18.3581 13.2725 17.3311 12.2212 16.1757 12.2212H2.05405C1.02703 12.2212 0 13.2725 0 14.4552Z" fill="#9E2C34" />
        <path d="M28.7563 18.7917C26.0604 18.7917 23.8779 21.0257 23.8779 23.7853C23.8779 26.545 26.0604 28.7789 28.7563 28.7789C31.4523 28.7789 33.6347 26.545 33.6347 23.7853C33.6347 21.0257 31.4523 18.7917 28.7563 18.7917Z" fill="#9E2C34" />
        <path d="M19.5132 33.2469V38.7661C19.5132 39.9488 20.5402 41.0001 21.6956 41.0001H35.6889C36.8443 41.0001 37.8713 39.9488 37.8713 38.7661V33.2469C37.8713 32.0642 36.8443 31.0129 35.6889 31.0129H21.5672C20.5402 31.0129 19.5132 32.0642 19.5132 33.2469Z" fill="#9E2C34" />
        <path d="M3.0249 28.7023L3.0249 37.1125H5.07895V28.7023H3.0249Z" fill="#9E2C34" />
        <path d="M2.97057 37.1152H13.626V35.0127H2.97057V37.1152Z" fill="#9E2C34" />
        <path d="M34.2749 14.4535V6.04321H32.2208V14.4535H34.2749Z" fill="#9E2C34" />
        <path d="M34.277 6.04443H23.6216V8.147H34.277V6.04443Z" fill="#9E2C34" />
    </g>
    <defs>
        <clipPath id="clip0">
            <rect width="38" height="41" fill="white" />
        </clipPath>
    </defs>
</svg>