<svg width="130" height="75" viewBox="0 0 130 75" fill="none" xmlns="http://www.w3.org/2000/svg">
    <g clip-path="url(#clip0)">
        <path d="M0 36.0712H31.3467C31.3467 36.0712 30.513 30.0686 26.7892 30.0686C23.0654 30.0686 22.2317 35.7933 19.1193 32.3473C16.0068 28.9014 14.8397 28.6235 12.8388 28.6235C10.838 28.6235 8.55921 32.6252 5.72467 32.3473C2.83455 32.0695 0 36.0712 0 36.0712Z" fill="#F0EEEE" />
        <path d="M88.9268 11.2827H120.273C120.273 11.2827 119.44 5.28011 115.716 5.28011C111.992 5.28011 111.158 11.0048 108.046 7.55886C104.934 4.11294 103.766 3.89062 101.766 3.89062C99.7647 3.89062 97.486 7.89234 94.6514 7.61444C91.8169 7.28096 88.9268 11.2827 88.9268 11.2827Z" fill="#F0EEEE" />
        <path d="M23.0654 74.5318C23.0654 74.5318 26.9004 51.522 39.1834 58.1359C51.4665 64.7498 58.7473 63.7494 62.8046 46.8533C66.8619 29.9572 82.4241 32.5694 87.2595 56.1351C92.0949 79.6451 104.656 62.8046 114.605 63.805C124.553 64.8054 129.944 74.5318 129.944 74.5318H23.0654Z" fill="#F0EEEE" />
        <path d="M52.8559 51.0776C49.5211 51.0776 47.298 48.4654 47.298 45.2973V45.2418C47.298 42.1293 49.4656 39.5171 52.8003 39.5171C56.1907 39.5171 58.3582 42.1293 58.3582 45.2973V45.3529C58.4138 48.5209 56.1907 51.0776 52.8559 51.0776ZM56.0239 61.3042H51.8555L35.2928 39.795H39.4613L56.0239 61.3042ZM52.8559 47.6873C53.8563 47.6873 54.69 46.6868 54.69 45.2973V45.2418C54.69 43.9079 53.9675 42.8518 52.9115 42.8518C51.8555 42.8518 51.0774 43.9079 51.0774 45.2418V45.2973C51.0774 46.6868 51.7999 47.6873 52.8559 47.6873ZM38.5164 61.6377C35.1817 61.6377 32.9585 58.9698 32.9585 55.8574V55.8018C32.9585 52.6338 35.1261 50.0772 38.4608 50.0772C41.8512 50.0772 44.0188 52.6894 44.0188 55.8574V55.913C44.0188 59.0254 41.7956 61.6377 38.5164 61.6377ZM38.4608 58.2473C39.4613 58.2473 40.295 57.1913 40.295 55.8574V55.8018C40.295 54.4123 39.628 53.4119 38.5164 53.4119C37.4604 53.4119 36.6823 54.4123 36.6823 55.8018V55.8574C36.6823 57.2469 37.4048 58.2473 38.4608 58.2473Z" fill="#2C4A6E" />
        <path d="M73.5239 11L94 31.522H81.3516V75H65.6484V31.522H53L73.5239 11Z" fill="#2C4A6E" />
    </g>
    <defs>
        <clipPath id="clip0">
            <rect width="130" height="74.6986" fill="white" />
        </clipPath>
    </defs>
</svg>