<svg width="130" height="72" viewBox="0 0 130 72" fill="none" xmlns="http://www.w3.org/2000/svg">
    <g clip-path="url(#clip0)">
        <path d="M0 32.1805H31.3467C31.3467 32.1805 30.513 26.178 26.7892 26.178C23.0654 26.178 22.2317 31.9026 19.1193 28.4567C16.0068 25.0108 14.8397 24.7329 12.8388 24.7329C10.838 24.7329 8.55921 28.7346 5.72467 28.4567C2.83455 28.1788 0 32.1805 0 32.1805Z" fill="#F0EEEE" />
        <path d="M88.9268 7.39205H120.273C120.273 7.39205 119.44 1.38948 115.716 1.38948C111.992 1.38948 111.158 7.11415 108.046 3.66823C104.934 0.222317 103.766 0 101.766 0C99.7647 0 97.486 4.00171 94.6514 3.72381C91.8169 3.44592 88.9268 7.39205 88.9268 7.39205Z" fill="#F0EEEE" />
        <path d="M23.0654 70.6414C23.0654 70.6414 26.9004 47.6315 39.1834 54.2455C51.4665 60.8594 58.7473 59.859 62.8046 42.9629C66.8619 26.0668 82.4241 28.7346 87.2595 52.2446C92.0949 75.7547 104.656 58.9142 114.605 59.9146C124.553 60.915 129.944 70.6414 129.944 70.6414H23.0654Z" fill="#F0EEEE" />
        <path d="M48.8541 23.8989H51.4107C52.0777 23.8989 52.6335 23.3431 52.6335 22.6762V11.338C52.6335 10.671 52.0777 10.1152 51.4107 10.1152H48.8541C48.1871 10.1152 47.6313 10.671 47.6313 11.338V22.6762C47.6313 23.3431 48.1871 23.8989 48.8541 23.8989Z" fill="#2C4A6E" />
        <path d="M63.7495 23.8989H66.3062C66.9731 23.8989 67.5289 23.3431 67.5289 22.6762V11.338C67.5289 10.671 66.9731 10.1152 66.3062 10.1152H63.7495C63.0826 10.1152 62.5268 10.671 62.5268 11.338V22.6762C62.4712 23.3431 63.027 23.8989 63.7495 23.8989Z" fill="#2C4A6E" />
        <path d="M78.6446 23.8989H81.2013C81.8682 23.8989 82.424 23.3431 82.424 22.6762V11.338C82.424 10.671 81.8682 10.1152 81.2013 10.1152H78.6446C77.9777 10.1152 77.4219 10.671 77.4219 11.338V22.6762C77.4219 23.3431 77.9777 23.8989 78.6446 23.8989Z" fill="#2C4A6E" />
        <path d="M89.1491 16.229H83.8134V23.3432C83.8134 24.3436 82.9798 25.1217 82.0349 25.1217H77.6997C76.6993 25.1217 75.9212 24.3436 75.9212 23.3432V16.229H68.9182V23.3432C68.9182 24.3436 68.1401 25.1217 67.1397 25.1217H62.86C61.8596 25.1217 61.0815 24.3436 61.0815 23.3432V16.229H54.0785V23.3432C54.0785 24.3436 53.2448 25.1217 52.3 25.1217H47.9648C46.9644 25.1217 46.1862 24.3436 46.1862 23.3432V16.229H40.8506C39.1277 16.229 37.6826 17.6185 37.6826 19.397V67.6399C37.6826 69.3628 39.1277 70.8079 40.8506 70.8079H76.6437V47.8536C76.6437 47.7425 76.6437 47.6869 76.6437 47.5757C76.8104 46.4086 78.0888 45.3526 80.3675 44.5744C82.6463 43.7963 85.592 43.3517 88.8156 43.3517C90.0383 43.3517 91.2055 43.4073 92.3171 43.5184V19.397C92.3171 17.6185 90.872 16.229 89.1491 16.229ZM56.2461 59.9143H45.5749V49.2431H56.2461V59.9143ZM56.2461 43.0738H45.5749V32.347H56.2461V43.0738ZM72.3641 43.0738H61.6929V32.347H72.3641V43.0738Z" fill="#2C4A6E" />
        <path d="M107.879 58.6917C110.047 59.4698 112.993 59.8588 116.049 59.8588C119.106 59.8588 122.052 59.4698 124.22 58.6917C126.554 57.9136 127.832 56.7464 127.832 55.5237C127.832 54.3009 126.554 53.1338 124.22 52.3556C122.052 51.5775 119.106 51.1885 116.049 51.1885C112.993 51.1885 110.047 51.5775 107.879 52.3556C105.545 53.1338 104.267 54.3009 104.267 55.5237C104.267 56.7464 105.545 57.858 107.879 58.6917Z" fill="#2C4A6E" />
        <path d="M126.999 60.248C126.832 60.248 126.609 60.3036 126.387 60.4148C126.054 60.5815 125.609 60.7483 125.164 60.915L125.053 60.9706C122.608 61.8043 119.384 62.3045 116.049 62.3045C112.715 62.3045 109.491 61.8598 107.046 60.9706C106.379 60.7483 106.156 60.6371 105.878 60.5259C105.601 60.4148 105.378 60.3036 105.156 60.3036C104.711 60.3036 104.378 60.6371 104.322 60.915C104.267 61.0817 104.267 61.1929 104.267 61.3596C104.267 62.5824 105.545 63.7495 107.879 64.5276C110.047 65.3058 112.993 65.6948 116.049 65.6948C119.106 65.6948 122.052 65.3058 124.22 64.5276C126.554 63.7495 127.832 62.5824 127.832 61.3596C127.832 61.1929 127.777 60.9706 127.721 60.8038C127.554 60.3036 127.221 60.248 126.999 60.248Z" fill="#2C4A6E" />
        <path d="M126.999 66.0278C126.832 66.0278 126.609 66.0834 126.387 66.1946C126.054 66.3613 125.609 66.528 125.164 66.6948L125.053 66.7504C122.608 67.5841 119.384 68.0843 116.049 68.0843C112.659 68.0843 109.491 67.6396 107.046 66.7504C106.379 66.528 106.156 66.4169 105.878 66.3057C105.601 66.1946 105.378 66.0834 105.156 66.0834C104.711 66.0834 104.378 66.4169 104.322 66.6948C104.267 66.8615 104.267 66.9727 104.267 67.1394C104.267 68.3622 105.545 69.5293 107.879 70.3074C110.047 71.0856 112.993 71.4746 116.049 71.4746C119.106 71.4746 122.052 71.0856 124.22 70.3074C126.554 69.5293 127.832 68.3622 127.832 67.1394C127.832 66.9727 127.777 66.7504 127.721 66.5836C127.554 66.139 127.221 66.0278 126.999 66.0278Z" fill="#2C4A6E" />
        <path d="M82.8128 53.1336C84.9804 53.9117 87.9261 54.3007 90.983 54.3007C94.0399 54.3007 96.9856 53.9117 99.1532 53.1336C101.487 52.3555 102.766 51.1883 102.766 49.9656C102.766 48.7428 101.487 47.5756 99.1532 46.7975C96.9856 46.0194 94.0399 45.6304 90.983 45.6304C87.9261 45.6304 84.9804 46.0194 82.8128 46.7975C80.4785 47.5756 79.2002 48.7428 79.2002 49.9656C79.2002 51.1883 80.4785 52.3555 82.8128 53.1336Z" fill="#2C4A6E" />
        <path d="M101.932 54.6899C101.765 54.6899 101.543 54.7455 101.321 54.8567C100.987 55.0234 100.543 55.1902 100.098 55.3569L99.9868 55.4125C97.5414 56.2462 94.3178 56.7464 90.983 56.7464C87.5927 56.7464 84.4246 56.3017 81.9792 55.4125C81.3122 55.1902 81.0899 55.079 80.812 54.9678C80.5341 54.8567 80.3118 54.7455 80.0895 54.7455C79.6448 54.7455 79.3114 55.079 79.2558 55.3569C79.2002 55.5236 79.2002 55.6348 79.2002 55.8015C79.2002 57.0243 80.4785 58.1914 82.8128 58.9695C84.9804 59.7477 87.9261 60.1367 90.983 60.1367C94.0399 60.1367 96.9856 59.7477 99.1532 58.9695C101.487 58.1914 102.766 57.0243 102.766 55.8015C102.766 55.6348 102.71 55.4125 102.655 55.2457C102.488 54.7455 102.154 54.6899 101.932 54.6899Z" fill="#2C4A6E" />
        <path d="M101.932 60.5254C101.765 60.5254 101.543 60.581 101.321 60.6921C100.987 60.8589 100.543 61.0256 100.098 61.1923L99.9868 61.2479C97.5414 62.0816 94.3178 62.5818 90.983 62.5818C87.5927 62.5818 84.4246 62.1372 81.9792 61.2479C81.3122 61.0256 81.0899 60.9144 80.812 60.8033C80.5341 60.6921 80.3118 60.581 80.0895 60.581C79.6448 60.581 79.3114 60.9144 79.2558 61.1923C79.2002 61.3591 79.2002 61.4702 79.2002 61.637C79.2002 62.8597 80.4785 64.0269 82.8128 64.805C84.9804 65.5831 87.9261 65.9722 90.983 65.9722C94.0399 65.9722 96.9856 65.5831 99.1532 64.805C101.487 64.0269 102.766 62.8597 102.766 61.637C102.766 61.4702 102.71 61.2479 102.655 61.0812C102.488 60.581 102.154 60.5254 101.932 60.5254Z" fill="#2C4A6E" />
        <path d="M101.932 66.3613C101.765 66.3613 101.543 66.4169 101.321 66.5281C100.987 66.6948 100.543 66.8615 100.098 67.0283L99.9868 67.0839C97.5414 67.9175 94.3178 68.4178 90.983 68.4178C87.6482 68.4178 84.4246 67.9731 81.9792 67.0839C81.3122 66.8615 81.0899 66.7504 80.812 66.6392C80.5341 66.5281 80.3118 66.4169 80.0895 66.4169C79.6448 66.4169 79.3114 66.7504 79.2558 67.0283C79.2002 67.195 79.2002 67.3062 79.2002 67.4729C79.2002 68.6957 80.4785 69.8628 82.8128 70.6409C84.9804 71.4191 87.9261 71.8081 90.983 71.8081C94.0399 71.8081 96.9856 71.4191 99.1532 70.6409C101.487 69.8628 102.766 68.6957 102.766 67.4729C102.766 67.3062 102.71 67.0839 102.655 66.9171C102.488 66.4725 102.154 66.3613 101.932 66.3613Z" fill="#2C4A6E" />
    </g>
    <defs>
        <clipPath id="clip0">
            <rect width="130" height="71.8641" fill="white" />
        </clipPath>
    </defs>
</svg>