<svg width="130" height="71" viewBox="0 0 130 71" fill="none" xmlns="http://www.w3.org/2000/svg">
    <g clip-path="url(#clip0)">
        <path d="M0 32.1805H31.3467C31.3467 32.1805 30.513 26.178 26.7892 26.178C23.0654 26.178 22.2317 31.9026 19.1193 28.4567C16.0068 25.0108 14.8397 24.7329 12.8388 24.7329C10.838 24.7329 8.55921 28.7346 5.72467 28.4567C2.83455 28.1788 0 32.1805 0 32.1805Z" fill="#F0EEEE" />
        <path d="M88.9268 7.39205H120.273C120.273 7.39205 119.44 1.38948 115.716 1.38948C111.992 1.38948 111.158 7.11415 108.046 3.66823C104.934 0.222317 103.766 0 101.766 0C99.7647 0 97.486 4.00171 94.6514 3.72381C91.8169 3.44592 88.9268 7.39205 88.9268 7.39205Z" fill="#F0EEEE" />
        <path d="M23.0654 70.6414C23.0654 70.6414 26.9004 47.6315 39.1834 54.2455C51.4665 60.8594 58.7473 59.859 62.8046 42.9629C66.8619 26.0668 82.4241 28.7346 87.2595 52.2446C92.0949 75.7547 104.656 58.9142 114.605 59.9146C124.553 60.915 129.944 70.6414 129.944 70.6414H23.0654Z" fill="#F0EEEE" />
        <path d="M87.5932 11.3384H67.5847C67.14 11.3384 66.8066 11.6719 66.8066 12.1165V15.618C66.8066 16.0626 66.4731 16.3961 66.0284 16.3961H52.8006C52.3559 16.3961 52.0225 16.7296 52.0225 17.1742V49.4658H71.9754L73.0314 47.5205H64.2499C63.8053 47.5205 63.4718 47.187 63.4718 46.7424V44.4081C63.4718 43.9634 63.8053 43.63 64.2499 43.63H75.199L76.922 40.5731H64.2499C63.8053 40.5731 63.4718 40.2396 63.4718 39.795V37.4607C63.4718 37.016 63.8053 36.6825 64.2499 36.6825H79.0896L80.8125 33.6257H64.2499C63.8053 33.6257 63.4718 33.2922 63.4718 32.8476V30.5132C63.4718 30.0686 63.8053 29.7351 64.2499 29.7351H83.258C83.7027 29.7351 84.0361 30.0686 84.0361 30.5132V30.8467H88.3713V12.1165C88.3713 11.6719 88.0379 11.3384 87.5932 11.3384ZM60.137 46.7424C60.137 47.187 59.8036 47.5205 59.3589 47.5205H57.0802C56.6355 47.5205 56.3021 47.187 56.3021 46.7424V44.4081C56.3021 43.9634 56.6355 43.63 57.0802 43.63H59.3589C59.8036 43.63 60.137 43.9634 60.137 44.4081V46.7424ZM60.137 39.7394C60.137 40.184 59.8036 40.5175 59.3589 40.5175H57.0802C56.6355 40.5175 56.3021 40.184 56.3021 39.7394V37.4051C56.3021 36.9604 56.6355 36.627 57.0802 36.627H59.3589C59.8036 36.627 60.137 36.9604 60.137 37.4051V39.7394ZM60.137 32.792C60.137 33.2366 59.8036 33.5701 59.3589 33.5701H57.0802C56.6355 33.5701 56.3021 33.2366 56.3021 32.792V30.4577C56.3021 30.013 56.6355 29.6796 57.0802 29.6796H59.3589C59.8036 29.6796 60.137 30.013 60.137 30.4577V32.792ZM60.137 25.8446C60.137 26.2892 59.8036 26.6227 59.3589 26.6227H57.0802C56.6355 26.6227 56.3021 26.2892 56.3021 25.8446V23.5102C56.3021 23.0656 56.6355 22.7321 57.0802 22.7321H59.3589C59.8036 22.7321 60.137 23.0656 60.137 23.5102V25.8446ZM84.0361 25.8446C84.0361 26.2892 83.7027 26.6227 83.258 26.6227H64.2499C63.8053 26.6227 63.4718 26.2892 63.4718 25.8446V23.5102C63.4718 23.0656 63.8053 22.7321 64.2499 22.7321H83.258C83.7027 22.7321 84.0361 23.0656 84.0361 23.5102V25.8446Z" fill="#2C4A6E" />
        <path d="M56.5796 62.249H71.3637V70.6971H56.5796V62.249Z" fill="#2C4A6E" />
        <path d="M39.7393 62.249H54.5234V70.6971H39.7393V62.249Z" fill="#2C4A6E" />
        <path d="M81.8682 53.9677V60.0814H96.6523V51.689H92.7061L81.8682 53.9677Z" fill="#2C4A6E" />
        <path d="M70.6969 51.689H65.0278V60.137H79.8119V54.4124L73.0868 55.8574C72.9201 55.913 72.7534 55.913 72.5866 55.913C71.7529 55.913 70.9192 55.4684 70.4746 54.6902C70.03 53.9677 70.03 53.0229 70.419 52.3003L70.6969 51.689Z" fill="#2C4A6E" />
        <path d="M50.2439 55.913H48.1318V60.137H62.9159V51.689H48.1318V53.801H50.2439C50.7996 53.801 51.2999 54.2456 51.2999 54.857C51.2999 55.4128 50.7996 55.913 50.2439 55.913ZM54.4679 53.801H58.6919C59.2477 53.801 59.7479 54.2456 59.7479 54.857C59.7479 55.4128 59.3033 55.913 58.6919 55.913H54.4679C53.9121 55.913 53.4119 55.4684 53.4119 54.857C53.4119 54.3012 53.8565 53.801 54.4679 53.801Z" fill="#2C4A6E" />
        <path d="M73.4204 62.249H88.2045V70.6971H73.4204V62.249Z" fill="#2C4A6E" />
        <path d="M83.8694 46.0198C83.5359 46.0198 83.2024 45.8531 83.0357 45.5752C82.7022 45.1305 82.7578 44.4636 83.258 44.0745L87.5932 40.7953L82.8134 34.5149C82.7578 34.4037 82.6466 34.3481 82.5355 34.3481C82.4799 34.3481 82.3687 34.4037 82.3687 34.4593L72.2533 53.3007C72.1977 53.4118 72.1977 53.5786 72.3089 53.6897C72.3645 53.8009 72.5312 53.8565 72.6424 53.8565L93.5402 49.4101C93.5958 49.4101 93.7069 49.3546 93.7069 49.2434C93.7625 49.1322 93.7069 49.0211 93.6513 48.9099L88.8715 42.5739L84.5363 45.8531C84.314 45.9086 84.0917 46.0198 83.8694 46.0198Z" fill="#2C4A6E" />
        <path d="M90.3163 62.249H105.045V70.6971H90.2607V62.249H90.3163Z" fill="#2C4A6E" />
        <path d="M108.046 21.3427C106.99 19.9533 104.989 19.6754 103.6 20.7314L94.9293 27.2341C94.4847 27.5676 94.3735 28.2346 94.707 28.7348L95.6519 29.9575L93.4843 31.6249C92.4838 32.3474 91.9836 33.5146 92.0392 34.7374L92.1504 36.6271C92.1504 37.1273 91.928 37.6275 91.539 37.961L87.6484 40.8511L88.9268 42.5185L92.8173 39.6283C93.8177 38.9058 94.318 37.7386 94.2624 36.5159L94.1512 34.6262C94.1512 34.126 94.3735 33.6258 94.7626 33.2923L96.9302 31.6249L97.875 32.8477C98.0418 33.07 98.3197 33.2367 98.5976 33.2367C98.6531 33.2367 98.7087 33.2367 98.7643 33.2367C98.9866 33.2367 99.2089 33.1811 99.3757 33.0144L108.046 26.5116C109.436 25.4556 109.713 23.4548 108.657 22.0653L108.046 21.3427ZM106.768 24.8442L98.931 30.7356L97.9862 29.5129L97.0413 28.2902L104.878 22.3987C105.323 22.0653 105.99 22.1209 106.379 22.6211L106.99 23.3992C107.157 23.6215 107.212 23.8994 107.212 24.1773C107.101 24.4552 106.99 24.6775 106.768 24.8442Z" fill="#2C4A6E" />
    </g>
    <defs>
        <clipPath id="clip0">
            <rect width="130" height="70.6413" fill="white" />
        </clipPath>
    </defs>
</svg>