<svg width="130" height="71" viewBox="0 0 130 71" fill="none" xmlns="http://www.w3.org/2000/svg">
    <g clip-path="url(#clip0)">
        <path d="M0 32.1805H31.3467C31.3467 32.1805 30.513 26.178 26.7892 26.178C23.0654 26.178 22.2317 31.9026 19.1193 28.4567C16.0068 25.0108 14.8397 24.7329 12.8388 24.7329C10.838 24.7329 8.55921 28.7346 5.72467 28.4567C2.83455 28.1788 0 32.1805 0 32.1805Z" fill="#F0EEEE" />
        <path d="M88.9268 7.39205H120.273C120.273 7.39205 119.44 1.38948 115.716 1.38948C111.992 1.38948 111.158 7.11415 108.046 3.66823C104.934 0.222317 103.766 0 101.766 0C99.7647 0 97.486 4.00171 94.6514 3.72381C91.8169 3.44592 88.9268 7.39205 88.9268 7.39205Z" fill="#F0EEEE" />
        <path d="M23.0654 70.6414C23.0654 70.6414 26.9004 47.6315 39.1834 54.2455C51.4665 60.8594 58.7473 59.859 62.8046 42.9629C66.8619 26.0668 82.4241 28.7346 87.2595 52.2446C92.0949 75.7547 104.656 58.9142 114.605 59.9146C124.553 60.915 129.944 70.6414 129.944 70.6414H23.0654Z" fill="#F0EEEE" />
        <path d="M106.101 58.5254C108.046 59.1923 110.603 59.5814 113.326 59.5814C116.05 59.5814 118.606 59.1923 120.552 58.5254C122.608 57.8029 123.775 56.8024 123.775 55.6908C123.775 54.5793 122.664 53.5788 120.552 52.8563C118.606 52.1893 116.05 51.8003 113.326 51.8003C110.603 51.8003 108.046 52.1893 106.101 52.8563C104.045 53.5788 102.877 54.5793 102.877 55.6908C102.877 56.858 104.045 57.8584 106.101 58.5254Z" fill="#2C4A6E" />
        <path d="M122.997 59.915C122.83 59.915 122.664 59.9706 122.441 60.0818C122.163 60.2485 121.774 60.3597 121.385 60.5264L121.274 60.582C119.107 61.3045 116.272 61.7492 113.271 61.7492C110.269 61.7492 107.435 61.3601 105.267 60.582C104.656 60.3597 104.489 60.3041 104.267 60.1929C104.045 60.0818 103.822 60.0262 103.656 60.0262C103.266 60.0262 102.989 60.3041 102.933 60.582C102.877 60.6931 102.877 60.8599 102.877 60.971C102.877 62.0826 103.989 63.0831 106.101 63.8056C108.046 64.4725 110.603 64.8616 113.326 64.8616C116.05 64.8616 118.606 64.4725 120.552 63.8056C122.608 63.0831 123.775 62.0826 123.775 60.971C123.775 60.8043 123.72 60.6376 123.664 60.4708C123.497 59.9706 123.164 59.915 122.997 59.915Z" fill="#2C4A6E" />
        <path d="M122.997 65.0283C122.83 65.0283 122.664 65.0839 122.441 65.1951C122.163 65.3618 121.774 65.473 121.385 65.6397L121.274 65.6953C119.107 66.4178 116.272 66.8624 113.271 66.8624C110.269 66.8624 107.435 66.4734 105.267 65.6953C104.656 65.473 104.489 65.4174 104.267 65.3062C104.045 65.1951 103.822 65.1395 103.656 65.1395C103.266 65.1395 102.989 65.4174 102.933 65.6953C102.877 65.8064 102.877 65.9732 102.877 66.0843C102.877 67.1959 103.989 68.1963 106.101 68.9189C108.046 69.5858 110.603 69.9749 113.326 69.9749C116.05 69.9749 118.606 69.5858 120.552 68.9189C122.608 68.1963 123.775 67.1959 123.775 66.0843C123.775 65.9176 123.72 65.7509 123.664 65.5841C123.497 65.1395 123.164 65.0283 122.997 65.0283Z" fill="#2C4A6E" />
        <path d="M83.9248 53.6343C85.87 54.3012 88.4267 54.6903 91.1501 54.6903C93.8735 54.6903 96.4301 54.3012 98.3754 53.6343C100.432 52.9117 101.599 51.9113 101.599 50.7997C101.599 49.6881 100.487 48.6877 98.3754 47.9652C96.4301 47.2982 93.8735 46.9092 91.1501 46.9092C88.4267 46.9092 85.87 47.2982 83.9248 47.9652C81.8683 48.6877 80.7012 49.6881 80.7012 50.7997C80.7012 51.9113 81.8683 52.9117 83.9248 53.6343Z" fill="#2C4A6E" />
        <path d="M100.821 55.0239C100.654 55.0239 100.487 55.0795 100.265 55.1907C99.9872 55.3574 99.5981 55.4686 99.2091 55.6353L99.0979 55.6909C96.9303 56.4134 94.0958 56.858 91.0945 56.858C88.0932 56.858 85.2587 56.469 83.0911 55.6909C82.4797 55.4686 82.313 55.413 82.0907 55.3018C81.8683 55.1907 81.646 55.1351 81.4793 55.1351C81.0902 55.1351 80.8123 55.413 80.7568 55.6909C80.7012 55.802 80.7012 55.9688 80.7012 56.0799C80.7012 57.1915 81.8128 58.1919 83.9248 58.9145C85.87 59.5814 88.4267 59.9705 91.1501 59.9705C93.8735 59.9705 96.4301 59.5814 98.3754 58.9145C100.432 58.1919 101.599 57.1915 101.599 56.0799C101.599 55.9132 101.543 55.7465 101.488 55.5797C101.321 55.0795 101.043 55.0239 100.821 55.0239Z" fill="#2C4A6E" />
        <path d="M100.821 60.1372C100.654 60.1372 100.487 60.1928 100.265 60.3039C99.9872 60.4707 99.5981 60.5818 99.2091 60.7486L99.0979 60.8042C96.9303 61.5267 94.0958 61.9713 91.0945 61.9713C88.0932 61.9713 85.2587 61.5823 83.0911 60.8042C82.4797 60.5818 82.313 60.5263 82.0907 60.4151C81.8683 60.3039 81.646 60.2484 81.4793 60.2484C81.0902 60.2484 80.8123 60.5263 80.7568 60.8042C80.7012 60.9153 80.7012 61.0821 80.7012 61.1932C80.7012 62.3048 81.8128 63.3052 83.9248 64.0278C85.87 64.6947 88.4267 65.0838 91.1501 65.0838C93.8735 65.0838 96.4301 64.6947 98.3754 64.0278C100.432 63.3052 101.599 62.3048 101.599 61.1932C101.599 61.0265 101.543 60.8597 101.488 60.693C101.321 60.1928 101.043 60.1372 100.821 60.1372Z" fill="#2C4A6E" />
        <path d="M100.821 65.3613C100.654 65.3613 100.487 65.4169 100.265 65.5281C99.9872 65.6948 99.5981 65.806 99.2091 65.9727L99.0979 66.0283C96.9303 66.7508 94.0958 67.1954 91.0945 67.1954C88.0932 67.1954 85.2587 66.8064 83.0911 66.0283C82.4797 65.806 82.313 65.7504 82.0907 65.6392C81.8683 65.5281 81.646 65.4725 81.4793 65.4725C81.0902 65.4725 80.8123 65.7504 80.7568 66.0283C80.7012 66.1394 80.7012 66.3062 80.7012 66.4173C80.7012 67.5289 81.8128 68.5293 83.9248 69.2519C85.87 69.9188 88.4267 70.3079 91.1501 70.3079C93.8735 70.3079 96.4301 69.9188 98.3754 69.2519C100.432 68.5293 101.599 67.5289 101.599 66.4173C101.599 66.2506 101.543 66.0839 101.488 65.9171C101.321 65.4169 101.043 65.3613 100.821 65.3613Z" fill="#2C4A6E" />
        <path d="M89.6495 11.0049H46.0753C46.0753 13.7838 43.7965 16.0626 41.0176 16.0626V31.4581C41.0176 48.6877 51.7444 64.1387 67.8624 70.1969C72.0864 68.6406 75.9214 66.4175 79.3117 63.6941V49.9104C79.3117 48.7432 80.4789 47.6872 82.6465 46.9647C84.7029 46.2422 87.3707 45.8531 90.2053 45.8531C90.8166 45.8531 91.4836 45.8531 92.095 45.9087C93.7623 41.3512 94.7072 36.5158 94.7072 31.4581V16.0626C91.9282 16.0626 89.6495 13.7838 89.6495 11.0049ZM87.1484 22.5098H48.8543V19.6753H87.1484V22.5098Z" fill="#2C4A6E" />
    </g>
    <defs>
        <clipPath id="clip0">
            <rect width="130" height="70.6413" fill="white" />
        </clipPath>
    </defs>
</svg>