<svg width="110" height="91" viewBox="0 0 110 91" fill="none" xmlns="http://www.w3.org/2000/svg">
    <g clip-path="url(#clip0)">
        <path d="M10.5327 83.2434C10.5327 83.2434 23.6137 94.0311 36.0153 89.1045C48.5018 84.1778 54.1929 73.3902 67.6137 69.0581C81.0346 64.7261 98.6176 69.228 106.517 55.6373C114.417 42.0465 113.143 2.88823 49.606 0.0851449C-13.9307 -2.71794 -3.39784 75.089 10.5327 83.2434Z" fill="white" />
        <path d="M56.8261 81.7144C56.8261 81.7144 59.884 80.1005 64.2161 75.0889C68.5481 70.1623 71.4362 68.9731 75.1736 70.1623C78.8261 71.2665 81.2895 81.9692 72.0308 88.0851C62.7721 94.2009 52.664 86.4712 56.8261 81.7144Z" fill="white" />
        <path d="M76.7876 22.2549H64.6409V20.641C64.6409 18.0078 62.5174 15.8843 59.8842 15.8843H47.1428C44.4247 15.8843 42.3011 18.0078 42.3011 20.641V22.2549H30.2394C28.1158 22.2549 26.332 23.9538 26.332 26.1623V29.1352V39.8379V41.4518V49.8611V58.9499C26.332 61.6681 28.4556 63.7916 31.0888 63.7916H75.8533C78.4865 63.7916 80.61 61.6681 80.61 58.9499V49.7762V41.3669V39.753V29.0503V26.0773C80.695 23.9538 78.9112 22.2549 76.7876 22.2549ZM45.6139 20.641C45.6139 19.7916 46.2934 19.0271 47.2278 19.0271H59.9691C60.8185 19.0271 61.583 19.7916 61.583 20.641V22.2549H45.6139V20.641Z" fill="#2B496D" />
        <path d="M70.6718 43.5752C70.6718 49.691 65.6602 54.7026 59.5444 54.7026C53.4286 54.7026 48.417 49.691 48.417 43.5752C48.417 37.4593 53.4286 32.4478 59.5444 32.4478V43.5752H70.6718Z" fill="#378DF4" />
        <path d="M73.3052 40.6875H62.1777V29.5601C68.2936 29.5601 73.3052 34.5716 73.3052 40.6875Z" fill="#F3F4F5" />
        <path d="M33.4672 46.2935H30.749V52.9189H33.4672V46.2935Z" fill="#378DF4" />
        <path d="M38.6486 42.2163H35.9304V52.919H38.6486V42.2163Z" fill="#378DF4" />
        <path d="M43.8305 39.668H41.1123V52.9189H43.8305V39.668Z" fill="#378DF4" />
    </g>
    <defs>
        <clipPath id="clip0">
            <rect width="110" height="90.3784" fill="white" />
        </clipPath>
    </defs>
</svg>