<svg width="100" height="92" viewBox="0 0 100 92" fill="none" xmlns="http://www.w3.org/2000/svg">
    <g clip-path="url(#clip0)">
        <path d="M90.4245 15.8302C90.4245 15.8302 78.5326 6.0233 67.2584 10.5021C55.9843 14.9808 50.6561 24.7878 38.4553 28.726C26.2546 32.6642 10.27 28.5716 3.08856 40.9268C-4.09291 53.282 -2.93461 88.8804 54.826 91.4287C112.587 93.977 103.089 23.2434 90.4245 15.8302Z" fill="#F3F4F5" />
        <path d="M61.4666 7.79931C61.4666 7.79931 58.6867 9.26649 54.7485 13.8225C50.8102 18.3785 48.1848 19.3823 44.7871 18.3012C41.4666 17.2974 39.2272 7.56765 47.6442 2.0078C56.0612 -3.55204 65.2504 3.55221 61.4666 7.79931Z" fill="#F3F4F5" />
        <path d="M41.3128 61.6216C41.7761 60.8494 40.8494 59.0734 40.2317 57.7606C39.6139 56.4479 38.8417 53.8996 40.0772 52.973C41.3128 52.0464 44.0155 51.4286 46.7954 50.7336C49.5753 50.0386 52.3552 49.6525 52.6641 48.8031C52.8958 48.0309 50.1931 48.1081 47.1815 48.0309C44.1699 47.9537 43.3205 47.722 43.3205 47.722C43.3205 47.722 43.4749 47.4904 44.556 47.1043C45.5599 46.7182 51.4286 44.8649 52.278 44.0155C53.1274 43.166 52.6641 42.3166 50.1931 42.8572C47.722 43.3977 42.6255 45.0193 42.3939 44.8649C42.2394 44.6332 46.7182 42.3166 48.4942 41.0811C50.2703 39.8456 50.502 39.3823 50.0386 38.9189C49.6525 38.5328 41.2355 42.5483 40.7722 42.3166C40.3089 42.085 41.1583 41.2355 41.7761 40.5406C42.3938 39.8456 44.4788 37.3745 44.2471 35.6757C44.0155 33.9769 38.5328 39.7684 37.4518 40.7722C36.5251 41.6989 33.2047 44.2471 30.7336 45.251C30.502 45.3282 30.2703 45.4054 30.0386 45.4826C27.4904 46.1776 19.4595 48.4942 17.3745 49.3437C15.2896 50.1159 14.4402 50.3475 14.4402 50.3475L20 59.305L25.1738 56.2162C25.1738 56.2162 26.7182 55.3668 28.2626 54.6718C29.4209 54.1313 30.6564 53.7452 31.2742 53.8224C32.8186 53.9769 38.7645 60.2317 39.5367 61.0811C40.3089 61.7761 40.8494 62.3938 41.3128 61.6216Z" fill="#378DF4" />
        <path d="M81.1579 50.4247L75.0575 52.8185C75.0575 52.8185 69.6521 54.8263 68.0305 54.363C67.5671 54.2085 66.8722 53.5907 66.0227 52.6641C63.7834 50.1931 60.849 45.946 60.3085 45.1738C59.6135 44.1699 59.1502 43.4749 58.5324 44.2471C57.9146 45.0193 58.5324 47.1043 58.9957 48.6487C59.459 50.1931 59.8451 53.0502 58.378 53.8224C56.8336 54.5946 53.8992 54.7491 50.7332 55.0579C47.6444 55.3668 44.5556 55.2896 44.0922 56.0618C43.7061 56.9112 46.6405 57.2201 49.8065 57.8379C52.9725 58.4556 53.8992 58.8417 53.8992 58.8417C53.8992 58.8417 53.6675 59.0734 52.5092 59.305C51.3509 59.6139 44.71 60.5406 43.7061 61.3128C42.6251 62.085 43.0112 63.0888 45.7911 62.9344C48.571 62.7799 54.3625 61.8533 54.5169 62.085C54.6714 62.3166 49.4204 64.0927 47.3355 65.1738C45.2505 66.2548 44.9417 66.7182 45.2505 67.1815C45.6366 67.722 55.3664 64.7877 55.8297 65.0965C56.293 65.4826 55.2119 66.1776 54.4397 66.7954C53.6675 67.4131 51.042 69.7297 50.9648 71.583C50.8876 73.4363 57.8374 68.1853 59.1502 67.2587C59.9996 66.6409 62.4706 65.251 64.7872 64.3243C65.8683 63.9382 67.0266 63.5521 67.9532 63.4749C70.8104 63.166 79.8451 62.0077 82.239 61.5444C84.6328 61.0039 85.5594 60.9267 85.5594 60.9267L81.1579 50.4247Z" fill="#2B486D" />
    </g>
    <defs>
        <clipPath id="clip0">
            <rect width="100" height="91.5058" fill="white" />
        </clipPath>
    </defs>
</svg>