<svg width="83" height="85" viewBox="0 0 83 85" fill="none" xmlns="http://www.w3.org/2000/svg">
    <g clip-path="url(#clip0)">
        <path d="M52.155 73.5563C48.6155 71.613 43.7756 70.6774 38.4301 69.8137C34.4571 69.1659 30.1951 68.5901 26.0054 67.6545C11.558 64.5597 -1.87802 57.8662 0.216845 32.7476C0.505792 29.005 1.15592 25.6223 1.95053 22.6714C2.095 22.2396 2.23947 21.8077 2.31171 21.3759C3.32302 18.1371 4.62329 15.4022 6.21249 13.099C6.35697 12.8831 6.50144 12.6672 6.64591 12.5232C18.9262 -5.39801 43.9201 1.15152 43.9201 1.15152C46.0149 1.79928 47.6764 2.73493 48.9766 3.81452C52.5162 6.76541 53.8887 11.0838 55.1168 15.4022C55.3335 16.1939 55.5502 16.9136 55.7669 17.7053C56.417 20.0804 57.2116 22.3835 58.3674 24.3988C59.3065 26.0541 60.4623 27.4936 62.0515 28.6452C71.2978 35.4106 77.149 40.9525 82.2055 57.5783C87.2621 74.276 67.397 81.9051 52.155 73.5563Z" fill="#F3F4F5" />
        <path d="M42.9813 77.2989C42.9813 77.2989 42.9813 73.4843 33.8794 73.0525C24.7776 72.6207 20.8046 68.7341 19.7933 75.7875C18.782 82.8408 27.7393 86.0796 30.7733 84.6401C33.8072 83.2007 33.5182 82.409 37.2746 81.8332C40.9586 81.2574 44.4982 79.5301 42.9813 77.2989Z" fill="#F3F4F5" />
        <path d="M35.252 28.0693H41.9701L52.6611 53.2599H45.1485L43.3426 48.7975H33.6628L31.8569 53.2599H24.4888L35.252 28.0693ZM41.3199 43.3996L38.5027 36.2742L35.6855 43.3996H41.3199Z" fill="#2B486D" />
        <path d="M24.849 19.7205H32.2894L27.594 30.8763H33.3729L20.2981 41.8161L23.5487 30.7323H20.2981L24.849 19.7205Z" fill="#378DF4" />
    </g>
    <defs>
        <clipPath id="clip0">
            <rect width="83" height="85" fill="white" />
        </clipPath>
    </defs>
</svg>