<svg width="110" height="98" viewBox="0 0 110 98" fill="none" xmlns="http://www.w3.org/2000/svg">
    <g clip-path="url(#clip0)">
        <path d="M99.6733 39.8692C96.4407 43.8203 94.2856 49.5672 92.1305 55.9427C90.5141 60.7019 88.8978 65.8203 86.9223 70.759C80.0978 87.7305 68.6937 102.906 36.6366 95.6325C31.7876 94.555 27.657 93.208 23.9753 91.5917C23.4366 91.3223 22.8978 91.1427 22.359 90.8733C18.408 88.9876 15.0856 86.9223 12.3917 84.5876C12.1223 84.408 11.9427 84.2284 11.6733 83.959C-9.15935 65.5509 4.31004 36.3672 4.31004 36.3672C5.56719 33.9427 7.09372 32.1468 8.79984 30.7101C13.2896 26.9386 19.1264 26.0407 25.0529 25.4121C26.0407 25.3223 27.1182 25.1427 28.106 25.0529C31.3386 24.6937 34.3917 24.155 37.2651 23.1672C39.51 22.359 41.6651 21.1917 43.4611 19.4856C54.057 9.42842 62.408 3.3223 84.9468 0.269238C107.575 -2.78382 113.502 22.8978 99.6733 39.8692Z" fill="white" />
        <path d="M102.727 49.0285C102.727 49.0285 97.7878 48.3101 95.4531 59.9836C93.1184 71.6571 87.2817 75.9673 96.1715 78.7509C105.061 81.5346 111.078 70.5795 109.82 66.3591C108.563 62.1387 107.486 62.3183 107.486 57.4693C107.486 52.6203 105.959 47.5019 102.727 49.0285Z" fill="white" />
        <path d="M70.4898 28.3755H31.249C31.249 30.8898 29.1837 32.9551 26.6694 32.9551V46.8734C26.6694 62.4081 36.3674 76.3265 50.9143 81.8041C65.4613 76.3265 75.1592 62.4081 75.1592 46.8734V32.9551C72.5551 32.9551 70.4898 30.8898 70.4898 28.3755Z" fill="#2B486D" />
        <path d="M51.8121 35.4691C52.5305 34.9303 53.608 35.1099 54.057 35.9181C54.4162 36.5467 55.1345 36.816 55.8529 36.6365C56.7509 36.3671 57.6488 36.9058 57.8284 37.8038C57.9182 38.5222 58.5468 39.0609 59.2652 39.0609C60.1631 39.1507 60.8815 39.9589 60.6121 40.8569C60.4325 41.5752 60.7917 42.2936 61.4203 42.563C62.2284 42.9222 62.5876 43.9997 62.0488 44.7181C61.6896 45.3467 61.6896 46.065 62.2284 46.6038C62.857 47.2324 62.7672 48.3099 62.0488 48.8487C61.51 49.2977 61.2407 50.016 61.51 50.6446C61.8692 51.4528 61.4203 52.4405 60.5223 52.7099C59.8039 52.8895 59.3549 53.5181 59.3549 54.2365C59.3549 55.1344 58.5468 55.8528 57.6488 55.763C56.9305 55.6732 56.3019 56.1222 56.0325 56.7507C55.7631 57.6487 54.6856 58.0079 53.8774 57.5589C53.2488 57.1997 52.4407 57.3793 51.9917 57.9181C51.3631 58.6364 50.2856 58.6364 49.7468 57.9181C49.2978 57.3793 48.4896 57.1997 47.8611 57.5589C47.0529 58.0079 46.0652 57.6487 45.706 56.7507C45.4366 56.1222 44.808 55.6732 44.0896 55.763C43.1917 55.8528 42.3835 55.1344 42.3835 54.2365C42.3835 53.5181 41.9345 52.8895 41.2162 52.7099C40.3182 52.5303 39.8692 51.5426 40.2284 50.6446C40.4978 50.016 40.3182 49.2079 39.6896 48.8487C38.9713 48.3099 38.7917 47.2324 39.51 46.6038C40.0488 46.065 40.0488 45.3467 39.6896 44.7181C39.1509 43.9099 39.51 42.9222 40.3182 42.563C40.9468 42.2936 41.306 41.5752 41.1264 40.8569C40.9468 39.9589 41.5754 39.0609 42.4733 39.0609C43.1917 39.0609 43.7305 38.5222 43.91 37.8038C44.0896 36.9058 44.9876 36.2773 45.8856 36.6365C46.5141 36.816 47.3223 36.5467 47.6815 35.9181C48.1305 35.1099 49.208 34.9303 49.9264 35.4691C50.4651 35.9181 51.2733 35.9181 51.8121 35.4691Z" fill="#378DF4" />
        <path d="M47.8612 59.3549L44.5387 67.0773L42.8326 63.9345L39.3306 64.9222L42.7428 56.8406C43.0122 57.1998 43.4612 57.4691 44 57.4691C44.0898 57.4691 44.0898 57.4691 44.1795 57.4691C44.2693 57.4691 44.2693 57.4691 44.3591 57.4691C44.9877 57.4691 45.5265 57.8283 45.7959 58.4569C45.9755 59.0855 46.604 59.4447 47.2326 59.4447C47.4122 59.4447 47.6816 59.4447 47.8612 59.3549Z" fill="#378DF4" />
        <path d="M61.959 64.9222L58.3672 63.9344L56.6611 67.0773L53.3386 59.1753C53.5182 59.1753 53.6978 59.2651 53.7876 59.3549C54.057 59.4447 54.2366 59.5345 54.506 59.5345C55.1345 59.5345 55.6733 59.1753 55.9427 58.5467C56.1223 57.9181 56.7509 57.5589 57.3794 57.5589C57.4692 57.5589 57.4692 57.5589 57.559 57.5589C58.008 57.6487 58.3672 57.4691 58.6366 57.2896L61.959 64.9222Z" fill="#378DF4" />
        <path d="M47.2326 45.7957L49.1183 47.0529C49.2979 47.1427 49.4775 47.1427 49.5673 47.0529L55.853 42.6529C56.302 42.3835 56.751 42.9223 56.4816 43.2815L49.9265 51.8121C49.7469 52.0815 49.2979 51.9917 49.2081 51.7223L46.6041 46.4243C46.3347 45.9753 46.8734 45.5264 47.2326 45.7957Z" fill="white" />
    </g>
    <defs>
        <clipPath id="clip0">
            <rect width="110" height="97.4286" fill="white" />
        </clipPath>
    </defs>
</svg>