<svg width="100" height="89" viewBox="0 0 100 89" fill="none" xmlns="http://www.w3.org/2000/svg">
    <g clip-path="url(#clip0)">
        <path d="M1.17575 31.8149C1.17575 31.8149 19.765 -21.7487 61.3521 10.2131C102.939 42.1749 108.597 58.1925 89.6401 78.9861C70.6835 99.7796 -10.8007 84.6437 1.17575 31.8149Z" fill="#F3F4F5" />
        <path d="M75.1655 15.2095C75.1655 15.2095 79.721 21.0876 81.7783 19.9854C83.8356 18.8833 89.5667 13.1522 84.7908 6.17207C80.0149 -0.808095 68.4058 -1.46937 65.1729 2.4983C62.0134 6.39249 75.1655 15.2095 75.1655 15.2095Z" fill="#F3F4F5" />
        <path d="M26.011 44.1586V44.0851C26.011 40.2644 28.6561 37.105 32.7707 37.105C36.8119 37.105 39.457 40.2644 39.457 44.0851V44.1586C39.457 47.9793 36.7384 51.1388 32.6972 51.1388C28.7296 51.1388 26.011 48.0528 26.011 44.1586ZM48.9353 37.4724H53.9316L33.8728 63.4826H28.8765L48.9353 37.4724ZM34.9015 44.1586V44.0851C34.9015 42.4687 33.9463 41.2196 32.6972 41.2196C31.3747 41.2196 30.5665 42.4687 30.5665 44.0851V44.1586C30.5665 45.8486 31.5216 47.0242 32.7707 47.0242C34.0198 47.0242 34.9015 45.8486 34.9015 44.1586ZM43.4246 56.9433V56.8699C43.4246 53.0491 46.0698 49.8897 50.1844 49.8897C54.2255 49.8897 56.8706 52.9757 56.8706 56.8699V56.9433C56.8706 60.7641 54.1521 63.9235 50.1109 63.9235C46.0698 63.85 43.4246 60.6906 43.4246 56.9433ZM52.3152 56.9433V56.8699C52.3152 55.1799 51.36 54.0043 50.1109 54.0043C48.7884 54.0043 47.9801 55.1799 47.9801 56.8699V56.9433C47.9801 58.5598 48.9353 59.8089 50.1844 59.8089C51.4335 59.8089 52.3152 58.5598 52.3152 56.9433Z" fill="#2B486D" />
        <path d="M72.8146 34.5334L62.528 24.2468L52.3149 34.5334H58.6338V43.3504H66.4957V34.5334H72.8146Z" fill="#378DF4" />
        <path d="M58.7075 52.0204C59.722 52.0204 60.5444 51.198 60.5444 50.1836C60.5444 49.1691 59.722 48.3467 58.7075 48.3467C57.693 48.3467 56.8706 49.1691 56.8706 50.1836C56.8706 51.198 57.693 52.0204 58.7075 52.0204Z" fill="#2B486D" />
        <path d="M48.2738 33.7987C48.8825 33.7987 49.3759 33.3053 49.3759 32.6966C49.3759 32.0879 48.8825 31.5945 48.2738 31.5945C47.6651 31.5945 47.1716 32.0879 47.1716 32.6966C47.1716 33.3053 47.6651 33.7987 48.2738 33.7987Z" fill="#2B486D" />
    </g>
    <defs>
        <clipPath id="clip0">
            <rect width="100" height="88.0235" fill="white" />
        </clipPath>
    </defs>
</svg>